<svg xmlns="http://www.w3.org/2000/svg" width="39" height="59" viewBox="0 0 10.319 15.61"><g stroke-linejoin="round" stroke-width=".777"><path d="M9.186 7.783c1.265-1.988.888-4.65-.903-6.218C7.318.719 6.058.301 4.785.403a4.74 4.74 0 0 0-2.743 1.161C.25 3.132-.139 5.783 1.132 7.777c1.614 2.462 2.971 1.82 4.031 7.445 1.055-5.615 2.414-4.984 4.024-7.44z" fill="red" stroke="red"/><path d="M9.186 7.783c1.265-1.988.888-4.65-.903-6.218C7.318.719 6.058.301 4.785.403a4.74 4.74 0 0 0-2.743 1.161c-1.791 1.568-2.18 4.219-.91 6.213 1.614 2.462 2.97 1.82 4.031 7.445 1.055-5.615 2.414-4.984 4.023-7.44z" fill="none" stroke="#000" stroke-opacity=".2"/></g><path d="M5.884 3.691l.086-.382h.91l-.524 2.47q-.048.234-.048.31 0 .079.038.124.041.045.096.045.186 0 .479-.241.296-.245.513-.661.22-.42.22-.916 0-.413-.158-.779-.155-.365-.451-.634-.296-.269-.734-.42-.434-.152-.985-.152-.562 0-1.03.148-.469.145-.823.42-.355.272-.593.675-.21.351-.32.779-.11.427-.11.872 0 .593.234 1.085.238.489.686.82.451.334 1.089.472.637.141 1.44.059.637-.076 1.078-.289.444-.214.751-.599h.734q-.179.369-.469.658-.286.289-.672.486-.386.2-.865.303-.479.103-1.044.103-.847 0-1.526-.224-.679-.22-1.144-.641-.462-.417-.699-.996-.238-.582-.238-1.285 0-.734.245-1.371.245-.637.703-1.106.462-.472 1.123-.737.665-.265 1.464-.265.655 0 1.199.193.548.189.937.548.389.358.593.851.207.489.207 1.082 0 .462-.165.906-.165.441-.475.796-.307.351-.723.558-.417.203-.899.203-.279 0-.434-.093-.155-.096-.207-.303-.3.296-.689.376-.389.076-.754-.072-.365-.152-.593-.506-.224-.355-.224-.875 0-.541.231-1.064.234-.524.661-.858.431-.334.972-.334.62 0 .91.465zM4 5.476q0 .413.172.634.172.22.451.22.324 0 .568-.258.248-.258.376-.651.127-.396.127-.765 0-.183-.045-.327-.041-.148-.127-.258-.083-.11-.203-.165-.117-.059-.269-.059-.303 0-.548.238-.241.234-.372.613Q4 5.073 4 5.476z"/></svg>