<svg xmlns="http://www.w3.org/2000/svg" width="39" height="59" viewBox="0 0 10.319 15.61"><g stroke-linejoin="round" stroke-width=".777"><path d="M9.186 7.783c1.265-1.988.888-4.65-.903-6.218C7.318.719 6.058.301 4.785.403a4.74 4.74 0 0 0-2.743 1.161C.25 3.132-.139 5.783 1.132 7.777c1.614 2.462 2.971 1.82 4.031 7.445 1.055-5.615 2.414-4.984 4.024-7.44z" fill="red" stroke="red"/><path d="M9.186 7.783c1.265-1.988.888-4.65-.903-6.218C7.318.719 6.058.301 4.785.403a4.74 4.74 0 0 0-2.743 1.161c-1.791 1.568-2.18 4.219-.91 6.213 1.614 2.462 2.97 1.82 4.031 7.445 1.055-5.615 2.414-4.984 4.023-7.44z" fill="none" stroke="#000" stroke-opacity=".2"/></g><path d="M4.11 3.134v1.771L6.119 2.81q.145-.152.245-.224.103-.072.272-.072.22 0 .355.131.138.127.138.313 0 .224-.231.444L5.654 4.581l1.433 2.053q.152.214.227.376.076.158.076.31 0 .169-.134.293-.131.124-.358.124-.214 0-.348-.09-.134-.093-.227-.245-.093-.152-.165-.276l-1.209-1.86-.837.803v1.044q0 .317-.145.472-.145.152-.372.152-.131 0-.251-.069-.121-.069-.186-.186-.048-.096-.059-.224-.01-.127-.01-.369V3.134q0-.31.134-.465.138-.155.372-.155.231 0 .372.155.145.152.145.465z"/></svg>