<svg xmlns="http://www.w3.org/2000/svg" width="39" height="59" viewBox="0 0 10.319 15.61"><g stroke-linejoin="round" stroke-width=".777"><path d="M9.186 7.783c1.265-1.988.888-4.65-.903-6.218C7.318.719 6.058.301 4.785.403a4.74 4.74 0 0 0-2.743 1.161C.25 3.132-.139 5.783 1.132 7.777c1.614 2.462 2.971 1.82 4.031 7.445 1.055-5.615 2.414-4.984 4.024-7.44z" fill="red" stroke="red"/><path d="M9.186 7.783c1.265-1.988.888-4.65-.903-6.218C7.318.719 6.058.301 4.785.403a4.74 4.74 0 0 0-2.743 1.161c-1.791 1.568-2.18 4.219-.91 6.213 1.614 2.462 2.97 1.82 4.031 7.445 1.055-5.615 2.414-4.984 4.023-7.44z" fill="none" stroke="#000" stroke-opacity=".2"/></g><path d="M6.41 7.078l-.241-.634H4.115l-.241.648q-.141.379-.241.513-.1.131-.327.131-.193 0-.341-.141-.148-.141-.148-.32 0-.103.034-.214.034-.11.114-.307l1.292-3.28q.055-.141.131-.338.079-.2.165-.331.09-.131.231-.21.145-.083.355-.083.214 0 .355.083.145.079.231.207.09.127.148.276.062.145.155.389l1.319 3.259q.155.372.155.541 0 .176-.148.324-.145.145-.351.145-.121 0-.207-.045-.086-.041-.145-.114-.059-.076-.127-.227-.065-.155-.114-.272zM4.384 5.676h1.509l-.761-2.084z"/></svg>