<svg xmlns="http://www.w3.org/2000/svg" width="39" height="59" viewBox="0 0 10.319 15.61"><g stroke-linejoin="round" stroke-width=".777"><path d="M9.186 7.783c1.265-1.988.888-4.65-.903-6.218C7.318.719 6.058.301 4.785.403a4.74 4.74 0 0 0-2.743 1.161C.25 3.132-.139 5.783 1.132 7.777c1.614 2.462 2.971 1.82 4.031 7.445 1.055-5.615 2.414-4.984 4.024-7.44z" fill="red" stroke="red"/><path d="M9.186 7.783c1.265-1.988.888-4.65-.903-6.218C7.318.719 6.058.301 4.785.403a4.74 4.74 0 0 0-2.743 1.161c-1.791 1.568-2.18 4.219-.91 6.213 1.614 2.462 2.97 1.82 4.031 7.445 1.055-5.615 2.414-4.984 4.023-7.44z" fill="none" stroke="#000" stroke-opacity=".2"/></g><path d="M4.577 6.837h1.798q.269 0 .41.11.141.11.141.3 0 .169-.114.286-.11.117-.338.117H3.94q-.258 0-.403-.141-.145-.145-.145-.338 0-.124.093-.327.093-.207.203-.324.458-.475.827-.813.369-.341.527-.448.282-.2.469-.4.189-.203.286-.413.1-.214.1-.417 0-.22-.107-.393-.103-.176-.286-.272-.179-.096-.393-.096-.451 0-.71.396-.034.052-.117.283-.079.231-.183.355-.1.124-.296.124-.172 0-.286-.114-.114-.114-.114-.31 0-.238.107-.496.107-.258.317-.469.214-.21.537-.338.327-.131.765-.131.527 0 .899.165.241.11.424.303.183.193.282.448.103.251.103.524 0 .427-.214.779-.21.348-.431.548-.22.196-.741.62-.517.424-.71.658-.083.093-.169.224z"/></svg>