<svg xmlns="http://www.w3.org/2000/svg" width="39" height="59" viewBox="0 0 10.319 15.61"><g stroke-linejoin="round" stroke-width=".777"><path d="M9.186 7.783c1.265-1.988.888-4.65-.903-6.218C7.318.719 6.058.301 4.785.403a4.74 4.74 0 0 0-2.743 1.161C.25 3.132-.139 5.783 1.132 7.777c1.614 2.462 2.971 1.82 4.031 7.445 1.055-5.615 2.414-4.984 4.024-7.44z" fill="red" stroke="red"/><path d="M9.186 7.783c1.265-1.988.888-4.65-.903-6.218C7.318.719 6.058.301 4.785.403a4.74 4.74 0 0 0-2.743 1.161c-1.791 1.568-2.18 4.219-.91 6.213 1.614 2.462 2.97 1.82 4.031 7.445 1.055-5.615 2.414-4.984 4.023-7.44z" fill="none" stroke="#000" stroke-opacity=".2"/></g><path d="M4.984 4.601q.317 0 .544-.186.231-.186.231-.534 0-.265-.183-.455-.183-.193-.493-.193-.21 0-.348.059-.134.059-.214.155-.079.096-.152.248-.069.152-.127.286-.034.072-.124.114-.09.041-.207.041-.138 0-.255-.11-.114-.114-.114-.3 0-.179.107-.376.11-.2.317-.379.21-.179.52-.286.31-.11.692-.11.334 0 .61.093.276.09.479.262.203.172.307.4.103.227.103.489 0 .345-.152.593-.148.245-.427.479.269.145.451.331.186.186.279.413.093.224.093.486 0 .314-.127.606-.124.293-.369.524-.245.227-.582.358-.334.127-.741.127-.413 0-.741-.148-.327-.148-.541-.369-.21-.224-.32-.462-.107-.238-.107-.393 0-.2.127-.32.131-.124.324-.124.096 0 .186.059.09.055.117.134.179.479.382.713.207.231.579.231.214 0 .41-.103.2-.107.327-.314.131-.207.131-.479 0-.403-.22-.63-.22-.231-.613-.231-.069 0-.214.014-.145.014-.186.014-.189 0-.293-.093-.103-.096-.103-.265 0-.165.124-.265.124-.103.369-.103z"/></svg>