<svg xmlns="http://www.w3.org/2000/svg" width="39" height="59" viewBox="0 0 10.319 15.61"><g stroke-linejoin="round" stroke-width=".777"><path d="M9.186 7.783c1.265-1.988.888-4.65-.903-6.218C7.318.719 6.058.301 4.785.403a4.74 4.74 0 0 0-2.743 1.161C.25 3.132-.139 5.783 1.132 7.777c1.614 2.462 2.971 1.82 4.031 7.445 1.055-5.615 2.414-4.984 4.024-7.44z" fill="red" stroke="red"/><path d="M9.186 7.783c1.265-1.988.888-4.65-.903-6.218C7.318.719 6.058.301 4.785.403a4.74 4.74 0 0 0-2.743 1.161c-1.791 1.568-2.18 4.219-.91 6.213 1.614 2.462 2.97 1.82 4.031 7.445 1.055-5.615 2.414-4.984 4.023-7.44z" fill="none" stroke="#000" stroke-opacity=".2"/></g><path d="M3.986 2.648h2.294q.331 0 .479.103.148.103.148.341 0 .145-.176.382-.172.238-.396.527-.22.286-.458.713-.234.427-.431 1.044-.083.272-.117.451-.034.179-.076.465-.041.286-.072.438-.072.351-.207.489-.131.134-.351.134-.21 0-.338-.145-.127-.148-.127-.434 0-.22.093-.599.093-.379.303-.906.21-.531.524-1.085.317-.558.751-1.109H3.986q-.289 0-.434-.103-.141-.107-.141-.331 0-.238.152-.307.152-.069.424-.069z"/></svg>