<svg xmlns="http://www.w3.org/2000/svg" width="39" height="59" viewBox="0 0 10.319 15.61"><g stroke-linejoin="round" stroke-width=".777"><path d="M9.186 7.783c1.265-1.988.888-4.65-.903-6.218C7.318.719 6.058.301 4.785.403a4.74 4.74 0 0 0-2.743 1.161C.25 3.132-.139 5.783 1.132 7.777c1.614 2.462 2.971 1.82 4.031 7.445 1.055-5.615 2.414-4.984 4.024-7.44z" fill="red" stroke="red"/><path d="M9.186 7.783c1.265-1.988.888-4.65-.903-6.218C7.318.719 6.058.301 4.785.403a4.74 4.74 0 0 0-2.743 1.161c-1.791 1.568-2.18 4.219-.91 6.213 1.614 2.462 2.97 1.82 4.031 7.445 1.055-5.615 2.414-4.984 4.023-7.44z" fill="none" stroke="#000" stroke-opacity=".2"/></g><path d="M4.365 3.127l1.967 2.977V3.099q0-.293.124-.438.127-.148.341-.148.22 0 .348.148.127.145.127.438v3.972q0 .665-.551.665-.138 0-.248-.041-.11-.038-.207-.124-.096-.086-.179-.2-.083-.117-.165-.238L4.004 4.191v2.959q0 .289-.134.438-.134.148-.345.148-.217 0-.348-.148-.131-.152-.131-.438V3.254q0-.248.055-.389.065-.155.217-.251.152-.1.327-.1.138 0 .234.045.1.045.172.121.076.076.152.196.079.121.162.251z"/></svg>