<svg xmlns="http://www.w3.org/2000/svg" width="39" height="59" viewBox="0 0 10.319 15.61"><g stroke-linejoin="round" stroke-width=".777"><path d="M9.186 7.783c1.265-1.988.888-4.65-.903-6.218C7.318.719 6.058.301 4.785.403a4.74 4.74 0 0 0-2.743 1.161C.25 3.132-.139 5.783 1.132 7.777c1.614 2.462 2.971 1.82 4.031 7.445 1.055-5.615 2.414-4.984 4.024-7.44z" fill="red" stroke="red"/><path d="M9.186 7.783c1.265-1.988.888-4.65-.903-6.218C7.318.719 6.058.301 4.785.403a4.74 4.74 0 0 0-2.743 1.161c-1.791 1.568-2.18 4.219-.91 6.213 1.614 2.462 2.97 1.82 4.031 7.445 1.055-5.615 2.414-4.984 4.023-7.44z" fill="none" stroke="#000" stroke-opacity=".2"/></g><path d="M3.681 2.6h1.333q.52 0 .892.096.372.096.675.362.789.675.789 2.053 0 .455-.079.83-.079.376-.245.679-.165.3-.424.537-.203.183-.444.293-.241.11-.52.155-.276.045-.624.045H3.701q-.279 0-.42-.083-.141-.086-.186-.238-.041-.155-.041-.4V3.227q0-.331.148-.479.148-.148.479-.148zm.396.81v3.428h.775q.255 0 .4-.014.145-.014.3-.069.155-.055.269-.155.513-.434.513-1.495 0-.748-.227-1.12-.224-.372-.555-.472-.331-.103-.799-.103z"/></svg>