<svg xmlns="http://www.w3.org/2000/svg" width="39" height="59" viewBox="0 0 10.319 15.61"><g stroke-linejoin="round" stroke-width=".777"><path d="M9.186 7.783c1.265-1.988.888-4.65-.903-6.218C7.318.719 6.058.301 4.785.403a4.74 4.74 0 0 0-2.743 1.161C.25 3.132-.139 5.783 1.132 7.777c1.614 2.462 2.971 1.82 4.031 7.445 1.055-5.615 2.414-4.984 4.024-7.44z" fill="red" stroke="red"/><path d="M9.186 7.783c1.265-1.988.888-4.65-.903-6.218C7.318.719 6.058.301 4.785.403a4.74 4.74 0 0 0-2.743 1.161c-1.791 1.568-2.18 4.219-.91 6.213 1.614 2.462 2.97 1.82 4.031 7.445 1.055-5.615 2.414-4.984 4.023-7.44z" fill="none" stroke="#000" stroke-opacity=".2"/></g><path d="M6.923 5.173q0 .565-.069.972-.069.407-.255.737-.234.407-.606.627-.372.22-.827.22-.524 0-.941-.296-.413-.296-.624-.82-.107-.286-.158-.63-.048-.348-.048-.751 0-.52.055-.937.055-.417.172-.717.203-.496.589-.754.389-.262.927-.262.355 0 .644.117.289.114.506.338.22.22.372.548.262.568.262 1.609zm-.944-.069q0-.63-.076-1.03-.076-.403-.255-.606-.179-.207-.496-.207-.455 0-.634.458-.176.458-.176 1.412 0 .648.076 1.061.076.413.255.627.179.21.486.21.317 0 .496-.22.179-.22.251-.63.072-.41.072-1.075z"/></svg>