<svg xmlns="http://www.w3.org/2000/svg" width="39" height="59" viewBox="0 0 10.319 15.61"><g stroke-linejoin="round" stroke-width=".777"><path d="M9.186 7.783c1.265-1.988.888-4.65-.903-6.218C7.318.719 6.058.301 4.785.403a4.74 4.74 0 0 0-2.743 1.161C.25 3.132-.139 5.783 1.132 7.777c1.614 2.462 2.971 1.82 4.031 7.445 1.055-5.615 2.414-4.984 4.024-7.44z" fill="red" stroke="red"/><path d="M9.186 7.783c1.265-1.988.888-4.65-.903-6.218C7.318.719 6.058.301 4.785.403a4.74 4.74 0 0 0-2.743 1.161c-1.791 1.568-2.18 4.219-.91 6.213 1.614 2.462 2.97 1.82 4.031 7.445 1.055-5.615 2.414-4.984 4.023-7.44z" fill="none" stroke="#000" stroke-opacity=".2"/></g><path d="M4.31 4.918q.234-.279.51-.413.276-.134.617-.134.327 0 .603.124.279.121.486.348.21.224.324.531.114.307.114.641 0 .486-.224.882-.22.396-.62.62-.396.22-.899.22-.579 0-.999-.282-.42-.282-.644-.834-.22-.555-.22-1.354 0-.651.134-1.164.134-.513.386-.851.251-.338.61-.51.358-.172.816-.172.441 0 .775.172.338.172.506.427.172.255.172.489 0 .141-.107.258-.107.114-.272.114-.145 0-.269-.09-.124-.093-.183-.255-.079-.207-.251-.331-.172-.127-.4-.127-.183 0-.365.107-.179.103-.303.282-.251.365-.296 1.302zm.93 2.139q.348 0 .575-.282.227-.286.227-.748 0-.314-.107-.537-.107-.227-.293-.345-.186-.121-.41-.121-.214 0-.41.114-.193.114-.314.331-.117.214-.117.503 0 .465.241.775.241.31.606.31z"/></svg>