<svg xmlns="http://www.w3.org/2000/svg" width="39" height="59" viewBox="0 0 10.319 15.61"><g stroke-linejoin="round" stroke-width=".777"><path d="M9.186 7.783c1.265-1.988.888-4.65-.903-6.218C7.318.719 6.058.301 4.785.403a4.74 4.74 0 0 0-2.743 1.161C.25 3.132-.139 5.783 1.132 7.777c1.614 2.462 2.971 1.82 4.031 7.445 1.055-5.615 2.414-4.984 4.024-7.44z" fill="red" stroke="red"/><path d="M9.186 7.783c1.265-1.988.888-4.65-.903-6.218C7.318.719 6.058.301 4.785.403a4.74 4.74 0 0 0-2.743 1.161c-1.791 1.568-2.18 4.219-.91 6.213 1.614 2.462 2.97 1.82 4.031 7.445 1.055-5.615 2.414-4.984 4.023-7.44z" fill="none" stroke="#000" stroke-opacity=".2"/></g><path d="M5.225 7.65H3.681q-.334 0-.479-.148-.141-.152-.141-.479V3.227q0-.334.145-.479.148-.148.475-.148h1.636q.362 0 .627.045.265.045.475.172.179.107.317.272.138.162.21.362.072.196.072.417 0 .758-.758 1.109.996.317.996 1.233 0 .424-.217.765-.217.338-.586.5-.231.096-.531.138-.3.038-.699.038zm-.076-2.243H4.085v1.475h1.099q1.037 0 1.037-.748 0-.382-.269-.555-.269-.172-.803-.172zM4.085 3.368v1.306h.937q.382 0 .589-.072.21-.072.32-.276.086-.145.086-.324 0-.382-.272-.506-.272-.127-.83-.127z"/></svg>