<svg xmlns="http://www.w3.org/2000/svg" width="39" height="59" viewBox="0 0 10.319 15.61"><g stroke-linejoin="round" stroke-width=".777"><path d="M9.186 7.783c1.265-1.988.888-4.65-.903-6.218C7.318.719 6.058.301 4.785.403a4.74 4.74 0 0 0-2.743 1.161C.25 3.132-.139 5.783 1.132 7.777c1.614 2.462 2.971 1.82 4.031 7.445 1.055-5.615 2.414-4.984 4.024-7.44z" fill="red" stroke="red"/><path d="M9.186 7.783c1.265-1.988.888-4.65-.903-6.218C7.318.719 6.058.301 4.785.403a4.74 4.74 0 0 0-2.743 1.161c-1.791 1.568-2.18 4.219-.91 6.213 1.614 2.462 2.97 1.82 4.031 7.445 1.055-5.615 2.414-4.984 4.023-7.44z" fill="none" stroke="#000" stroke-opacity=".2"/></g><path d="M6.003 5.387q-.227.269-.51.407-.279.134-.62.134-.324 0-.606-.124-.279-.127-.486-.351-.203-.227-.313-.527-.11-.303-.11-.634 0-.355.124-.672.124-.32.355-.555.231-.234.548-.365.32-.131.706-.131.444 0 .792.162.348.162.586.472.238.307.365.775.127.469.127 1.061 0 .661-.134 1.168-.134.503-.393.847-.255.341-.613.51-.358.165-.813.165-.448 0-.779-.169-.331-.172-.503-.424-.172-.255-.172-.489 0-.145.107-.258.107-.114.272-.114.152 0 .272.086.121.083.183.251.076.207.251.334.176.124.396.124.196 0 .372-.1.176-.1.3-.282.248-.369.296-1.302zm-.079-1.054q0-.234-.065-.431-.062-.2-.179-.345-.114-.145-.276-.227-.158-.083-.348-.083-.327 0-.555.282-.227.279-.227.741 0 .458.227.73.227.272.575.272.214 0 .407-.11.196-.114.317-.327.124-.214.124-.503z"/></svg>