<svg xmlns="http://www.w3.org/2000/svg" width="39" height="59" viewBox="0 0 10.319 15.61"><g stroke-linejoin="round" stroke-width=".777"><path d="M9.186 7.783c1.265-1.988.888-4.65-.903-6.218C7.318.719 6.058.301 4.785.403a4.74 4.74 0 0 0-2.743 1.161C.25 3.132-.139 5.783 1.132 7.777c1.614 2.462 2.971 1.82 4.031 7.445 1.055-5.615 2.414-4.984 4.024-7.44z" fill="red" stroke="red"/><path d="M9.186 7.783c1.265-1.988.888-4.65-.903-6.218C7.318.719 6.058.301 4.785.403a4.74 4.74 0 0 0-2.743 1.161c-1.791 1.568-2.18 4.219-.91 6.213 1.614 2.462 2.97 1.82 4.031 7.445 1.055-5.615 2.414-4.984 4.023-7.44z" fill="none" stroke="#000" stroke-opacity=".2"/></g><path d="M7.166 6.134q0 .458-.238.823-.234.365-.689.572-.455.207-1.078.207-.748 0-1.233-.282-.345-.203-.562-.541-.214-.341-.214-.661 0-.186.127-.317.131-.134.331-.134.162 0 .272.103.114.103.193.307.096.241.207.403.114.162.317.269.203.103.534.103.455 0 .737-.21.286-.214.286-.531 0-.251-.155-.407-.152-.158-.396-.241-.241-.083-.648-.176-.544-.127-.913-.296-.365-.172-.582-.465-.214-.296-.214-.734 0-.417.227-.741.227-.324.658-.496.431-.176 1.013-.176.465 0 .803.117.341.114.565.307.224.189.327.4.103.21.103.41 0 .183-.131.331-.127.145-.32.145-.176 0-.269-.086-.09-.09-.196-.289-.138-.286-.331-.444-.193-.162-.62-.162-.396 0-.641.176-.241.172-.241.417 0 .152.083.262.083.11.227.189.145.079.293.124.148.045.489.131.427.1.772.22.348.121.589.293.245.172.379.438.138.262.138.644z"/></svg>