<svg xmlns="http://www.w3.org/2000/svg" width="39" height="59" viewBox="0 0 10.319 15.61"><g stroke-linejoin="round" stroke-width=".777"><path d="M9.186 7.783c1.265-1.988.888-4.65-.903-6.218C7.318.719 6.058.301 4.785.403a4.74 4.74 0 0 0-2.743 1.161C.25 3.132-.139 5.783 1.132 7.777c1.614 2.462 2.971 1.82 4.031 7.445 1.055-5.615 2.414-4.984 4.024-7.44z" fill="red" stroke="red"/><path d="M9.186 7.783c1.265-1.988.888-4.65-.903-6.218C7.318.719 6.058.301 4.785.403a4.74 4.74 0 0 0-2.743 1.161c-1.791 1.568-2.18 4.219-.91 6.213 1.614 2.462 2.97 1.82 4.031 7.445 1.055-5.615 2.414-4.984 4.023-7.44z" fill="none" stroke="#000" stroke-opacity=".2"/></g><path d="M4.474 6.889l-.81-3.218v3.486q0 .289-.131.434-.127.145-.341.145-.207 0-.338-.141-.131-.145-.131-.438V3.161q0-.331.172-.444.172-.117.465-.117h.317q.286 0 .413.052.131.052.193.186.062.134.141.438l.734 2.766.734-2.766q.079-.303.141-.438.062-.134.189-.186.131-.052.417-.052h.317q.293 0 .465.117.172.114.172.444v3.996q0 .289-.131.434-.127.145-.345.145-.203 0-.334-.145-.131-.145-.131-.434V3.671l-.81 3.218q-.079.314-.131.462-.048.145-.183.265-.134.121-.372.121-.179 0-.303-.079-.124-.076-.193-.196-.069-.121-.11-.265-.038-.148-.079-.307z"/></svg>