<svg xmlns="http://www.w3.org/2000/svg" width="39" height="59" viewBox="0 0 10.319 15.61"><g stroke-width=".777" stroke-linejoin="round"><path d="M9.186 7.783c1.266-1.988.888-4.65-.903-6.218C7.318.719 6.058.301 4.785.403a4.74 4.74 0 0 0-2.743 1.161C.25 3.132-.139 5.783 1.132 7.777c1.614 2.462 2.971 1.82 4.031 7.445 1.055-5.615 2.414-4.984 4.024-7.44z" fill="red" stroke="red"/><path d="M9.186 7.783c1.265-1.988.888-4.65-.903-6.218C7.318.719 6.058.301 4.785.403a4.74 4.74 0 0 0-2.743 1.161c-1.791 1.568-2.18 4.219-.91 6.213 1.614 2.462 2.97 1.82 4.031 7.445 1.055-5.615 2.414-4.984 4.023-7.44z" fill="none" stroke="#000" stroke-opacity=".2"/></g><path d="M6.276 3.451H4.639l-.196 1.116q.489-.262.903-.262.331 0 .617.124.289.124.506.345.217.217.341.517.124.3.124.644 0 .5-.224.91-.224.41-.648.651-.42.241-.972.241-.617 0-1.003-.227-.382-.227-.544-.52-.158-.296-.158-.517 0-.134.11-.255.114-.121.282-.121.289 0 .431.334.138.307.372.479.234.169.524.169.265 0 .465-.138.2-.138.307-.379.11-.241.11-.548 0-.331-.117-.565-.117-.234-.314-.348-.196-.117-.438-.117-.296 0-.424.072-.127.072-.369.255-.238.179-.393.179-.169 0-.3-.121-.131-.124-.131-.279 0-.017.038-.234l.289-1.65q.048-.296.179-.431.131-.134.427-.134h1.819q.537 0 .537.41 0 .179-.131.289-.131.11-.386.11z"/></svg>