<svg xmlns="http://www.w3.org/2000/svg" width="39" height="59" viewBox="0 0 10.319 15.61"><g stroke-linejoin="round" stroke-width=".777"><path d="M9.186 7.783c1.265-1.988.888-4.65-.903-6.218C7.318.719 6.058.301 4.785.403a4.74 4.74 0 0 0-2.743 1.161C.25 3.132-.139 5.783 1.132 7.777c1.614 2.462 2.971 1.82 4.031 7.445 1.055-5.615 2.414-4.984 4.024-7.44z" fill="red" stroke="red"/><path d="M9.186 7.783c1.265-1.988.888-4.65-.903-6.218C7.318.719 6.058.301 4.785.403a4.74 4.74 0 0 0-2.743 1.161c-1.791 1.568-2.18 4.219-.91 6.213 1.614 2.462 2.97 1.82 4.031 7.445 1.055-5.615 2.414-4.984 4.023-7.44z" fill="none" stroke="#000" stroke-opacity=".2"/></g><path d="M4.78 5.463l-.11-1.65q-.031-.482-.031-.692 0-.286.148-.444.152-.162.396-.162.296 0 .396.207.1.203.1.589 0 .227-.024.462l-.148 1.698q-.024.303-.103.465-.079.162-.262.162-.186 0-.258-.155-.072-.158-.103-.479zm.382 2.267q-.21 0-.369-.134-.155-.138-.155-.382 0-.214.148-.362.152-.152.369-.152.217 0 .369.152.155.148.155.362 0 .241-.155.379-.155.138-.362.138z"/></svg>