<svg xmlns="http://www.w3.org/2000/svg" width="39" height="59" viewBox="0 0 10.319 15.61"><g stroke-linejoin="round" stroke-width=".777"><path d="M9.186 7.783c1.265-1.988.888-4.65-.903-6.218C7.318.719 6.058.301 4.785.403a4.74 4.74 0 0 0-2.743 1.161C.25 3.132-.139 5.783 1.132 7.777c1.614 2.462 2.971 1.82 4.031 7.445 1.055-5.615 2.414-4.984 4.024-7.44z" fill="red" stroke="red"/><path d="M9.186 7.783c1.265-1.988.888-4.65-.903-6.218C7.318.719 6.058.301 4.785.403a4.74 4.74 0 0 0-2.743 1.161c-1.791 1.568-2.18 4.219-.91 6.213 1.614 2.462 2.97 1.82 4.031 7.445 1.055-5.615 2.414-4.984 4.023-7.44z" fill="none" stroke="#000" stroke-opacity=".2"/></g><path d="M7.569 5.597v.968q0 .193-.038.31-.038.114-.141.207-.1.093-.258.179-.458.248-.882.362-.424.114-.923.114-.582 0-1.061-.179-.479-.179-.816-.52-.338-.341-.52-.827-.179-.486-.179-1.085 0-.589.176-1.078.176-.489.517-.83.341-.341.83-.52.489-.183 1.109-.183.51 0 .903.138.393.134.637.341.245.207.369.438.124.231.124.41 0 .193-.145.331-.141.134-.341.134-.11 0-.214-.052-.1-.052-.169-.145-.189-.296-.32-.448-.131-.152-.355-.255-.22-.103-.565-.103-.355 0-.634.124-.279.121-.479.355-.196.231-.303.568-.103.338-.103.748 0 .889.407 1.368.41.479 1.14.479.355 0 .665-.093.314-.093.634-.265v-.82H5.84q-.286 0-.434-.086-.145-.086-.145-.293 0-.169.121-.279.124-.11.334-.11h1.161q.214 0 .362.038.148.038.238.169.093.131.093.393z"/></svg>