<svg xmlns="http://www.w3.org/2000/svg" width="39" height="59" viewBox="0 0 10.319 15.61"><g stroke-linejoin="round" stroke-width=".777"><path d="M9.186 7.783c1.265-1.988.888-4.65-.903-6.218C7.318.719 6.058.301 4.785.403a4.74 4.74 0 0 0-2.743 1.161C.25 3.132-.139 5.783 1.132 7.777c1.614 2.462 2.971 1.82 4.031 7.445 1.055-5.615 2.414-4.984 4.024-7.44z" fill="red" stroke="red"/><path d="M9.186 7.783c1.265-1.988.888-4.65-.903-6.218C7.318.719 6.058.301 4.785.403a4.74 4.74 0 0 0-2.743 1.161c-1.791 1.568-2.18 4.219-.91 6.213 1.614 2.462 2.97 1.82 4.031 7.445 1.055-5.615 2.414-4.984 4.023-7.44z" fill="none" stroke="#000" stroke-opacity=".2"/></g><path d="M5.981 6.854l-.816-3.028-.827 3.028q-.096.345-.155.496-.055.148-.196.269-.141.117-.376.117-.189 0-.313-.072-.121-.069-.196-.196-.076-.131-.124-.307-.048-.179-.086-.331l-.841-3.4q-.076-.296-.076-.451 0-.196.138-.331.138-.134.341-.134.279 0 .376.179.096.179.169.52l.661 2.949.741-2.759q.083-.317.148-.482.065-.165.214-.286.148-.121.403-.121.258 0 .4.127.145.124.2.272.055.148.148.489l.748 2.76.661-2.949q.048-.231.09-.362.045-.131.148-.234.107-.103.307-.103.2 0 .338.134.141.131.141.331 0 .141-.076.451l-.841 3.4q-.086.345-.145.506-.055.158-.193.279-.134.121-.382.121-.234 0-.376-.117-.141-.117-.196-.262-.055-.148-.155-.503z"/></svg>