<svg xmlns="http://www.w3.org/2000/svg" width="39" height="59" viewBox="0 0 10.319 15.61"><g stroke-linejoin="round" stroke-width=".777"><path d="M9.186 7.783c1.265-1.988.888-4.65-.903-6.218C7.318.719 6.058.301 4.785.403a4.74 4.74 0 0 0-2.743 1.161C.25 3.132-.139 5.783 1.132 7.777c1.614 2.462 2.971 1.82 4.031 7.445 1.055-5.615 2.414-4.984 4.024-7.44z" fill="red" stroke="red"/><path d="M9.186 7.783c1.265-1.988.888-4.65-.903-6.218C7.318.719 6.058.301 4.785.403a4.74 4.74 0 0 0-2.743 1.161c-1.791 1.568-2.18 4.219-.91 6.213 1.614 2.462 2.97 1.82 4.031 7.445 1.055-5.615 2.414-4.984 4.023-7.44z" fill="none" stroke="#000" stroke-opacity=".2"/></g><path d="M5.3 5.683h-.937v1.43q0 .307-.145.465-.145.158-.365.158-.231 0-.372-.155-.141-.158-.141-.462V3.227q0-.338.155-.482.155-.145.493-.145H5.3q.582 0 .896.09.31.086.534.286.227.2.345.489.117.289.117.651 0 .772-.475 1.171-.475.396-1.416.396zm-.248-2.315h-.689v1.543h.689q.362 0 .603-.076.245-.076.372-.248.127-.172.127-.451 0-.334-.196-.544-.22-.224-.906-.224z"/></svg>