<svg xmlns="http://www.w3.org/2000/svg" width="39" height="59" viewBox="0 0 10.319 15.61"><g stroke-linejoin="round" stroke-width=".777"><path d="M9.186 7.783c1.265-1.988.888-4.65-.903-6.218C7.318.719 6.058.301 4.785.403a4.74 4.74 0 0 0-2.743 1.161C.25 3.132-.139 5.783 1.132 7.777c1.614 2.462 2.971 1.82 4.031 7.445 1.055-5.615 2.414-4.984 4.024-7.44z" fill="red" stroke="red"/><path d="M9.186 7.783c1.265-1.988.888-4.65-.903-6.218C7.318.719 6.058.301 4.785.403a4.74 4.74 0 0 0-2.743 1.161c-1.791 1.568-2.18 4.219-.91 6.213 1.614 2.462 2.97 1.82 4.031 7.445 1.055-5.615 2.414-4.984 4.023-7.44z" fill="none" stroke="#000" stroke-opacity=".2"/></g><path d="M6.65 3.134V5.78q0 .345-.031.586-.028.241-.131.489-.172.417-.568.651-.396.231-.965.231-.513 0-.858-.162-.341-.162-.551-.524-.11-.193-.179-.444-.069-.251-.069-.479 0-.241.134-.369.134-.127.345-.127.203 0 .307.117.103.117.158.365.059.265.117.424.059.158.196.272.138.114.393.114.679 0 .679-.996V3.134q0-.31.134-.465.138-.155.372-.155.238 0 .376.155.141.155.141.465z"/></svg>