<svg xmlns="http://www.w3.org/2000/svg" width="39" height="59" viewBox="0 0 10.319 15.61"><g stroke-linejoin="round" stroke-width=".777"><path d="M9.186 7.783c1.265-1.988.888-4.65-.903-6.218C7.318.719 6.058.301 4.785.403a4.74 4.74 0 0 0-2.743 1.161C.25 3.132-.139 5.783 1.132 7.777c1.614 2.462 2.971 1.82 4.031 7.445 1.055-5.615 2.414-4.984 4.024-7.44z" fill="red" stroke="red"/><path d="M9.186 7.783c1.265-1.988.888-4.65-.903-6.218C7.318.719 6.058.301 4.785.403a4.74 4.74 0 0 0-2.743 1.161c-1.791 1.568-2.18 4.219-.91 6.213 1.614 2.462 2.97 1.82 4.031 7.445 1.055-5.615 2.414-4.984 4.023-7.44z" fill="none" stroke="#000" stroke-opacity=".2"/></g><path d="M5.142 2.514q.785 0 1.347.32.565.317.854.906.289.586.289 1.378 0 .586-.158 1.064-.158.479-.475.83-.317.351-.779.537-.462.186-1.058.186-.593 0-1.061-.189-.469-.193-.782-.541-.313-.348-.475-.837-.158-.489-.158-1.058 0-.582.165-1.068.169-.486.486-.827.317-.341.772-.52.455-.183 1.034-.183zm1.454 2.598q0-.555-.179-.961-.179-.407-.513-.613-.331-.21-.761-.21-.307 0-.568.117-.258.114-.448.334-.186.22-.296.565-.107.341-.107.768 0 .431.107.779.11.348.307.579.2.227.455.341.258.114.565.114.393 0 .72-.196.331-.196.524-.606.196-.41.196-1.009z"/></svg>