<svg xmlns="http://www.w3.org/2000/svg" width="39" height="59" viewBox="0 0 10.319 15.61"><g stroke-linejoin="round" stroke-width=".777"><path d="M9.186 7.783c1.265-1.988.888-4.65-.903-6.218C7.318.719 6.058.301 4.785.403a4.74 4.74 0 0 0-2.743 1.161C.25 3.132-.139 5.783 1.132 7.777c1.614 2.462 2.971 1.82 4.031 7.445 1.055-5.615 2.414-4.984 4.024-7.44z" fill="red" stroke="red"/><path d="M9.186 7.783c1.265-1.988.888-4.65-.903-6.218C7.318.719 6.058.301 4.785.403a4.74 4.74 0 0 0-2.743 1.161c-1.791 1.568-2.18 4.219-.91 6.213 1.614 2.462 2.97 1.82 4.031 7.445 1.055-5.615 2.414-4.984 4.023-7.44z" fill="none" stroke="#000" stroke-opacity=".2"/></g><path d="M5.39 2.162v.372q.369.038.63.152.265.114.462.345.155.176.238.362.086.186.086.341 0 .172-.127.3-.124.124-.303.124-.338 0-.438-.365-.114-.431-.548-.572v1.433q.427.117.679.214.255.096.455.279.214.189.327.455.117.262.117.575 0 .393-.186.737-.183.341-.541.558-.358.217-.851.258v.858q0 .203-.041.296-.038.093-.172.093-.124 0-.176-.076-.048-.076-.048-.234v-.93q-.403-.045-.706-.189-.3-.145-.503-.358-.2-.217-.296-.448-.096-.234-.096-.458 0-.165.127-.296.131-.134.324-.134.155 0 .262.072.107.072.148.203.093.282.162.434.069.148.207.272.141.124.372.189V5.421q-.462-.127-.772-.282-.31-.158-.503-.448-.193-.289-.193-.744 0-.593.376-.972.379-.379 1.092-.441v-.365q0-.289.217-.289.22 0 .22.283zm-.438 2.363V3.206q-.289.086-.451.227-.162.141-.162.427 0 .272.152.413.152.138.462.251zm.438 1.023v1.509q.348-.069.537-.279.189-.21.189-.489 0-.3-.186-.462-.183-.165-.541-.279z"/></svg>