<svg xmlns="http://www.w3.org/2000/svg" width="39" height="59" viewBox="0 0 10.319 15.61"><g stroke-linejoin="round" stroke-width=".777"><path d="M9.186 7.783c1.265-1.988.888-4.65-.903-6.218C7.318.719 6.058.301 4.785.403a4.74 4.74 0 0 0-2.743 1.161C.25 3.132-.139 5.783 1.132 7.777c1.614 2.462 2.971 1.82 4.031 7.445 1.055-5.615 2.414-4.984 4.024-7.44z" fill="red" stroke="red"/><path d="M9.186 7.783c1.265-1.988.888-4.65-.903-6.218C7.318.719 6.058.301 4.785.403a4.74 4.74 0 0 0-2.743 1.161c-1.791 1.568-2.18 4.219-.91 6.213 1.614 2.462 2.97 1.82 4.031 7.445 1.055-5.615 2.414-4.984 4.023-7.44z" fill="none" stroke="#000" stroke-opacity=".2"/></g><path d="M5.369 7.213v-.641H3.639q-.327 0-.493-.148-.162-.148-.162-.403 0-.065.024-.131.024-.069.072-.141.048-.076.1-.145.052-.069.127-.169l1.826-2.443q.179-.241.293-.348.117-.11.279-.11.524 0 .524.599V5.8h.148q.265 0 .424.072.162.072.162.317 0 .2-.131.293-.131.09-.393.09h-.21v.641q0 .265-.117.396-.117.127-.314.127-.193 0-.314-.131-.117-.134-.117-.393zM3.887 5.8h1.481V3.799z"/></svg>