<svg xmlns="http://www.w3.org/2000/svg" width="39" height="59" viewBox="0 0 10.319 15.61"><g stroke-linejoin="round" stroke-width=".777"><path d="M9.186 7.783c1.265-1.988.888-4.65-.903-6.218C7.318.719 6.058.301 4.785.403a4.74 4.74 0 0 0-2.743 1.161C.25 3.132-.139 5.783 1.132 7.777c1.614 2.462 2.971 1.82 4.031 7.445 1.055-5.615 2.414-4.984 4.024-7.44z" fill="red" stroke="red"/><path d="M9.186 7.783c1.265-1.988.888-4.65-.903-6.218C7.318.719 6.058.301 4.785.403a4.74 4.74 0 0 0-2.743 1.161c-1.791 1.568-2.18 4.219-.91 6.213 1.614 2.462 2.97 1.82 4.031 7.445 1.055-5.615 2.414-4.984 4.023-7.44z" fill="none" stroke="#000" stroke-opacity=".2"/></g><path d="M3.437 3.954q0-.327.21-.661.21-.338.613-.558.403-.22.941-.22.5 0 .882.186.382.183.589.5.21.317.21.689 0 .293-.121.513-.117.22-.282.382-.162.158-.586.537-.117.107-.189.189-.069.079-.103.148-.034.065-.055.134-.017.065-.055.234-.065.358-.41.358-.179 0-.303-.117-.121-.117-.121-.348 0-.289.09-.5.09-.214.238-.372.148-.162.4-.382.22-.193.317-.289.1-.1.165-.22.069-.121.069-.262 0-.276-.207-.465-.203-.189-.527-.189-.379 0-.558.193-.179.189-.303.562-.117.389-.444.389-.193 0-.327-.134-.131-.138-.131-.296zm1.681 3.776q-.21 0-.369-.134-.155-.138-.155-.382 0-.217.152-.365.152-.148.372-.148.217 0 .365.148.148.148.148.365 0 .241-.155.379-.155.138-.358.138z"/></svg>