<svg xmlns="http://www.w3.org/2000/svg" width="39" height="59" viewBox="0 0 10.319 15.61" xmlns:v="https://vecta.io/nano"><g stroke-linejoin="round" stroke-width=".777"><path d="M9.186 7.783c1.265-1.988.888-4.65-.903-6.218C7.318.719 6.058.301 4.785.403a4.74 4.74 0 0 0-2.743 1.161C.25 3.132-.139 5.783 1.132 7.777c1.614 2.462 2.971 1.82 4.031 7.445 1.055-5.615 2.414-4.984 4.024-7.44z" fill="red" stroke="red"/><path d="M9.186 7.783c1.265-1.988.888-4.65-.903-6.218C7.318.719 6.058.301 4.785.403a4.74 4.74 0 0 0-2.743 1.161c-1.791 1.568-2.18 4.219-.91 6.213 1.614 2.462 2.97 1.82 4.031 7.445 1.055-5.615 2.414-4.984 4.023-7.44z" fill="none" stroke="#000" stroke-opacity=".2"/></g><path d="M5.835 3.864l.078-.344h.819L6.26 5.743q-.043.211-.043.279 0 .071.034.112.037.04.087.04.167 0 .431-.217.267-.22.462-.595.198-.378.198-.825 0-.372-.143-.701-.14-.329-.406-.571-.267-.242-.66-.378-.391-.136-.887-.136-.505 0-.927.133-.422.13-.741.378-.319.245-.533.608-.189.316-.288.701-.099.384-.099.784 0 .533.211.977.214.44.617.738.406.301.98.425.574.127 1.296.053.574-.068.97-.26.4-.192.676-.54h.66q-.161.332-.422.592-.257.26-.605.437-.347.18-.778.273-.431.093-.939.093-.763 0-1.374-.202-.611-.198-1.029-.577-.415-.375-.629-.896-.214-.524-.214-1.157 0-.66.22-1.234.22-.574.633-.995.415-.425 1.011-.664.598-.239 1.318-.239.589 0 1.079.174.493.171.843.493.35.322.533.766.186.44.186.974 0 .415-.149.815-.149.397-.428.716-.276.316-.651.502-.375.183-.809.183-.251 0-.391-.084-.14-.087-.186-.273-.27.267-.62.338-.35.068-.679-.065-.329-.136-.533-.456-.202-.319-.202-.788 0-.487.208-.958.211-.471.595-.772.388-.301.874-.301.558 0 .819.419zM4.139 5.47q0 .372.155.571.155.198.406.198.291 0 .512-.233.223-.233.338-.586.115-.357.115-.688 0-.164-.04-.295-.037-.133-.115-.233-.074-.099-.183-.149-.105-.053-.242-.053-.273 0-.493.214-.217.211-.335.552-.118.338-.118.701z"/></svg>