<svg xmlns="http://www.w3.org/2000/svg" width="39" height="59" viewBox="0 0 10.319 15.61"><g stroke-linejoin="round" stroke-width=".777"><path d="M9.186 7.783c1.265-1.988.888-4.65-.903-6.218C7.318.719 6.058.301 4.785.403a4.74 4.74 0 0 0-2.743 1.161C.25 3.132-.139 5.783 1.132 7.777c1.614 2.462 2.971 1.82 4.031 7.445 1.055-5.615 2.414-4.984 4.024-7.44z" fill="red" stroke="red"/><path d="M9.186 7.783c1.265-1.988.888-4.65-.903-6.218C7.318.719 6.058.301 4.785.403a4.74 4.74 0 0 0-2.743 1.161c-1.791 1.568-2.18 4.219-.91 6.213 1.614 2.462 2.97 1.82 4.031 7.445 1.055-5.615 2.414-4.984 4.023-7.44z" fill="none" stroke="#000" stroke-opacity=".2"/></g><path d="M4.519 5.49H4.16v1.623q0 .32-.141.472-.141.152-.369.152-.245 0-.379-.158-.134-.158-.134-.465V3.227q0-.331.148-.479.148-.148.479-.148h1.664q.345 0 .589.031.245.028.441.117.238.1.42.286.183.186.276.434.096.245.096.52 0 .565-.32.903-.317.338-.965.479.272.145.52.427.248.282.441.603.196.317.303.575.11.255.11.351 0 .1-.065.2-.062.096-.172.152-.11.059-.255.059-.172 0-.289-.083-.117-.079-.203-.203-.083-.124-.227-.365l-.41-.682q-.22-.376-.396-.572-.172-.196-.351-.269-.179-.072-.451-.072zm.586-2.122H4.16v1.388h.916q.369 0 .62-.062.251-.065.382-.217.134-.155.134-.424 0-.21-.107-.369-.107-.162-.296-.241-.179-.076-.706-.076z"/></svg>