<svg xmlns="http://www.w3.org/2000/svg" width="39" height="59" viewBox="0 0 10.319 15.61"><g stroke-linejoin="round" stroke-width=".777"><path d="M9.186 7.783c1.265-1.988.888-4.65-.903-6.218C7.318.719 6.058.301 4.785.403a4.74 4.74 0 0 0-2.743 1.161C.25 3.132-.139 5.783 1.132 7.777c1.614 2.462 2.971 1.82 4.031 7.445 1.055-5.615 2.414-4.984 4.024-7.44z" fill="red" stroke="red"/><path d="M9.186 7.783c1.265-1.988.888-4.65-.903-6.218C7.318.719 6.058.301 4.785.403a4.74 4.74 0 0 0-2.743 1.161c-1.791 1.568-2.18 4.219-.91 6.213 1.614 2.462 2.97 1.82 4.031 7.445 1.055-5.615 2.414-4.984 4.023-7.44z" fill="none" stroke="#000" stroke-opacity=".2"/></g><path d="M4.035 3.185l1.144 3.387 1.147-3.411q.09-.269.134-.372.045-.107.148-.189.103-.086.282-.086.131 0 .241.065.114.065.176.176.065.107.065.217 0 .076-.021.165-.021.086-.052.172-.031.083-.062.172l-1.223 3.3q-.065.189-.131.362-.065.169-.152.3-.086.127-.231.21-.141.083-.348.083-.207 0-.351-.083-.141-.079-.231-.21-.086-.134-.152-.303-.065-.169-.131-.358L3.087 3.509q-.031-.09-.065-.176-.031-.086-.055-.186-.021-.1-.021-.169 0-.176.141-.32.141-.145.355-.145.262 0 .369.162.11.158.224.51z"/></svg>