<svg xmlns="http://www.w3.org/2000/svg" width="39" height="59" viewBox="0 0 10.319 15.61"><g stroke-linejoin="round" stroke-width=".777"><path d="M9.186 7.783c1.265-1.988.888-4.65-.903-6.218C7.318.719 6.058.301 4.785.403a4.74 4.74 0 0 0-2.743 1.161C.25 3.132-.139 5.783 1.132 7.777c1.614 2.462 2.971 1.82 4.031 7.445 1.055-5.615 2.414-4.984 4.024-7.44z" fill="red" stroke="red"/><path d="M9.186 7.783c1.265-1.988.888-4.65-.903-6.218C7.318.719 6.058.301 4.785.403a4.74 4.74 0 0 0-2.743 1.161c-1.791 1.568-2.18 4.219-.91 6.213 1.614 2.462 2.97 1.82 4.031 7.445 1.055-5.615 2.414-4.984 4.023-7.44z" fill="none" stroke="#000" stroke-opacity=".2"/></g><path d="M3.036 5.563V3.134q0-.31.138-.465.141-.155.369-.155.238 0 .376.155.141.155.141.465v2.484q0 .424.093.71.096.282.338.441.241.155.675.155.599 0 .847-.317.248-.32.248-.968V3.134q0-.313.138-.465.138-.155.369-.155.231 0 .372.155.145.152.145.465v2.429q0 .593-.117.989-.114.396-.434.696-.276.255-.641.372-.365.117-.854.117-.582 0-1.003-.124-.42-.127-.686-.389-.265-.265-.389-.675-.124-.413-.124-.985z"/></svg>