<svg xmlns="http://www.w3.org/2000/svg" width="39" height="59" viewBox="0 0 10.319 15.61"><g stroke-linejoin="round" stroke-width=".777"><path d="M9.186 7.783c1.265-1.988.888-4.65-.903-6.218C7.318.719 6.058.301 4.785.403a4.74 4.74 0 0 0-2.743 1.161C.25 3.132-.139 5.783 1.132 7.777c1.614 2.462 2.971 1.82 4.031 7.445 1.055-5.615 2.414-4.984 4.024-7.44z" fill="red" stroke="red"/><path d="M9.186 7.783c1.265-1.988.888-4.65-.903-6.218C7.318.719 6.058.301 4.785.403a4.74 4.74 0 0 0-2.743 1.161c-1.791 1.568-2.18 4.219-.91 6.213 1.614 2.462 2.97 1.82 4.031 7.445 1.055-5.615 2.414-4.984 4.023-7.44z" fill="none" stroke="#000" stroke-opacity=".2"/></g><path d="M3.537 3.881q0-.345.186-.648.189-.307.551-.489.365-.183.851-.183.41 0 .72.107.31.107.517.296.207.186.307.424.1.234.1.5 0 .338-.176.603-.172.265-.517.434.293.114.486.3.193.183.289.427.1.241.1.537 0 .434-.21.789-.21.351-.617.551-.407.2-.958.2-.572 0-.978-.2-.407-.2-.613-.548-.207-.351-.207-.785 0-.927.875-1.271-.706-.331-.706-1.044zm2.47 2.281q0-.269-.11-.469-.11-.2-.31-.307-.2-.107-.448-.107-.351 0-.589.234-.238.234-.238.655 0 .269.11.475.114.203.307.317.193.11.431.11.241 0 .434-.114.193-.114.303-.32.11-.207.11-.475zM5.146 3.22q-.324 0-.524.203-.196.2-.196.517 0 .293.203.489.203.193.524.193.162 0 .293-.052.134-.052.227-.141.096-.093.148-.217.052-.127.052-.279 0-.203-.093-.365-.09-.162-.255-.255-.165-.093-.379-.093z"/></svg>