<svg xmlns="http://www.w3.org/2000/svg" width="39" height="59" viewBox="0 0 10.319 15.61"><g stroke-linejoin="round" stroke-width=".777"><path d="M9.186 7.783c1.265-1.988.888-4.65-.903-6.218C7.318.719 6.058.301 4.785.403a4.74 4.74 0 0 0-2.743 1.161C.25 3.132-.139 5.783 1.132 7.777c1.614 2.462 2.971 1.82 4.031 7.445 1.055-5.615 2.414-4.984 4.024-7.44z" fill="red" stroke="red"/><path d="M9.186 7.783c1.265-1.988.888-4.65-.903-6.218C7.318.719 6.058.301 4.785.403a4.74 4.74 0 0 0-2.743 1.161c-1.791 1.568-2.18 4.219-.91 6.213 1.614 2.462 2.97 1.82 4.031 7.445 1.055-5.615 2.414-4.984 4.023-7.44z" fill="none" stroke="#000" stroke-opacity=".2"/></g><path d="M7.411 6.055q0 .241-.121.524-.117.279-.372.551-.255.269-.651.438-.396.169-.923.169-.4 0-.727-.076-.327-.076-.596-.234-.265-.162-.489-.424-.2-.238-.341-.531-.141-.296-.214-.63-.069-.334-.069-.71 0-.61.176-1.092.179-.482.51-.823.331-.345.775-.524.444-.179.947-.179.613 0 1.092.245.479.245.734.606.255.358.255.679 0 .176-.124.31-.124.134-.3.134-.196 0-.296-.093-.096-.093-.217-.32-.2-.376-.472-.562-.269-.186-.665-.186-.63 0-1.006.479-.372.479-.372 1.361 0 .589.165.982.165.389.469.582.303.193.71.193.441 0 .744-.217.307-.22.462-.644.065-.2.162-.324.096-.127.31-.127.183 0 .314.127.131.127.131.317z"/></svg>