<svg xmlns="http://www.w3.org/2000/svg" width="39" height="59" viewBox="0 0 10.319 15.61"><g stroke-linejoin="round" stroke-width=".777"><path d="M9.186 7.783c1.265-1.988.888-4.65-.903-6.218C7.318.719 6.058.301 4.785.403a4.74 4.74 0 0 0-2.743 1.161C.25 3.132-.139 5.783 1.132 7.777c1.614 2.462 2.971 1.82 4.031 7.445 1.055-5.615 2.414-4.984 4.024-7.44z" fill="red" stroke="red"/><path d="M9.186 7.783c1.265-1.988.888-4.65-.903-6.218C7.318.719 6.058.301 4.785.403a4.74 4.74 0 0 0-2.743 1.161c-1.791 1.568-2.18 4.219-.91 6.213 1.614 2.462 2.97 1.82 4.031 7.445 1.055-5.615 2.414-4.984 4.023-7.44z" fill="none" stroke="#000" stroke-opacity=".2"/></g><path d="M3.323 6.472l2.594-3.104H3.688q-.234 0-.355-.103-.117-.103-.117-.272 0-.176.117-.283.121-.11.355-.11h2.873q.558 0 .558.52 0 .248-.093.396-.093.148-.376.479L4.226 6.882h2.673q.238 0 .355.1.117.096.117.272 0 .183-.117.289-.117.107-.355.107h-3.28q-.334 0-.503-.148-.169-.152-.169-.403 0-.086.028-.158.028-.072.072-.134.048-.065.131-.162.083-.1.145-.172z"/></svg>