<svg xmlns="http://www.w3.org/2000/svg" width="39" height="59" viewBox="0 0 10.319 15.61"><g stroke-linejoin="round" stroke-width=".777"><path d="M9.186 7.783c1.265-1.988.888-4.65-.903-6.218C7.318.719 6.058.301 4.785.403a4.74 4.74 0 0 0-2.743 1.161C.25 3.132-.139 5.783 1.132 7.777c1.614 2.462 2.971 1.82 4.031 7.445 1.055-5.615 2.414-4.984 4.024-7.44z" fill="red" stroke="red"/><path d="M9.186 7.783c1.265-1.988.888-4.65-.903-6.218C7.318.719 6.058.301 4.785.403a4.74 4.74 0 0 0-2.743 1.161c-1.791 1.568-2.18 4.219-.91 6.213 1.614 2.462 2.97 1.82 4.031 7.445 1.055-5.615 2.414-4.984 4.023-7.44z" fill="none" stroke="#000" stroke-opacity=".2"/></g><path d="M6.438 3.389H4.422v1.292h1.685q.234 0 .348.107.117.103.117.279 0 .176-.117.279-.117.103-.348.103H4.422v1.664q0 .317-.145.472-.141.152-.365.152-.227 0-.372-.155-.141-.155-.141-.469V3.227q0-.22.065-.358.065-.141.203-.203.141-.065.358-.065h2.412q.245 0 .362.11.121.107.121.283 0 .179-.121.289-.117.107-.362.107z"/></svg>