<svg xmlns="http://www.w3.org/2000/svg" width="39" height="59" viewBox="0 0 10.319 15.61"><g stroke-linejoin="round" stroke-width=".777"><path d="M9.186 7.783c1.265-1.988.888-4.65-.903-6.218C7.318.719 6.058.301 4.785.403a4.74 4.74 0 0 0-2.743 1.161C.25 3.132-.139 5.783 1.132 7.777c1.614 2.462 2.971 1.82 4.031 7.445 1.055-5.615 2.414-4.984 4.024-7.44z" fill="red" stroke="red"/><path d="M9.186 7.783c1.265-1.988.888-4.65-.903-6.218C7.318.719 6.058.301 4.785.403a4.74 4.74 0 0 0-2.743 1.161c-1.791 1.568-2.18 4.219-.91 6.213 1.614 2.462 2.97 1.82 4.031 7.445 1.055-5.615 2.414-4.984 4.023-7.44z" fill="none" stroke="#000" stroke-opacity=".2"/></g><path d="M3.411 6.668l1.13-1.65-.951-1.468q-.134-.214-.203-.365-.065-.155-.065-.296 0-.145.127-.258.131-.117.317-.117.214 0 .331.127.121.124.331.465l.758 1.226.81-1.226q.1-.155.169-.265.072-.11.138-.183.065-.072.145-.107.083-.038.189-.038.193 0 .314.117.124.114.124.272 0 .231-.265.627l-.996 1.488 1.071 1.65q.145.217.21.362.065.141.065.269 0 .121-.059.22-.059.1-.165.158-.107.059-.241.059-.145 0-.245-.062-.1-.059-.162-.148-.062-.09-.231-.348L5.168 5.78l-.944 1.44q-.11.172-.158.241-.045.069-.11.134-.065.065-.155.103-.09.038-.21.038-.186 0-.31-.114-.121-.114-.121-.331 0-.255.251-.624z"/></svg>