<svg xmlns="http://www.w3.org/2000/svg" width="39" height="59" viewBox="0 0 10.319 15.61"><g stroke-linejoin="round" stroke-width=".777"><path d="M9.186 7.783c1.265-1.988.888-4.65-.903-6.218C7.318.719 6.058.301 4.785.403a4.74 4.74 0 0 0-2.743 1.161C.25 3.132-.139 5.783 1.132 7.777c1.614 2.462 2.971 1.82 4.031 7.445 1.055-5.615 2.414-4.984 4.024-7.44z" fill="red" stroke="red"/><path d="M9.186 7.783c1.265-1.988.888-4.65-.903-6.218C7.318.719 6.058.301 4.785.403a4.74 4.74 0 0 0-2.743 1.161c-1.791 1.568-2.18 4.219-.91 6.213 1.614 2.462 2.97 1.82 4.031 7.445 1.055-5.615 2.414-4.984 4.023-7.44z" fill="none" stroke="#000" stroke-opacity=".2"/></g><path d="M6.844 7.023q.224.152.489.296.265.141.351.227.086.083.086.238 0 .11-.103.22-.1.11-.245.11-.117 0-.286-.076-.165-.076-.393-.22-.224-.145-.493-.338-.5.255-1.226.255-.589 0-1.058-.186-.465-.189-.782-.541-.317-.355-.479-.841-.158-.486-.158-1.058 0-.582.165-1.068.169-.486.486-.827.317-.341.772-.52.455-.183 1.034-.183.785 0 1.347.32.565.317.854.906.289.586.289 1.378 0 1.202-.651 1.905zm-.803-.558q.214-.245.314-.579.103-.334.103-.775 0-.555-.179-.961-.179-.407-.513-.613-.331-.21-.761-.21-.307 0-.568.117-.258.114-.448.334-.186.22-.296.565-.107.341-.107.768 0 .872.407 1.344.407.469 1.027.469.255 0 .524-.107-.162-.121-.407-.241-.241-.121-.331-.186-.09-.065-.09-.186 0-.103.086-.183.086-.079.189-.079.314 0 1.051.524z"/></svg>