<svg xmlns="http://www.w3.org/2000/svg" width="39" height="59" viewBox="0 0 10.319 15.61"><g stroke-linejoin="round" stroke-width=".777"><path d="M9.186 7.783c1.265-1.988.888-4.65-.903-6.218C7.318.719 6.058.301 4.785.403a4.74 4.74 0 0 0-2.743 1.161C.25 3.132-.139 5.783 1.132 7.777c1.614 2.462 2.971 1.82 4.031 7.445 1.055-5.615 2.414-4.984 4.024-7.44z" fill="red" stroke="red"/><path d="M9.186 7.783c1.265-1.988.888-4.65-.903-6.218C7.318.719 6.058.301 4.785.403a4.74 4.74 0 0 0-2.743 1.161c-1.791 1.568-2.18 4.219-.91 6.213 1.614 2.462 2.97 1.82 4.031 7.445 1.055-5.615 2.414-4.984 4.023-7.44z" fill="none" stroke="#000" stroke-opacity=".2"/></g><path d="M4.636 7.113V5.511L3.402 3.599q-.162-.258-.231-.403-.065-.145-.065-.251 0-.176.134-.303.138-.127.338-.127.21 0 .317.121.11.117.327.472l.944 1.533.954-1.533q.086-.141.145-.238.059-.096.127-.179.072-.086.158-.131.086-.045.21-.045.193 0 .32.127.131.124.131.289 0 .134-.065.269-.065.134-.224.372l-1.264 1.94v1.602q0 .314-.145.469-.145.155-.369.155-.227 0-.369-.152-.141-.155-.141-.472z"/></svg>