<svg xmlns="http://www.w3.org/2000/svg" viewBox="0 0 900 900"><g fill="none"><path d="M108.969 403.827s.176 3.344-1.29 3.31c-1.447-.033-30.492-84.916-66.74-80.956 0 0 31.392-12.983 68.03 77.646zM115.201 398.49s-.97 3.206-2.33 2.678c-1.36-.526.194-90.232-35.225-98.837 0 0 33.936-1.526 37.555 96.158zM163.732 473.226s2.889 1.695 2.059 2.895c-.832 1.183-87.65-21.417-104.354 11 0 0 6.498-33.353 102.295-13.895zM158.772 491.253s3.277.706 2.864 2.101c-.411 1.395-89.94 7.292-95.573 43.311 0 0-4.343-33.688 92.71-45.412z" stroke-width=".30369179999999996" stroke="#000" fill="#FFF"/><path d="M151.337 481.507s3.14 1.165 2.528 2.49-90.044-5.898-100.867 28.903c0 0 .618-33.971 98.34-31.393zM132.434 449.354s2.313 2.437 1.183 3.355-78.36-44.735-103.343-18.169c0 0 15.432-30.275 102.16 14.814z" stroke-width=".30369179999999996" stroke="#000" fill="#FFF"/><path d="M119.121 456.752s2.56 2.154 1.554 3.196c-1.024 1.042-82.933-35.574-104.738-6.356 0 0 11.9-31.823 103.184 3.16z" stroke-width=".30369179999999996" stroke="#000" fill="#FFF"/><path d="M114.53 463.956s2.825 1.766 1.96 2.949c-.865 1.165-86.993-23.943-104.614 7.963 0 0 7.45-33.141 102.654-10.912zM133.476 465.033s1.977 2.701.741 3.478c-1.236.76-71.985-54.413-100.165-31.27 0 0 19.193-28.045 99.424 27.792zM98.551 413.918s1.06 3.178-.353 3.53-51.91-73.803-85.81-60.384c0 0 26.838-20.835 86.163 56.854zM99.787 426.24s1.713 2.876.406 3.524c-1.306.65-66.6-60.872-96.81-40.458 0 0 21.717-26.131 96.404 36.934z" stroke-width=".30369179999999996" stroke="#000" fill="#FFF"/><path d="M99.575 433.958s1.978 2.701.742 3.478c-1.236.76-71.985-54.414-100.165-31.275 0 0 19.192-28.04 99.423 27.797z" stroke-width=".30369179999999996" stroke="#000" fill="#FFF"/><path d="M95.673 436.977c.883 10.682 2.631 22.282 5.703 27.791 0 0-6.356 21.894 9.182 45.2 0 0-.707 12.713 2.118 18.363 0 0 7.063 14.832 15.538 16.244 6.85 1.148 22.26 6.569 39.67 9.04 0 0 30.25 24.86 24.6 47.461 0 0-.707 28.957-7.063 31.782 0 0 20.482-19.776 3.531 9.887l-7.768 33.194s45.2-38.137 17.656-5.65l-17.656 45.907s34.606-32.488 21.894-17.656l-5.65 15.537s76.275-48.025 21.894 4.238c0 0 14.125-6.356 21.894-1.413 0 0 12.006-2.118 10.593.707 0 0-36.725 18.362-43.081 50.85 0 0 14.831-17.656 9.181 1.413l.706 20.481s7.063-38.138 6.357 28.25c0 0 33.9-31.78 13.418 4.945v29.662s26.838-28.956 15.538-6.356c0 0 17.657-15.538 10.594 11.3 0 0-1.412 18.363 6.356-1.412 0 0 28.25-54.03 17.657-7.77 0 0-1.413 33.901 7.062 7.77 0 0 .707 18.362 16.95 31.075 0 0-2.118-89.695 20.482-26.132l7.063 28.957s4.944-16.244 4.237-25.425l14.125 14.125s26.838-40.257 21.188-16.95c0 0-13.419 28.25-10.594 36.725 0 0 29.663-61.444 31.782-64.27 0 0-3.531 74.864 15.538 11.3 0 0 9.887 21.189 4.943 28.957 0 0 14.126-14.125 12.713-19.775 0 0 8.122-14.478 13.066 9.535 0 0 3.178 16.597 6.003 10.947 0 0 7.063 42.375 9.181 2.118 0 0 2.825-24.012-9.887-44.494 0 0 1.412-5.65-3.531-12.713 0 0 24.012 38.138 11.3-12.712 0 0 19.777 14.125 21.895 14.125 0 0-24.014-40.963-8.476-32.488 0 0-9.182-18.363 22.602 2.825 0 0-28.252-28.25 2.825-11.3 0 0 14.123 11.3.706-6.356 0 0-25.427-28.25 13.417 3.531 0 0 20.482 28.957 21.894 33.9 0 0-17.656-51.556-25.425-56.5 0 0 14.831-64.27 87.576-36.726 0 0 12.006 30.37 19.775-2.119 0 0 22.6-11.3 42.376 37.432 0 0 7.062-24.013 5.65-28.956 0 0 12.006 2.118 10.594 0 0 0 23.306 7.768 25.425 6.356 0 0 12.006 12.006 12.712 5.65 0 0 16.244 4.944 12.713-1.413 0 0 15.538 27.545 16.244 33.9l4.238-24.718 3.53 4.944s2.826-13.42 1.413-15.538 35.313 12.006 43.788 48.732l3.532 14.831s10.594-26.131 7.769-33.194c0 0 9.181 1.413 9.887 9.181 0 0 7.063-40.963-1.412-51.556 0 0 7.769-1.413 9.887 4.943v-12.712s12.713 1.412 12.713-2.825c0 0 7.769-7.063 11.3 1.412 0 0-21.894-62.15 10.594-28.25 0 0 12.713 19.069 6.356-14.125s-13.419-36.02-4.943-36.726c0 0 1.412-6.356-2.12-9.181s2.12 0 2.12 0 8.475 7.062-.707-31.782c0 0 11.3 2.825-9.887-48.732 0 0 4.943-4.237-2.12-19.069 0 0 14.126 7.77 19.07 4.944 0 0-.706-2.825-6.356-9.887 0 0-38.138-96.758-2.12-57.914 0 0 20.924 23.925 9.624-16.332 0 0-16.086-42.391-14.708-49.976L95.673 436.977z" stroke="#000" fill="#FFF" stroke-width="1.76565"/><path d="M854.107 396.694c1.094.32 4.996 2.304 7.204 5.217 0 0 12.006 19.07 2.825-13.419 0 0-16.244-50.85-.707-31.075 0 0 10.594 12.713 4.944-11.3-6.815-29.005-11.3-40.257-11.3-40.257s20.481 8.475-26.838-61.444l15.538 6.356s-34.607-69.92-72.745-79.101l-14.125-10.594s67.8-67.095 45.2-132.07c0 0-12.006-9.182-28.956 7.062 0 0-11.3 8.475-21.894 5.65 0 0-54.382 2.12-57.913 2.12S630.364-21.845 514.538 9.23c0 0-9.182 3.532-16.949 1.413 0 0-32.49-28.25-118.653 12.006 0 0-17.657 3.532-20.482 3.532s-7.768 0-21.894 11.3-14.831 12.712-18.362 15.537c0 0-28.957 19.776-37.432 21.188 0 0-20.481 11.3-28.25 28.957l-6.357 2.119s-2.825 12.712-3.531 14.831c0 0-8.475 6.356-9.888 16.244 0 0-15.537 10.594-14.831 18.363 0 0-2.825 9.181-4.238 17.656 0 0-12.712 8.475-11.3 13.42 0 0-13.419 24.718-11.3 36.725 0 0-11.3-.707-16.244 3.53 0 0-1.412 8.476-4.237 9.182 0 0-4.944 2.119-.707 9.182 0 0-2.825 4.943-3.53 7.768 0 0 1.412 4.944-6.357 14.832 0 0-11.3 33.194-7.769 42.375 0 0 .706 8.475-4.238 11.3 0 0-6.356-.706 8.476 20.482 0 0 1.412 2.119-4.238 6.356 0 0-30.37 6.357-34.607 35.313 0 0-24.013 26.132-24.013 35.313 0 4.07.477 9.626 1.713 17.763 0 0-1.006 14.725 47.726 16.138s711.06-55.362 711.06-55.362z" stroke="#000" fill="#cc7226" stroke-width="1.76565"/><path d="M120.798 436.165c-44.14-69.567-18.715 30.016-18.715 30.016 15.537 60.738 244.365-5.65 244.365-5.65s298.041-53.676 317.816-60.739 187.865 4.238 187.865 4.238l-9.887-29.663c-114.414-81.926-148.315-40.963-172.328-48.025s-19.775 9.887-25.425 11.3-74.863-42.376-86.163-40.963-56.042-40.524-29.663 15.537c28.25 60.032-103.114 69.214-132.777 49.438s12.713 32.488 12.713 32.488c32.488 35.313-28.25 5.65-28.25 5.65-60.739-22.6-103.114 22.6-108.764 24.013s-14.126 7.063-15.538-4.237-14.673-40.789-70.626 5.65c-35.313 29.31-59.679-9.535-59.679-9.535l-4.944 20.482z" fill="#cc7226"/><path d="M560.639 299.761c-11.3 1.413-56.095-40.502-29.663 15.538 29.31 62.15-103.114 69.214-132.777 49.438-29.664-19.775 12.713 32.488 12.713 32.488 32.488 35.32-28.252 5.65-28.252 5.65-60.739-22.6-103.114 22.6-108.764 24.013s-14.125 7.07-15.538-4.238c-1.412-11.3-14.441-40.493-70.626 5.65-37.495 30.624-61.319-7.254-61.319-7.254l-5.65 17.855c-44.141-70.28-17.533 32.683-17.533 32.683 15.556 60.738 245.531-7.963 245.531-7.963s298.041-53.683 317.816-60.746 186.329 4.109 186.329 4.109l-9.764-30.562c-114.414-81.926-146.902-39.935-170.915-46.998s-19.775 9.888-25.425 11.3-74.863-42.375-86.163-40.963z" fill="#e87f3a"/><path d="M562.952 302.843c-11.3 1.412-54.983-41.015-29.663 15.537 28.603 63.918-103.116 69.215-132.779 49.44s12.713 32.488 12.713 32.488c32.488 35.31-28.25 5.65-28.25 5.65-60.739-22.6-103.116 22.6-108.766 24.013s-14.125 7.059-15.538-4.238c-1.412-11.3-14.21-40.198-70.625 5.65-39.68 31.937-62.96-4.975-62.96-4.975l-6.356 15.213c-42.023-68.857-16.332 35.348-16.332 35.348 15.537 60.738 246.678-10.276 246.678-10.276s298.041-53.672 317.816-60.735 184.775 3.98 184.775 3.98l-9.623-31.46c-114.413-81.926-145.489-38.91-169.502-45.973s-19.775 9.888-25.425 11.302c-5.65 1.413-74.863-42.377-86.163-40.964z" fill="#ea8c4d"/><path d="M565.265 305.925c-11.3 1.413-54.965-41.02-29.663 15.538 29.663 66.31-104.06 68.587-132.78 49.438-29.663-19.775 12.712 32.488 12.712 32.488 32.488 35.318-28.25 5.65-28.25 5.65-60.738-22.6-103.114 22.606-108.764 24.018s-14.125 7.063-15.538-4.243c-1.412-11.3-13.978-39.9-70.627 5.656-41.862 33.247-64.6-2.702-64.6-2.702l-7.062 12.59c-38.492-64.982-15.15 37.996-15.15 37.996 15.538 60.738 247.844-12.571 247.844-12.571s298.041-53.681 317.816-60.744 183.24 3.853 183.24 3.853l-9.5-32.36c-114.414-81.927-144.077-37.881-168.09-44.944s-19.775 9.888-25.425 11.3-74.863-42.375-86.163-40.963z" fill="#ec9961"/><path d="M567.578 309.008c-11.3 1.413-54.082-41.411-29.663 15.538 29.663 69.213-103.12 69.213-132.782 49.438s12.712 32.488 12.712 32.488c32.488 35.307-28.25 5.65-28.25 5.65-60.738-22.6-103.114 22.595-108.764 24.007s-14.125 7.063-15.537-4.237c-1.413-11.295-13.746-39.6-70.626 5.65-44.046 34.571-66.224-.406-66.224-.406l-7.77 9.94c-34.959-61.44-13.965 40.68-13.965 40.68 15.537 60.74 248.991-14.901 248.991-14.901s298.041-53.67 317.816-60.733 181.703 3.724 181.703 3.724l-9.376-33.26C731.43 300.66 703.18 345.734 679.166 338.671s-19.775 9.888-25.425 11.3-74.863-42.375-86.163-40.963z" fill="#eea575"/><path d="M569.89 312.09c-11.3 1.412-57.153-39.994-29.662 15.537 33.9 68.507-103.121 69.213-132.784 49.438s12.713 32.488 12.713 32.488c32.488 35.316-28.25 5.65-28.25 5.65-60.739-22.6-103.114 22.604-108.764 24.016s-14.126 7.063-15.538-4.237c-1.413-11.304-13.514-39.312-70.626 5.65-46.228 35.895-67.864 1.854-67.864 1.854l-8.475 7.327c-31.782-58.623-12.784 43.33-12.784 43.33 15.538 60.737 250.157-17.198 250.157-17.198s298.041-53.68 317.816-60.742 180.15 3.595 180.15 3.595l-9.235-34.157c-114.414-81.926-141.252-35.826-165.265-42.889s-19.775 9.888-25.425 11.3-74.863-42.375-86.163-40.963z" fill="#f1b288"/><path d="M572.204 315.17c-11.3 1.413-57.825-39.656-29.663 15.538 36.019 70.628-103.123 69.215-132.786 49.44s12.713 32.488 12.713 32.488c32.488 35.306-28.25 5.65-28.25 5.65-60.739-22.6-103.114 22.593-108.764 24.006s-14.125 7.062-15.538-4.238c-1.412-11.293-13.283-39.007-70.626 5.65-48.412 37.22-69.504 4.15-69.504 4.15l-9.182 4.678c-28.25-53.315-11.582 46.013-11.582 46.013 15.537 60.738 251.286-19.528 251.286-19.528s298.041-53.669 317.817-60.731 178.612 3.466 178.612 3.466l-9.11-35.055c-114.414-81.926-139.84-34.8-163.852-41.862-24.013-7.064-19.775 9.888-25.426 11.3s-74.863-42.377-86.163-40.965z" fill="#f3bf9c"/><path d="M574.499 318.253c-11.3 1.413-59.75-38.623-29.663 15.538 38.844 69.92-103.107 69.213-132.77 49.438s12.713 32.488 12.713 32.488c32.488 35.314-28.25 5.65-28.25 5.65-60.738-22.6-103.114 22.602-108.764 24.014s-14.125 7.063-15.538-4.237c-1.412-11.302-13.05-38.717-70.626 5.65-50.594 38.526-71.144 6.427-71.144 6.427l-9.888 2.048c-25.425-50.146-10.4 48.661-10.4 48.661 15.538 60.738 252.452-21.823 252.452-21.823s298.041-53.678 317.817-60.74 177.094 3.339 177.094 3.339l-9.005-35.956c-114.414-81.926-138.426-33.771-162.44-40.834s-19.774 9.888-25.425 11.3-74.863-42.375-86.163-40.963z" fill="#f5ccb0"/><path d="M576.812 321.336c-11.3 1.412-59.75-38.625-29.663 15.538 38.844 69.92-103.107 69.213-132.77 49.438s12.713 32.488 12.713 32.488c32.488 35.304-28.25 5.65-28.25 5.65-60.74-22.6-103.116 22.591-108.766 24.004s-14.125 7.062-15.537-4.238-12.817-38.412-70.626 5.65c-52.777 39.85-72.768 8.705-72.768 8.705l-10.594-.583c-24.03-46.606-9.216 51.345-9.216 51.345 15.537 60.738 253.6-24.154 253.6-24.154s298.04-53.667 317.816-60.73 175.54 3.21 175.54 3.21l-8.846-36.854C735.014 308.88 712.414 358.061 688.401 351s-19.775 9.887-25.426 11.3-74.863-42.376-86.163-40.963z" fill="#f8d8c4"/><path d="M579.125 324.417c-11.3 1.412-59.061-38.998-29.663 15.538 38.844 72.038-103.108 69.213-132.771 49.438s12.712 32.488 12.712 32.488c32.488 35.313-28.25 5.65-28.25 5.65-60.738-22.6-103.114 22.6-108.764 24.013-5.652 1.412-14.127 7.062-15.54-4.238s-12.585-38.124-70.625 5.65c-54.96 41.157-74.408 10.982-74.408 10.982l-11.3-3.213c-22.953-42.376-8.034 53.993-8.034 53.993 15.538 60.739 254.765-26.449 254.765-26.449s298.041-53.676 317.817-60.738 174.004 3.083 174.004 3.083l-8.74-37.754c-114.414-81.927-135.601-31.718-159.614-38.78s-19.775 9.887-25.426 11.3-74.863-42.376-86.163-40.963z" fill="#fae5d7"/><path d="M581.438 327.498c-11.3 1.413-57.154-39.981-29.663 15.538 37.432 75.571-103.11 69.215-132.773 49.44s12.713 32.487 12.713 32.487c32.488 35.32-28.25 5.65-28.25 5.65-60.739-22.6-103.114 22.608-108.765 24.02s-14.125 7.063-15.537-4.237-12.354-37.834-70.626 5.65c-57.145 42.464-76.05 13.242-76.05 13.242l-12.006-5.826c-22.6-40.97-6.833 56.66-6.833 56.66 15.537 60.737 255.912-28.763 255.912-28.763s298.041-53.676 317.817-60.745c19.775-7.063 172.45 2.955 172.45 2.955l-8.598-38.655c-114.414-81.926-134.19-30.689-158.202-37.751-24.013-7.065-19.775 9.887-25.426 11.3s-74.863-42.377-86.163-40.965z" fill="#fcf2eb"/><path d="M120.445 466.18c-22.6-38.844-5.65 59.326-5.65 59.326 15.538 60.739 257.078-31.075 257.078-31.075s298.041-53.676 317.817-60.738 170.914 2.825 170.914 2.825l-8.475-39.55c-114.414-81.927-132.776-29.663-156.79-36.726s-19.774 9.888-25.425 11.3-74.863-42.375-86.163-40.963-55.83-40.622-29.663 15.538c39.25 84.233-107.279 66.436-132.777 49.438-29.662-19.775 12.713 32.488 12.713 32.488 32.488 35.313-28.25 5.65-28.25 5.65-60.738-22.6-103.114 22.6-108.764 24.013s-14.125 7.062-15.538-4.238-12.12-37.53-70.626 5.65c-59.325 43.788-77.688 15.538-77.688 15.538l-12.713-8.475z" fill="#FFF"/><path d="M193.896 519.15s-12.712 20.482 24.013 43.788c0 0 2.472 2.472-29.31-4.944 0 0-10.947-3.531-13.772-21.894 0 0-8.475-7.769-16.95-17.656s36.02.706 36.02.706z" fill="#000"/><path d="M441.087 435.105s31.248 47.355 30.192 55.795c-2.295 18.362-2.648 35.313 3.002 42.375 5.652 7.063 21.19 65.682 21.19 65.682s-.707 2.12 21.185-64.975c0 0 20.482-28.25-14.831-60.739 0 0-62.15-50.85-60.738-38.138z" fill="#CCC"/><path d="M229.21 566.47s19.774 12.712-5.65 67.8l11.3-4.237s-1.413 19.775-7.063 24.012l12.712-5.65s8.475 14.126 1.413 22.6c0 0 29.663 14.126 28.25 25.426 0 0 11.3-14.125 4.238-25.425s-19.776-4.238-18.363-36.726l-15.538 5.65s9.888-15.537 9.888-26.838l-14.125 4.238s27.312-46.93 8.475-49.438c-10.594-1.413-15.538-1.413-15.538-1.413z" fill="#000"/><path d="M286.416 596.132s4.944-7.769 0-6.356-60.032 27.544-70.626 44.494c0 0 60.738-43.082 70.626-38.138zM304.779 610.257s4.944-7.768 0-6.356-60.032 27.544-70.626 44.494c0 0 60.738-43.081 70.626-38.138zM328.085 583.42s4.944-7.77 0-6.357-60.032 27.544-70.626 44.495c0 0 60.739-43.082 70.626-38.138zM287.122 660.402s0-10.594-4.943-9.182-68.508 32.488-79.101 49.439c0 0 74.157-45.201 84.044-40.257zM289.241 641.333s2.119-8.475-2.825-7.063c-3.531 0-50.144 20.482-60.738 37.432 0 0 52.263-38.138 63.563-30.37zM263.816 725.378l-17.657 13.419s18.363-13.42 24.72-11.3c0 0-12.007 19.775-13.42 28.956 0 0 18.363-22.6 28.25-21.894 0 0 13.42.706 13.42 19.775 0 0 9.887-18.363 15.537-17.656 0 0 2.12 11.3 0 23.306 0 0 7.063-13.419 14.126-10.594 0 0 11.3-3.53 9.887 16.95 0 0 0 18.363-1.412 23.307 0 0 9.887-46.613 14.125-47.32 0 0 14.125-2.118 22.6 13.42 0 0-7.062-13.42 1.413-9.888 0 0 19.069 2.825 24.719 14.832 0 0-12.007-21.188-2.12-15.538l14.126 11.3s14.832 37.432 18.363 40.257c0 0-13.42-38.138-10.594-38.138 0 0-3.531-21.188 5.65 4.944 0 0-5.65-24.72 4.238-23.307s17.656 19.069 32.487 14.831c0 0 16.952 9.888 20.484-112.295l-218.94 82.633z" fill="#CCC"/><path d="M272.29 561.526s26.132-10.594 96.758 0c0 0 12.713.706 24.72-14.832s59.325-28.25 70.625-24.719l16.952 11.3 1.413 2.12s21.892 18.362 22.598 31.78-25.423 98.17-42.375 126.421c-16.95 28.25-33.9 50.144-67.801 45.907 0 0-36.726-7.063-81.926 0 0 0-51.557-2.825-56.5-16.95s19.774-40.963 19.774-40.963 7.77-14.832 5.65-40.257-1.412-74.864-9.887-79.807z" fill="#000"/><path d="M311.135 565.057c14.832 32.488-37.432 147.608-37.432 147.608-3.53 2.825 22.353 13.507 40.257 9.181 19.327-4.661 90.401 2.825 90.401 2.825 41.67-27.544 64.27-105.938 64.27-105.938s18.364-42.376-12.713-48.026c-31.075-5.65-144.783-5.65-144.783-5.65z" fill="#e5668c"/><path d="M307.55 619.615c5.872-22.582 8.668-43.417 3.585-54.558 0 0 110.176 11.3 129.952-25.425 7.488-13.896 33.549 40.256 32.84 57.207 0 0-111.235 25.425-137.367 5.65l-29.01 17.126z" fill="#b23259"/><path d="M315.373 648.395s3.531 12.713-.707 19.776c0 0-2.825 1.412-4.943 2.118 0 0 2.118 6.357 12.712 9.182 0 0 3.532 7.769 7.77 8.475s12.712 10.594 19.774 8.475 26.838-9.181 26.838-9.181 9.888-5.65 25.425.706c0 0 4.194-1.413 4.944-8.475.883-8.299 6.357-14.832 9.888-18.363s20.481-26.131 18.363-26.838-120.064 14.125-120.064 14.125z" fill="#a5264c"/><path d="M307.604 562.938s-4.944 39.55.706 54.382 4.238 18.363 2.825 25.425 6.356 24.72 16.244 35.313l21.188 2.825s26.838-6.356 43.082-1.412c0 0 15.88 2.366 21.894-24.013 0 0 8.475-11.3 21.187-16.244s25.426-78.395 18.363-92.52-32.488-21.894-60.738 5.65-31.782-2.119-84.751 10.594z" stroke="#000" fill="#ff727f" stroke-width="1.76565"/><path d="M310.429 695.008s-1.413-3.53-9.182-4.237c0 0-39.55-6.356-54.381-28.25 0 0-12.007-9.888-4.238 10.593 0 0 18.363 36.02 30.37 40.963 0 0 28.956 7.063 37.43-19.069z" stroke-width=".882825" stroke="#000" fill="#FFC"/><path d="M451.578 582.06c1.164-13.966 4.612-29.168 1.515-35.366-11.381-22.759-41.35-13.242-60.738 5.65-28.25 27.544-31.782-2.119-84.751 10.594 0 0-3.081 24.649-1.598 42.34 0 0 65.867-20.446 67.28-10.558 0 0 2.825-5.65 19.069-5.65s56.398-2.066 59.223-7.01z" fill="#cc3f4c"/><path d="M375.405 564.35s8.475 8.476 2.118 25.426c0 0-25.425 28.25-21.894 52.97" stroke-width="3.5313" stroke="#a51926"/><path d="M290.654 714.077s-7.77-22.6 7.768-10.593l6.357 6.356c-2.119 2.825-12.007 9.888-14.125 4.237z" stroke-width=".882825" stroke="#000" fill="#FFC"/><path d="M299.552 716.196s-6.215-18.08 6.216-8.475l5.085 5.085c-8.052 2.26 0 6.78-11.3 3.39z" stroke-width=".882825" stroke="#000" fill="#FFC"/><path d="M308.028 716.196s-6.215-18.08 6.215-8.475l5.085 5.085c-5.933 2.26 0 6.78-11.3 3.39z" stroke-width=".882825" stroke="#000" fill="#FFC"/><path d="M319.68 716.55s-6.214-18.08 6.216-8.476c0 0 7.739 4.114 5.087 5.085-5.228 1.907 0 6.78-11.302 3.39z" stroke-width=".882825" stroke="#000" fill="#FFC"/><path d="M331.122 716.408s-6.215-18.08 6.217-8.475l5.085 5.085c-1.695 2.26 0 6.78-11.302 3.39z" stroke-width=".882825" stroke="#000" fill="#FFC"/><path d="M342.917 717.609s-8.475-21.894 7.769-10.594l6.356 6.356c-2.119 2.825 0 8.475-14.125 4.238z" stroke-width=".882825" stroke="#000" fill="#FFC"/><path d="M292.772 687.24s23.307-4.944 33.9.706c0 0 10.595 2.119 12.713 1.412s7.77-1.412 7.77-1.412M352.804 702.777s21.188-24.012 42.376-16.244c12.388 4.538 10.594-1.412 12.006-6.356s1.766-12.36 10.594-17.656" stroke-width="3.5313" stroke="#a5264c"/><path d="M383.173 674.527s-7.062-19.069-12.006 3.531-10.594 28.957-13.419 33.9c0 0 0 9.182 14.832 8.476 0 0 19.069-.706 19.775-5.65s-2.119-25.426-9.182-40.257z" stroke-width=".882825" stroke="#000" fill="#FFC"/><path d="M407.893 687.24s6.356-4.238 10.593-2.12M419.37 658.283s5.12-8.652 13.595-10.064" stroke-width="3.5313" stroke="#a5264c"/><path d="M279.353 723.259s31.782 5.65 39.551 2.825l.706 3.531-36.725-2.119s-20.482-9.887-3.532-4.237z" fill="#b2b2b2"/><path d="M304.073 558.7l34.606 1.413s12.713 54.382 6.357 67.8c0 0-2.12 4.945-7.063-4.943 0 0-32.488-57.913-38.138-61.444s2.119-2.825 4.238-2.825zM167.941 553.933s15.714 3.002 37.962 7.593c0 0 8.475 39.55 14.125 48.025s-.706 8.475-7.063 3.531-32.488-29.662-36.019-37.431-9.005-21.718-9.005-21.718z" stroke-width=".882825" stroke="#000" fill="#FFC"/><path d="M206.54 561.914s10.24 2.737 12.022 6.639c1.78 3.92-2.122 9.729-2.122 9.729s-1.766 5.844-3.888 2.03c-2.122-3.831-7.193-17.356-6.012-18.398z" stroke-width=".882825" stroke="#000" fill="#FFC"/><path d="M206.609 561.526s6.356 9.181 12.713 9.181 7.03-.724 12.006.353c8.122 1.766 7.416-1.766 19.069.353 4.661.848 9.181-.706 14.125 1.413s10.594.706 12.713-2.825 10.594-10.947 10.594-10.947-22.6 3.178-27.544 4.59c0 0-39.551 2.12-53.676-2.118z" fill="#000"/><path d="M285.357 561.879s-11.389 6.18-12.095 10.417 9.27 10.77 9.27 10.77 4.855 8.122 5.915 3.885-1.678-24.366-3.09-25.072zM219.171 571.52s12.372 19.757 12.755-.036c0 0 .984-2.225-2.124-2.26-10.726-.124-8.04-7.38-10.63 2.295z" stroke-width=".882825" stroke="#000" fill="#FFC"/><path d="M231.845 571.96s13.986 19.758 12.863-.158c0 0 .012-.583-3.083-.848-8.381-.741-7.772-8.722-9.78 1.007z" stroke-width=".882825" stroke="#000" fill="#FFC"/><path d="M244.58 571.978s14.055 18.77 12.874 1.695c0 0 .21-2.171-2.71-2.701-6.872-1.254-7.245-6.974-10.163 1.006z" stroke-width=".882825" stroke="#000" fill="#FFC"/><path d="M256.721 572.12s13.949 20.41 14.563 3.142c0 0 2.903-2.436-.18-2.825-10.272-1.306-8.863-9.163-14.383-.318z" stroke-width=".882825" stroke="#000" fill="#FFC"/><path d="M192.85 578.352l-13.52-2.701c-4.591-8.828-8.299-19.687-8.299-19.687s11.212 1.765 33.283 6.71c0 0 1.546 5.861 4.145 16.084l-15.608-.406zM307.738 570.124c-2.942-4.431-5.267-7.521-6.415-8.245-5.32-3.32 1.996-2.666 3.989-2.666l32.583 1.342s.925 3.955 2.133 9.94c0 0-17.812-3.549-32.29-.37z" fill="#e5e5b2"/><path d="M402.384 326.202c48.945 6.992 94.004-55.936 97.112-73.029 3.106-17.091-14.76-38.067-14.76-38.067 2.33-5.438-6.216-30.299-15.538-46.613s-37.399-14.595-68.368-16.315c-27.968-1.554-60.597 39.621-62.928 42.729s8.546 70.698 10.877 80.798-2.331 56.712-2.331 56.712c60.456-16.067 6.992-13.207 55.936-6.215z" fill="#cc7226"/><path d="M339.188 196.051c-2.289 3.051 8.39 69.413 10.678 79.329s-2.288 55.681-2.288 55.681c57.687-15.679 6.865-12.967 54.919-6.102 48.055 6.865 92.295-54.919 95.346-71.701 3.051-16.78-14.492-37.375-14.492-37.375 2.288-5.34-6.102-29.748-15.255-45.766S431.379 155.79 400.97 154.1c-27.46-1.525-59.495 38.9-61.783 41.952z" fill="#ea8e51"/><path d="M340.473 197.195c-2.246 2.995 8.235 68.128 10.481 77.86s-2.246 54.65-2.246 54.65c55.448-16.173 6.738-12.727 53.902-5.989 47.165 6.738 90.586-53.902 93.58-70.373 2.995-16.47-14.223-36.683-14.223-36.683 2.246-5.24-5.99-29.197-14.973-44.918s-36.037-14.064-65.882-15.722c-26.95-1.497-58.393 38.18-60.639 41.175z" fill="#efaa7c"/><path d="M341.758 198.34c-2.203 2.937 8.08 66.841 10.284 76.39s-2.204 53.62-2.204 53.62c51.974-15.962 6.61-12.488 52.885-5.877 46.276 6.61 88.877-52.885 91.815-69.044 2.938-16.16-13.956-35.993-13.956-35.993 2.204-5.141-5.876-28.645-14.69-44.07s-35.357-13.799-64.638-15.425c-26.443-1.469-57.292 37.46-59.496 40.398z" fill="#f4c6a8"/><path d="M343.044 199.483c-2.161 2.882 7.924 65.557 10.085 74.922s-2.16 52.588-2.16 52.588c49.204-15.75 6.483-12.246 51.867-5.763 45.386 6.483 87.168-51.868 90.05-67.718 2.881-15.848-13.688-35.299-13.688-35.299 2.161-5.042-5.763-28.095-14.408-43.223s-34.677-13.533-63.395-15.128c-25.934-1.44-56.19 36.74-58.351 39.621z" fill="#f9e2d3"/><path d="M402.949 319.985c44.494 6.357 85.459-50.85 88.284-66.388s-13.42-34.607-13.42-34.607c2.12-4.944-5.65-27.544-14.126-42.375s-33.996-13.267-62.15-14.832c-25.426-1.412-55.089 36.02-57.208 38.845s7.77 64.269 9.888 73.45-2.119 51.557-2.119 51.557c45.024-15.184 6.356-12.006 50.85-5.65z" fill="#FFF"/><path d="M484.876 259.953s-49.086 13.42-69.568 10.594c0 0-27.897-11.653-43.435 26.838 0 0-6.356 12.713-9.887 16.244s122.89-53.676 122.89-53.676z" fill="#CCC"/><path d="M491.586 256.069s-51.206 21.54-68.862 20.834c0 0-28.957-8.122-43.788 17.657 0 0-14.831 16.244-20.482 19.069 0 0-.706 2.825 10.594-4.238l18.363 9.182s26.132 16.95 43.082-11.3c0 0 7.062-19.776 7.062-23.307s37.432-13.419 40.259-14.125c2.825-.706 14.478-8.122 13.772-13.772z" fill="#000"/><path d="M407.893 319.48c-12.134 0-26.918-6.824-26.918-17.858 0-11.031 14.784-22.093 26.918-22.093 12.137 0 21.975 8.943 21.975 19.975 0 11.033-9.838 19.976-21.975 19.976z" fill="#99cc32"/><path d="M401.496 290.022c-8.557 1.275-17.542 3.929-17.415 3.547 2.72-8.155 13.95-14.04 23.812-14.04 7.585 0 14.273 3.492 18.221 8.807 0 0-9.386-.583-24.618 1.686z" fill="#659900"/><path d="M422.724 289.616s-7.769-5.65-7.769-1.766c0 0 6.356 7.77 7.769 1.766z" fill="#FFF"/><path d="M405.068 303.964a7.99 7.99 0 0 1-7.99-7.992 7.99 7.99 0 0 1 7.99-7.99 7.99 7.99 0 1 1 0 15.982z" fill="#000"/><path d="M221.44 280.435s-5.65-37.432-1.412-45.2c0 0 19.069-17.657 18.362-24.014 0 0-.706-31.781-2.825-33.194s-15.537-12.006-26.131-.706c0 0-18.363 31.782-16.95 43.082v3.531s-13.42-.706-16.244 2.825c0 0-2.119 9.181-4.238 9.888 0 0-4.944 4.237-1.412 9.181 0 0-3.532 4.238-2.825 11.3l13.419 7.063s3.53 25.425 22.6 34.606c8.538 4.113 14.125-7.768 17.656-18.362z" fill="#cc7226"/><path d="M219.675 277.186s-5.085-33.689-1.272-40.68c0 0 17.162-15.891 16.527-21.612 0 0-.636-28.604-2.543-29.875s-13.984-10.806-23.518-.635c0 0-16.527 28.603-15.255 38.773v3.178s-12.077-.635-14.62 2.543c0 0-1.907 8.263-3.814 8.899 0 0-4.45 3.814-1.27 8.263 0 0-3.18 3.814-2.543 10.17l12.077 6.356s3.178 22.883 20.34 31.146c7.684 3.7 12.712-6.992 15.89-16.526z" fill="#FFF"/><path d="M234.77 179.775c-1.924-1.518-15.148-11.706-25.477-.688 0 0-17.904 30.987-16.527 42.004v3.443s-13.083-.688-15.838 2.755c0 0-2.065 8.952-4.131 9.64 0 0-4.82 4.132-1.377 8.952 0 0-3.443 4.132-2.755 11.018l13.084 6.886s3.443 24.79 22.035 33.741c8.323 4.008 13.772-7.574 17.215-17.903 0 0-5.509-36.496-1.377-44.071 0 0 18.592-17.215 17.903-23.412 0 0-.688-30.988-2.754-32.365z" fill="#eb955c"/><path d="M233.976 181.523c-1.73-1.624-14.76-11.406-24.825-.67 0 0-17.444 30.192-16.102 40.927v3.355s-12.748-.671-15.432 2.683c0 0-2.013 8.723-4.026 9.394 0 0-4.696 4.025-1.342 8.722 0 0-3.354 4.026-2.683 10.735l12.748 6.71s3.354 24.154 21.47 32.876c8.111 3.906 13.419-7.38 16.773-17.445 0 0-5.367-35.56-1.341-42.94 0 0 18.115-16.774 17.444-22.812 0 0-.67-30.193-2.684-31.535z" fill="#f2b892"/><path d="M233.182 183.271c-1.536-1.73-14.373-11.106-24.172-.653 0 0-16.985 29.398-15.679 39.85v3.267s-12.412-.653-15.025 2.613c0 0-1.96 8.493-3.92 9.146 0 0-4.573 3.92-1.307 8.493 0 0-3.266 3.92-2.613 10.453l12.413 6.532s3.266 23.519 20.905 32.012c7.898 3.803 13.066-7.187 16.332-16.986 0 0-5.226-34.624-1.307-41.81 0 0 17.64-16.333 16.986-22.212 0 0-.653-29.398-2.613-30.705z" fill="#f8dcc8"/><path d="M219.675 277.01s-5.085-33.513-1.272-40.505c0 0 17.162-15.89 16.527-21.611 0 0-.636-28.604-2.543-29.875-1.342-1.836-13.984-10.806-23.518-.635 0 0-16.527 28.603-15.255 38.773v3.178s-12.077-.635-14.62 2.543c0 0-1.907 8.263-3.814 8.899 0 0-4.45 3.814-1.27 8.263 0 0-3.18 3.814-2.543 10.17l12.077 6.356s3.178 22.883 20.34 31.146c7.684 3.7 12.712-7.168 15.89-16.703z" fill="#FFF"/><path d="M214.201 265.956s-38.138-18.01-39.727-19.422c0 0 16.067 14.479 17.48 14.479s22.247 4.943 22.247 4.943z" fill="#CCC"/><path d="M184.009 255.01s32.487 6.356 32.487 14.125c0 5.141-.429 28.834-9.887 26.131-14.832-4.237-8.475-29.663-22.6-40.257z" fill="#000"/><path d="M198.84 261.719s15.852 2.602 17.656 7.416c1.06 2.825 2.23 17.494-7.415 19.422-8.037 1.608-11.975-16.438-10.241-26.838z" fill="#99cc32"/><path d="M350.677 336.845c-.878-3.075 1.437-2.844 4.6-3.794 3.53-1.06 25.071-7.769 26.484-12.36s24.719 3.179 24.719 3.179c3.178 1.412 10.947 6.003 10.947 6.003 8.475 2.119 20.128 2.825 20.128 2.825 4.238 1.766 10.241 6.71 10.241 6.71 25.779 18.009 47.674 5.296 47.674 5.296 35.312-11.653 24.718-42.022 24.718-42.022-5.297-15.89.353-21.894.353-21.894.353-6.71 13.066 4.59 13.066 4.59 4.59 7.416 6.003 16.244 6.003 16.244 14.125 19.776 8.122-11.653 8.122-11.653.353-1.765-4.591-8.122-4.591-10.24s-3.178-8.123-3.178-8.123c-5.297-6.003-1.06-18.362-1.06-18.362 3.179-24.366-.706-21.188-.706-21.188-2.119-3.178-18.362 14.478-18.362 14.478-3.885 6.004-14.479 8.829-14.479 8.829-4.942 3.178-10.945.706-10.945.706-4.59-.706-14.478 11.653-14.478 11.653 4.943-.353 9.181 7.416 13.419 7.769s7.415-4.238 10.239-5.297c2.825-1.06 7.768 9.181 7.768 9.181.707 4.591-9.181 13.066-9.181 13.066-.706 8.122-3.53 5.297-3.53 5.297-5.296-1.06-7.415 5.65-9.18 13.772s-9.182 8.828-9.182 8.828c-2.825 13.066-4.946 7.77-4.946 7.77-.353-9.888-10.947.352-10.947.352-2.119 3.532-10.24-.353-10.24-.353-12.007-3.531-7.77-7.062-7.77-7.062 3.179-3.885 22.954 0 22.954 0 3.884-2.825-10.24-9.888-10.24-9.888-1.06-3.178.706-10.947.706-10.947 2.118-5.65 14.125-15.538 14.125-15.538 16.599-2.118 11.655-4.944 11.655-4.944-10.947-9.18-21.19 4.238-21.19 4.238-3.884 10.947-34.606 37.432-34.606 37.432-8.476 6.003-3.885-6.003-10.947 0s-43.435-9.888-43.435-9.888c-20.415-2.106-25.239 25.688-31.47 20.18 0 0 9.567 15.043 6.742 5.155zM694.633 43.132s-45.2 14.125-50.144 47.32c0 0-4.237 40.256 31.782 71.331 0 0 .706 11.3 4.237 16.95 0 0-2.825 8.476 30.37-4.943l48.025-14.832s11.3-4.237 20.482-19.775 36.019-48.732 29.662-93.226c0 0 2.12-19.775-8.475-20.482 0 0-14.831-2.825-27.544 10.594 0 0-12.006 5.65-16.244 4.944l-62.15 2.119z" fill="#000"/><path d="M791.073 41.384s3.708-15.767-4.838-7.222c0 0-12.43 10.1-25.637 10.1 0 0-25.637 3.884-33.406 27.19 0 0-6.992 47.39 6.992 57.49 0 0 8.546 13.207 20.976 1.554s39.798-65.029 35.913-89.112z" fill="#000"/><path d="M790.42 42.02s3.69-15.45-4.697-7.045c0 0-12.218 9.905-25.178 9.905 0 0-25.178 3.814-32.806 26.696 0 0-6.868 46.532 6.869 56.448 0 0 8.387 12.967 20.587 1.526 12.218-11.442 39.039-63.888 35.225-87.53z" fill="#323232"/><path d="M789.749 42.655s3.672-15.114-4.556-6.886c0 0-11.97 9.729-24.7 9.729 0 0-24.72 3.743-32.206 26.202 0 0-6.727 45.674 6.744 55.406 0 0 8.228 12.727 20.217 1.497 11.971-11.23 38.244-62.747 34.5-85.948z" fill="#666"/><path d="M789.096 43.273s3.654-14.778-4.432-6.692c0 0-11.742 9.552-24.243 9.552 0 0-24.224 3.673-31.57 25.708 0 0-6.62 44.798 6.604 54.347 0 0 8.087 12.487 19.828 1.469 11.76-11.018 37.485-61.607 33.813-84.384z" fill="#999"/><path d="M788.442 43.909s3.638-14.443-4.29-6.533c0 0-11.53 9.375-23.783 9.375 0 0-23.766 3.602-30.97 25.214 0 0-6.48 43.94 6.48 53.305 0 0 7.928 12.246 19.457 1.44 11.512-10.805 36.708-60.466 33.106-82.801z" fill="#CCC"/><path d="M787.771 44.544s3.62-14.125-4.149-6.356c0 0-11.3 9.181-23.306 9.181 0 0-23.307 3.532-30.37 24.72 0 0-6.356 43.081 6.357 52.263 0 0 7.769 12.006 19.069 1.412s35.93-59.326 32.4-81.22z" fill="#FFF"/><path d="M414.249 403.324s-36.02-33.9-50.144-35.313c0 0-60.739-7.063-86.87 24.719 0 0 31.075-36.02 79.807-26.132 0 0-38.138-7.769-60.032-2.119l-46.613 24.72-4.944 8.475s7.063-26.132 39.55-36.726c0 0 40.257-8.475 59.326 0 0 0-38.138-12.006-55.794-8.475 0 0-53.676-4.237-76.276 42.376 0 0 7.063-25.426 33.194-38.138 0 0 24.013-15.538 60.032-10.594 0 0 25.425 5.65 34.607 9.887s7.062-.706-7.77-9.181c0 0-9.887-17.656-34.606-16.95 0 0-75.57 6.356-93.932 27.544 0 0 24.013-19.775 42.375-24.72 0 0 39.55-14.124 54.382-12.712 0 0 43.788 1.766 57.207-5.297 0 0-19.775 8.828-14.125 14.479s17.656 19.069 17.656 21.187 42.73 41.14 49.085 48.909l3.885 4.06z" fill="#992600"/><path d="M658.614 745.86s-27.367-64.447-49.438-81.22c0 0 45.907 28.25 52.087 60.031 0 0 0 17.657-2.649 21.188zM741.6 759.101s-46.79-97.11-79.454-139.486c0 0 76.805 66.212 85.633 113.002l.883 9.71-5.297-4.413s-.882 15.89-1.765 21.187zM841.359 673.468s-110.353-105.056-113.002-109.47c0 0 106.822 116.532 112.119 129.775 0 0-3.531-15.891.883-20.305zM508.534 750.273s34.43-91.813 67.978-52.086c0 0 26.484 17.656 25.602 22.953 0 0-7.063-11.477-38.845-10.594 0 0-33.547-5.297-54.735 39.727zM844.89 525.153s-79.454-50.32-92.696-52.97c-20.853-4.166 87.4 51.205 96.227 69.744 0 0 3.532-4.414-3.531-16.774z" fill="#CCC"/><path d="M578.807 713.371s36.02-3.531 48.026-15.537l7.769 6.356 31.075-67.801 6.356 9.181s25.426-26.131 24.013-40.256 22.6 10.594 22.6 10.594-1.412-20.482 11.3-8.476c0 0-4.237-27.544 10.594-13.418 0 0-18.61-53.252 21.188-7.77 9.888 11.3 2.119-.706 2.119-.706s-45.907-84.75-7.769-59.325c0 0 3.531-40.257 1.413-48.026s-5.65-47.32-14.126-56.5.707-12.007 10.594-2.826c0 0-19.775-42.375 3.532-21.187 0 0-6.357-26.838-14.126-31.782 0 0-9.887-30.37 16.95-11.3 0 0-7.768-21.894-13.418-27.544 0 0-20.482-48.732-7.77-40.257l7.77 6.356s-12.007-24.719-.707-16.95 11.3 7.063 11.3 7.063-37.431-58.62-1.412-27.544c0 0-14.408-24.575-20.482-36.726 0 0-33.194-36.019-7.768-24.719l8.475 2.825s-15.538-17.656-29.663-20.481 4.237-14.125 15.538-10.594 38.844 16.95 38.844 16.95 22.6 33.194 29.663 33.9c0 0-35.313-13.418-24.72.707 0 0 25.426 24.719 12.713 24.013 0 0-10.594 12.712-2.119 28.25 0 0-32.593-32.472-6.356 12.713l12.007 28.956s-43.082-43.788-23.307-4.944c0 0 30.37 41.67 33.9 42.376s11.3 16.244 11.3 16.244l-7.768-3.532 9.181 15.538s-19.775-21.188-9.181 2.119l9.887 25.425s-36.019-38.844-12.006 13.42c0 0-28.957-9.182-13.419 21.187 0 0-2.825 28.25-2.119 37.432s2.825 59.325-4.944 73.45 10.594 48.026 14.126 55.089 9.887 26.131-5.65 9.887-7.77-6.356-4.238 9.182 14.125 43.081 12.713 52.969c0 0-2.12 2.119-7.77-4.238 0 0-26.13-40.256-23.306-14.831 0 0-2.118 14.125-7.769 29.663 0 0-5.65 19.069-5.65 3.531 0 0-5.65-29.663-10.594-16.244s-11.3 24.013-16.243 28.25-14.126-36.019-16.244-17.656c0 0-21.188-21.894-29.663 7.063l-20.482 28.956s-.706-21.894-2.825-11.3c0 0-52.97 10.594-71.332 2.825zM518.069 83.389s-20.48-14.126-27.542-13.42S539.257 54.433 612 103.165c0 0 8.475 4.944 14.832 4.237 0 0 5.65 4.238.706 10.594 0 0-15.538 16.95 4.237 36.726 0 0 32.488 12.006 22.6-3.532 0 0 19.07 7.063 23.307 14.126s2.12 0 2.12 0l-21.895-21.894s-9.181-3.532-14.125-18.363-9.181-32.488-1.413-38.138c0 0-7.062 7.769-5.65.706s7.77-13.419 10.594-14.125 31.782-28.603 43.788-29.31c0 0-16.244 2.472-21.54.707s-52.264-21.895-62.858-24.013c0 0-29.663-11.654-8.475-8.122 0 0 63.21 6.71 95.345 30.016 0 0-12.713-14.832-45.2-27.191 0 0-39.198-22.247-101.349-13.42 0 0-31.428 5.65-45.2 8.83 0 0-4.589-1.06-5.648-1.767S474.28-7.366 425.549 4.994c0 0-30.016 8.122-45.2 16.597 0 0-26.838 2.119-33.195 7.769 0 0-32.84 25.778-36.372 27.19s-23.66 14.832-25.072 15.538c0 0 43.435-11.653 47.672-15.89s34.96-8.829 39.198-6.357 19.069 1.413 2.118 2.472c0 0 133.483 26.132 134.896 29.663s8.475 1.413 8.475 1.413z" fill="#000"/><path d="M644.136 67.145s-18.01-13.066-21.54-13.066-25.426-18.01-32.842-17.303-28.956-16.95-77.335-2.472c0 0-1.06-3.532 5.297-4.944 0 0 11.3-3.885 12.006-4.944 0 0 35.666-7.416 48.379-1.06 0 0 16.244 4.591 27.19 15.538 0 0 19.776 5.65 25.426 3.885 0 0 15.538 3.884 16.244 7.062 0 0 10.24 5.297 7.063 9.888 0 0 .706 2.825-9.888 7.416z" fill="#cc7226"/><path d="M622.118 63.42c1.43 1.111 3.232 1.288 4.29 2.718.425.548-.087 1.13-.652 1.307-1.837.547-3.708-.46-5.721.582-.706.371-1.836.053-2.825-.211-2.878-.777-6.11-.83-9.093.388-3.496-1.995-7.663-.953-11.336-2.737-.106-.035-.494.565-.635.53-5.368-2.03-11.989-1.536-16.28-5.562-4.29-.724-8.44-1.536-12.73-2.737-3.213-.9-5.703-2.648-8.563-4.114-2.437-1.253-4.997-2.171-7.716-2.842-3.284-.795-6.515-.6-9.852-1.519-.177-.035-.512.565-.654.53-.565-.194-1.094-1.218-1.395-1.13-2.966.918-5.597-.795-8.528-.194-2.083-2.154-5.12-1.73-7.857-2.507-5.244-1.501-10.805.741-16.155-1.024 7.256-3.25 15.537-1.078 22.706-4.732 4.114-2.084 8.81-.142 13.348-1.484.865-.264 2.084-.618 2.79.565.247-.247.565-.653.67-.618 4.309 2.049 8.405 4.291 12.784 6.18.6.265 1.554-.159 1.995.212 2.684 2.137 6.11 1.96 8.564 4.114 3.001-.883 6.162-.212 9.216-1.324.142-.035.548.565.6.53 2.013-1.325 4.044-.848 5.615-.318.6.212 1.766.653 2.313.777 1.978.476 3.496 1.324 5.58 1.66.194.035.53-.566.653-.53 1.978.776 3.814.688 4.98 2.736.246-.247.529-.653.67-.618 1.819.6 2.966 1.943 4.909 2.366.847.177 1.942 1.29 2.948 1.607 4.22 1.289 7.487 3.99 11.353 5.562 1.342.547 2.896.971 4.008 1.836zM486.81 38.294c-4.446-3.037-8.627-4.997-12.939-8.157-.32-.23-.955.07-1.312-.142a78.43 78.43 0 0 1-5.08-3.337c-.951-.67-2.4-.653-3.298-1.112-4.491-2.278-9.133-3.266-13.56-5.368 1.204-1.13 3.185-.688 4.238-2.118.344.494.764.988 1.388.653 2.962-1.59 6.229-1.854 9.188-1.695 3.009.159 6.046.689 9.18 1.183.542.07.893.989 1.463 1.165 3.934 1.166 8.152.247 11.894 1.73 2.809 1.113 5.58 2.56 7.769 4.803.444.46-.13 1.007-.624 1.342.685-.194 1.167.177 1.363.724.149.424.149.953 0 1.377-.197.548-.69.724-1.35.812-2.485.336.644-2.1-.592-1.306-2.248 1.448-.93 3.92-2.246 6.162-.494-.336-.9-.724-.706-1.413.413.919-.65 1.43-.946 1.996-.68 1.27-2.268 3.778-3.83 2.701zM429.43 51.271c-5.569-1.394-10.954-1.2-16.28-3.46-.118-.035-.511.565-.624.53-2.412-1.06-4.033-2.755-5.933-4.609-1.612-1.571-4.54-.883-6.789-1.748-.572-.212-.93-1.112-1.462-1.183-2.152-.282-3.789-1.96-5.634-2.966 4.125-1.413 8.382-1.342 12.729-2.03.199-.036.455.547.69.547.24 0 .47-.406.706-.636.344.495.878 1.077 1.331.618.968-.953 1.95-.618 2.903-.547.254.017.475.565.71.565.24 0 .471-.565.706-.565.24 0 .472.565.706.565.24 0 .47-.406.707-.636 1.222 1.377 2.784.406 4.236.724 1.832.389 2.304 2.419 4.2 2.949 8.325 2.295 15.63 6.091 23.333 9.781.542.248.913.689.719 1.378.471 0 1.024-.16 1.36.07 1.867 1.307 3.705 2.26 4.936 4.202.381.6-.2 1.325-.611 1.236-7.82-1.765-14.893-2.842-22.64-4.785zM404.958 129.332c-2.81-2.152-3.842-5.738-5.834-8.902-.378-.6.106-1.155.666-1.312.989-.28 1.947.563 2.67.92 3.08 1.522 5.791 3.715 9.317 3.96 3.514 3.945 11.035 4.625 11.048 10.594.001 1.517-2.52-.104-3.28 1.413-4.327-1.771-8.545-1.59-12.747-4.18-1.09-.672-.507-1.472-1.84-2.493zM356.336 36.493c.238 0 12.652.424 12.622.618-.08.547-13.728 2.401-14.37 2.101-.29-.141-13.553 4.15-13.79 3.92.473-.247 15.068-6.639 15.538-6.639z" fill="#cc7226"/><path d="M383.527 53.726s-26.132 3.178-33.9 5.297-40.61 15.537-45.908 19.069c0 0-23.66 9.534-53.675 44.847 0 0 13.419-6.003 17.303-10.947 0 0 24.013-22.247 23.66-17.656 0 0 21.54-15.185 20.481-11.3 0 0 43.082-19.776 39.55-14.126 0 0 38.139-8.122 36.373-4.59 0 0 33.194 7.768 28.25 8.122 0 0-10.24 2.118 1.06 8.475 0 0-6.003 7.769-15.538.706s-4.237-3.178-13.066-1.413c0 0-4.59 1.413-12.712-5.65 0 0-9.888-8.122-25.426-1.765 0 0-54.028 22.247-57.56 23.306 0 0-6.356 4.944-10.594 11.3 0 0-10.24 7.77-15.537 10.241 0 0-22.6 20.482-24.72 22.954 0 0-6.003 9.18-7.415 9.887 0 0 11.3-6.71 14.831-10.24 0 0 24.72-17.657 34.254-19.07 0 0 7.769-5.297 9.181-7.768 0 0 25.426-16.244 32.841-16.244 0 0 16.244 9.181 20.482-3.179 0 0 10.24-3.178 20.128-1.059 0 0 5.65-4.59 4.238-8.475 0 0 2.825-3.178 4.59 3.531 0 0 6.004 6.357 14.479 2.825 0 0 7.062-.353 3.531 3.885 0 0-7.769 6.71-28.603 7.062 0 0-21.895 1.06-50.851 14.479 0 0-52.616 18.362-68.86 36.725 0 0-11.3 15.538-20.835 17.657 0 0-10.24 1.412-20.835 14.478 0 0 17.304-10.24 33.195-10.24 0 0 7.062-4.238.353 2.118 0 0-6.357 13.419-3.532 22.953 0 0-1.059 9.182-2.471 12.007 0 0-13.773 22.6-13.773 26.837s2.12 21.541 2.826 22.6-1.766-2.824 4.943 1.413 11.654 7.063 13.066 12.007-3.531-9.535-3.884-12.713-7.77-15.89-6.357-20.128c0 0 1.766 1.765 3.179 4.237 0 0-1.06-1.06 0-7.416 0 0 1.412-9.18 3.884-14.831s6.003-12.36 6.71-13.772.706-11.653 3.178-7.063l6.003 4.591s-4.944-4.59-1.06-8.475c0 0-1.765-9.888 1.413-14.478 0 0 12.36-14.832 15.184-16.597s.354-1.06.354-1.06 10.593-7.415.353-4.59c0 0-7.063 2.825-12.36 2.825 0 0-13.419 3.53-6.356-3.885S272.29 144.48 279 144.833l1.413 2.825 19.775-4.237-2.119 1.412s-.353-.353 7.063-1.06 17.656 1.766 20.128-1.412 8.475-4.944 7.77-2.472-1.06 6.003-1.06 6.003 8.828-10.24 7.769-6.356-15.538 13.066-18.01 24.013l18.363-14.478 6.356-5.297s6.356 3.884 6.71 1.06 8.475-13.067 10.593-12.714 5.65-4.59 5.297 0 13.066 14.126 13.066 14.126 5.65-3.179 8.122-.707 9.888-34.96 9.888-34.96l44.14-18.715 76.983-6.003-30.014-12.007-107.706-20.128z" fill="#000"/><path d="M415.661 405.09s-26.484-29.664-41.316-34.254c0 0-23.66-12.007-67.094 1.765" stroke-width="3.5313" stroke="#4c0000"/><path d="M368.695 368.364s-44.494-14.125-71.685-6.71c0 0-32.488 3.532-47.32 27.898" stroke-width="3.5313" stroke="#4c0000"/><path d="M362.339 366.245s-30.016-12.713-56.148-16.597c0 0-29.31-4.59-58.62 8.122 0 0-21.54 10.594-31.075 28.604" stroke-width="3.5313" stroke="#4c0000"/><path d="M364.105 366.951s-27.191-19.422-28.957-21.894c0 0-12.36-19.422-35.313-20.128 0 0-37.785 1.413-68.154 15.538" stroke-width="3.5313" stroke="#4c0000"/><path d="M361.8 351.073c2.723 2.583 50.33 53.663 50.33 53.663 62.15 64.623 12.713 4.238 12.713 4.238-13.42-8.475-29.663-41.67-29.663-41.67-2.119-4.943 24.719 12.713 24.719 12.713 7.063 1.413 31.075 35.313 31.075 35.313-12.006-4.237-3.531 8.475-3.531 8.475 4.944 3.531 40.965 31.076 40.965 31.076 6.356 7.062 13.417 9.887 13.417 9.887 24.719-9.181 13.419 14.125 13.419 14.125 4.237 12.007 14.125-8.475 14.125-8.475 19.775-29.663-9.181-25.425-9.181-25.425-52.97 4.944-64.976-23.307-64.976-23.307-4.238-4.237 11.3 0 11.3 0 14.833 3.532-12.713-21.894-12.713-21.894 4.238 0 20.482 12.007 20.482 12.007 18.364 16.244 21.896 12.712 21.896 12.712 31.78-15.537 50.142-2.118 50.142-2.118 3.531 2.825-6.356 14.831-3.531 24.012s11.3 31.076 11.3 31.076c-4.238 2.825-3.531 21.894-3.531 21.894 29.663 40.963 12.712 37.432 12.712 37.432-27.544-.707-1.412 12.712-1.412 12.712 5.65 3.532 21.188 16.244 21.188 16.244-4.944-2.119-7.77 7.063-7.77 7.063 8.476 7.062 3.532 15.537 3.532 15.537-10.594 2.12-12.713 9.182-12.713 9.182 12.007 14.125-5.65 14.831-5.65 14.831 6.357 7.77-2.118 28.957-2.118 28.957-8.476 0-19.776 9.887-19.776 9.887 4.238 8.476-14.125 18.363-14.125 18.363-14.831 2.825-9.887 14.832-9.887 14.832-14.124 10.593-18.361 38.844-18.361 38.844-1.413 18.363-5.65 24.013 3.53 20.481 9.18-3.531 7.768-25.425 7.768-25.425-8.473-27.544 67.095-55.794 67.095-55.794 7.062-2.825 8.475-12.007 8.475-12.007 3.53.706 19.069 14.125 19.069 14.125 13.419 19.776 14.125 3.532 14.125 3.532 2.119-6.357-.706-16.95-.706-16.95 10.593-38.139-14.126-49.439-14.126-49.439-17.656-59.325 7.063-44.494 7.063-44.494 4.944 9.888 24.013 19.069 24.013 19.069l6.356-4.238c-2.825-8.475 12.006-19.068 12.006-19.068 4.944 11.3 15.538-2.826 15.538-2.826 6.356-43.081 28.25-17.656 28.25-17.656 7.063 2.119 9.182-9.888 9.182-9.888 6.356-18.362 0-42.375 0-42.375 6.356-.706 23.306 9.888 23.306 9.888 4.944-6.357-11.3-36.02-4.237-31.782s14.831 7.062 14.831 7.062c1.413-3.53-16.244-25.425-16.244-25.425-7.769-4.944-16.95-40.963-16.95-40.963 12.713 6.356-4.944-20.481-4.944-20.481 0-5.65 10.594-25.426 10.594-25.426-1.412-12.006 0-11.3 0-11.3 4.944 2.119 19.07 4.944 7.063-6.356s1.412-19.775 1.412-19.775c7.77-4.944-16.244-4.238-16.244-4.238-9.181-7.769-8.475-14.831-8.475-14.831 14.125 3.531-11.3-21.894-15.537-28.25s12.712-15.538 12.712-15.538c23.307-6.357 2.825-12.007 2.825-12.007-34.606.707-15.537-18.362-15.537-18.362 10.593.706 7.768-3.532 7.768-3.532-9.181-2.119-26.131-13.419-26.131-13.419-7.063-6.356-.706-4.943-.706-4.943 29.662 2.118-21.188-17.657-21.188-17.657 14.125 0-17.657-18.363-17.657-18.363-3.53-2.825-9.181-16.244-9.181-16.244-10.594-9.181-19.069-21.187-19.069-21.187-.706-7.77-9.181-16.244-9.181-16.244-20.482-24.013-30.37-23.307-30.37-23.307-26.131-6.356-35.312-4.944-35.312-4.944l-93.227 7.77c-46.613 22.6-32.84 59.678-32.84 59.678 11.3 14.831 27.544 8.122 27.544 8.122 8.122-10.947 28.603-7.063 28.603-7.063 36.021 5.65 31.43-.706 31.43-.706-4.237-8.122-32.843-19.069-33.196-20.128s-15.89-7.063-15.89-7.063c-5.297-2.119-13.066-18.363-13.066-18.363-5.65-6.003 22.247 4.238 22.247 4.238-2.119 1.766 10.947 8.828 10.947 8.828 30.724-1.765 49.44 17.304 49.44 17.304 19.067 29.31 19.42 14.831 19.42 14.831 4.944-16.597-15.89-54.029-15.89-54.029.706-3.531 15.184 8.122 15.184 8.122 2.472-3.531 3.884 6.71 3.884 6.71.353 4.237 7.063 18.362 7.063 18.362 4.944 22.954 11.3 9.888 11.3 9.888l8.122 16.597c2.472 4.59-8.122 18.01-8.122 18.01-.353 4.943 1.06 4.59-8.828 18.01s-3.885 21.187-3.885 21.187c-2.472 11.653 13.066 10.947 13.066 10.947 4.59 3.884 10.594 3.884 10.594 3.884 3.178 3.532 7.416 2.472 7.416 2.472 2.825-6.71 13.772-3.178 13.772-3.178 2.472-4.237 16.95-4.944 16.95-4.944 1.766-4.59 2.472-7.415 8.475-8.475s-37.432-76.982-37.432-76.982c11.3-1.412-3.178-23.306-3.178-23.306-3.884-11.654 16.244 14.125 20.129 16.597s5.65 6.356 2.825 6.003-6.004 3.531-3.532 3.884 25.426 26.838 31.429 44.848 16.597 25.072 27.544 35.666 9.534 53.322 9.534 53.322c-.706 15.538 9.888 34.254 9.888 34.254 3.531 6.71-3.884 38.844-3.884 38.844-3.532 3.884-1.06 5.297-1.06 5.297 1.766 2.119 13.772 25.425 13.772 25.425-3.178-.353 3.178 6.003 3.178 6.003 9.182 10.594-2.118 5.297-2.118 5.297-10.594-2.825 1.765 14.479 1.765 14.479 2.12 3.178-13.772-4.944-13.772-4.944-16.244-1.06 4.238 11.653 4.238 11.653 15.184 12.713-4.944 4.944-4.944 4.944-8.122-3.178-2.472 8.828-2.472 8.828 5.65 2.825 36.02 15.185 36.02 15.185.706 6.71-4.591 15.537-4.591 15.537.706 7.063-3.179 13.066-3.179 13.066-2.118 14.479-3.178 15.891-3.178 15.891-7.415.353-20.481 24.72-20.481 24.72-3.178 4.59-21.188 25.778-21.188 25.778-3.531 12.36-35.313-.354-35.313-.354-11.653 6.004-8.122 0-8.122 0-.706-3.884 7.769-14.478 7.769-14.478 12.36-4.59 7.769-23.66 7.769-23.66 7.062-2.471-12.713-7.415-12.36-9.534s10.594-4.59 10.594-4.59c14.125-3.532 6.356-7.77 6.356-7.77-1.059-7.062 4.238-16.95 4.238-16.95 20.482-1.412 0-30.016 0-30.016-19.069-13.419-20.835-23.66-20.835-23.66 22.248-14.478 7.77-36.372 8.122-42.728s2.472-44.494 2.472-44.494c-3.531-10.947-8.828-34.96-8.828-34.96 3.884-9.182 16.95-31.429 16.95-31.429 4.944-7.415 20.482-15.89 16.597-21.187s-17.656-2.12-17.656-2.12c-13.772-2.471-12.713 6.71-12.713 6.71-2.825 1.766-4.237 10.594-4.237 10.594-1.272 14.007-16.95 25.072-16.95 25.072-19.776 10.947-3.532 18.01-3.532 18.01 10.594 11.653-6.71 12.006-6.71 12.006-19.421-3.178-4.943 14.832-4.943 14.832 19.069 22.6 13.772 27.544 13.772 27.544-18.01 1.765 4.237 18.01 4.237 18.01s-1.412-3.532-1.059-.354 5.65 10.594 7.063 14.125-5.65 3.885-5.65 3.885c1.059 16.95-26.132 9.534-26.132 9.534l-2.825.354c-2.825.353-22.6-1.06-32.841-4.944s-22.245-3.885-22.245-3.885-7.063 3.178-20.484 2.825c-13.419-.353-27.544 4.591-27.544 4.591-7.769-.706 7.416-8.475 7.77-8.122s10.24-9.534-3.885-8.475c-38.486 2.887-57.56-15.185-57.56-15.185-3.532-2.472-8.122-7.415-8.122-7.415-17.657-3.532 2.472 21.894 2.472 21.894 2.118 2.472-.354 4.237-.354 4.237-1.412-2.825-15.184-12.36-15.184-12.36-4.963-1.717-7.37-4.073-11.486-8.462z" fill="#000"/><path d="M319.61 330.58s20.482 9.887 25.072 14.83 29.31 25.073 29.31 25.073-9.534-3.532-14.125-6.71-23.66-17.656-23.66-17.656-6.71-10.594-16.597-15.538z" fill="#4c0000"/><path d="M217.187 275.496c.595-.261-.33-5.05-.69-6.008-1.805-4.813-17.657-7.416-17.657-7.416-.4 2.41-.498 5.228-.31 8.12 0 0 8.594 9.745 18.657 5.304z" fill="#99cc32"/><path d="M217.187 275.143c-.793.28-.027-4.827-.337-5.655-1.805-4.813-18.01-7.593-18.01-7.593-.4 2.41-.498 5.229-.31 8.12 0 0 7.535 9.039 18.657 5.128z" fill="#659900"/><path d="M209.434 275.396c-1.104 0-1.997-2.013-1.997-4.496 0-2.48.893-4.493 1.997-4.493s1.999 2.013 1.999 4.493c0 2.483-.896 4.496-2 4.496zM128.92 448.524s-9.887 17.657 33.9 7.063c0 0 24.72-2.119 28.957-6.356 2.12 1.412 16.89 6.585 21.894 7.768 12.007 2.825 26.838-14.831 26.838-14.831s8.122-18.54 13.066-18.54-.706 2.826-.706 2.826-11.653 17.833-10.947 20.658c0 0-9.182 35.313-37.432 36.725 0 0-28.515 1.678-26.131 12.007 0 0 15.537-4.238 19.775 0 0 0 19.069-.707 4.944 10.593L191.07 526.92s.247 6.921-17.656.706c-17.304-6.003-35.49-28.78-35.49-28.78s-28.162-25.69-9.005-50.32z" fill="#000"/><path d="M126.802 455.587s-3.532 16.95 61.444-1.413l12.007 1.413c4.237 1.412 25.425 6.356 28.956 4.237 0 0-12.713 24.013-33.194 21.188 0 0-23.307 2.825-22.6 11.3 0 0 7.062 12.713 15.537 16.95 0 0 4.944 4.238 4.238 9.888s-5.65 8.475-9.181 9.888-9.182-4.238-12.007-4.238-17.656-11.3-25.425-19.775-22.6-29.663-21.894-34.607l2.119-14.831z" fill="#e59999"/><path d="M132.452 486.397c4.59 6.975 10.24 14.39 14.125 18.628 7.769 8.475 22.6 19.775 25.425 19.775s8.475 5.65 12.007 4.238 8.475-4.238 9.18-9.888-4.237-9.888-4.237-9.888c-5.413-2.701-10.25-8.863-13.039-12.977 0 0 .327 4.502-8.855 3.09s-18.362-6.356-21.187-12.007-7.063-9.887-4.238-3.53 7.063 12.712 9.888 13.418 2.118 2.825-2.12 2.119-9.18-1.413-16.95-10.594z" fill="#b26565"/><path d="M127.861 449.23s3.178-24.012 5.297-31.075c0 0-1.413-12.006 2.825-19.422s7.769-18.363 13.066-27.897 5.65-16.597 12.712-19.422 17.657-18.01 22.6-19.776 4.591-.353 4.591-.353 12.007-26.131 36.02-19.069c0 0-28.604-4.943-.707-21.54 0 0-8.475 1.942-2.648-10.418 3.886-8.242 3.001 3.708-16.42 24.543 0 0-8.829 15.184-18.01 20.481s-30.37 17.657-32.488 24.366-7.769 16.95-11.3 19.775-8.475 10.241-9.182 16.244c0 0-2.118 7.063-4.59 9.182s-2.825 7.768-2.825 11.3-3.532 8.475-3.179 12.712c0 0 1.413 33.548.707 37.079l3.531-6.71z" fill="#992600"/><path d="M112.676 457.352s-3.53-2.471-11.3 8.122c0 0 12.89 58.267 12.89 60.739 0 0 1.942-3.708-.354-16.42s-3.884-35.137-3.884-35.137l2.648-17.304z" fill="#FFF"/><path d="M150.814 350.354s-31.075 5.65-30.369 57.207l-1.412 43.788s-2.119-45.2-4.238-48.025 4.944-22.6-.706-12.007c0 0-24.72 24.72-10.594 62.151 0 0 2.649 5.827-2.648-2.295 0 0-8.122-22.247-6.18-33.548 0 0 .353-3.884 3.708-8.828 0 0 15.184-20.658 19.952-24.719 0 0 3.178-25.425 30.369-34.607 0 0 10.064-4.06 2.118.883z" fill="#992600"/><path d="M396.946 233.469c1.165-.626 1.149-2.338 2.173-2.644 2.029-.607 2.318-2.491 3.233-3.875 1.541-2.33 1.882-5.036 2.91-7.668.48-1.236.528-2.923-.025-4.088-2.073-4.38-3.312-8.705-5.858-12.988-.474-.795-.936-2.196-1.291-3.252-.818-2.444-3.037-4.194-4.555-6.524-.509-.779.418-2.412-.846-2.56-1.584-.186-4.142-1.21-4.554.602-1.038 4.567.747 9.022 2.456 13.334-1.38 1.222-.79 2.848-.522 4.202 1.253 6.367-.862 12.285-2.206 18.42-.04.183.564.532.514.642a67.633 67.633 0 0 1-7.933 13.263c-1.338 1.752-2.878 3.37-3.755 5.246-.65 1.39-1.37 3.095-.93 4.84-6.064 4.908-10.037 11.697-14.647 18.488-.816 1.2-.302 3.335.67 3.81 1.436.703 3.124-1.105 3.954-2.599.687-1.232 1.31-2.38 2.177-3.515.235-.31-.081-1.05.157-1.263 4.65-4.144 7.596-9.328 11.927-13.509 3.443-.58 6.157-2.343 9.243-4.131.544-.316 1.47.123 1.982-.221 3.095-2.078 3.091-5.673 3.278-9.045.089-1.561.435-3.887 2.448-4.965z" fill="#000"/><path d="M381.335 225.583c.22-.136-.054-.883.138-1.264.286-.572.998-.904 1.284-1.476.192-.382-.096-1.052.145-1.303 4.119-4.32 4.573-9.66 2.743-14.91 1.808-1.094 1.916-3.322 1.166-4.818-1.506-3.001-1.847-6.402-3.569-9.126-1.416-2.241-4.202-4.437-6.623-2.137-.743.706-1.31 2.096-.819 3.353.113.288.616.546.569.69-.19.573-1.153.968-1.164 1.448-.053 2.642-1.737 5.31-.625 7.656 1.363 2.876 2.81 6.155 4.003 9.291-2.179 3.736-.355 8.06-3.45 11.374-.24.258-.225.94-.01 1.296a6.105 6.105 0 0 0 2.091 2.09c.357.214.972.218 1.325 0 1.02-.64 1.723-1.5 2.796-2.164zM492.24 207.378c2.452 3.164 2.964 8.099-.654 10.553.971 5.842 6.888 2.348 10.592 1.412-.194-.685.212-1.292.706-1.3 1.872-.027 3.073-1.85 4.944-1.525.777-2.749 3.655-3.988 4.803-6.425 3.037-6.524 1.995-14.069-2.56-19.8-.354-.448.017-1.361-.195-2-1.342-3.904-4.979-4.46-8.404-5.675-2.077-6.842-3.244-13.96-6.355-20.482-2.85-.441-4.082-3.511-6.443-4.783-2.353-1.27-3.356 1.519-3.284 3.366.013.362.81.757.51 1.402-.134.29-.593.485-.593.722.002.238.392.47.629.706-1.621 1.448-4.134 2.29-4.654 4.312-1.685 6.55 2.858 12.068 5.803 17.72 1.044 2.004-.256 4.248-1.598 6.38-.773 1.228-.582 3.218-.095 4.73 1.328 4.115 4.137 7.185 6.847 10.687zM426.628 239.84c-2.626 3.269-8.65 7.805-3.5 11.21.343.227.996.234 1.302-.003 3.568-2.763 7.105-4.357 11.406-5.385.219-.051.702.773 1.354.49 2.848-1.242 6.397-1.14 8.487-3.502 6.652.395 12.946-1.575 18.933-3.885 2.05-.79 4.293-1.778 6.413-2.664 2.43-1.017 4.556-2.655 6.519-4.67.235-.24.86-.081 1.331-.081-.07-1.524 1.628-1.748 2.064-2.846.163-.41-.102-1.11.133-1.29 3.775-2.877 5.4-6.44 3.335-10.637-.503-1.02-.943-2.112-1.942-2.953-1.916-1.608-3.862-.1-5.71-.637-.281 1.109-1.568.805-2.25 1.155-1.516.775-3.87-.258-5.387.515-2.404 1.227-4.596 1.526-7.106 2.192-.551.144-1.925-.025-2.207 1.082-.237-.237-.498-.65-.686-.611-3.368.7-5.593 1.077-7.89 4.064-.182.235-.962-.08-1.243.158-1.69 1.426-2.405 3.605-4.349 4.792-.355.217-.976-.08-1.319.148-1.14.76-1.789 1.893-2.922 2.682-.581.404-1.287-.17-1.23-.622.432-3.437 1.585-6.593.57-9.905 3.667-4.45 8.11-7.89 11.3-12.713.026-3.824 1.248-7.613 1.048-11.28-.017-.341-.526-1.635-.748-2.248-.551-1.508 1.049-3.39-.442-4.668-2.479-2.124-4.76-.578-6.215 1.953-3.245.688-6.893 1.912-9.679-.267-1.778-1.39-2.798-2.99-4.21-4.854-1.738-2.299-1.147-4.834-1.023-7.596.01-.226-.546-.466-.546-.702.002-.239.39-.47.627-.707-1.247-1.105-1.732-2.973-3.531-3.531.538-1.928-.655-3.489-2.193-4.022-3.523-1.22-6.484 2.156-9.824 2.285-.908.033-1.732-1.8-2.878-2.373-.763-.382-2.006-.44-2.645.03-1.215.89-2.255 1.09-3.593 1.453-2.855.77-5.112 2.701-7.725 4.21-2.622 1.514-4.308 4.051-6.215 6.382-1.662 2.034-1.902 6.296.605 7.179 3.255 1.148 5.557-3.625 9.028-3.05.551.09.915.64.72 1.325.687.192 1.072-.212 1.413-.706 1.515 1.799 3.57 2.394 5.226 3.935 1.713 1.596 4.796.858 6.588 2.619 2.7 2.652 1.713 7.385 5.136 9.69-1.034 2.318-2.106 4.573-2.698 7.092-.498 2.13 1.258 4.243 3.396 4.082 2.22-.166 2.684-1.506 3.54-3.406.471.472 1.3.996 1.227 1.378-.807 4.214-2.62 7.733-3.429 12.026-.104.56-.643.916-1.33.722-.826 7.325-7.98 11.552-12.474 17.14-.711.887-.718 3.092.004 3.804 2.477 2.449 5.938-.281 8.94-1.17.375-2.128 1.892-3.792 4.244-3.693.452.018.867-.94 1.439-1.169.614-.243 1.5.152 2.006-.197 3.052-2.11 5.539-4.063 8.607-6.163.34-.23.947.05 1.328-.14.574-.287.904-.97 1.474-1.297.615-.353 1.042.16 1.383.654-1.14.616-1.148 2.305-2.175 2.662-1.369.473-2.36 1.38-3.55 2.168-.515.341-1.679-.097-1.862.22-1.056 1.814-3.147 2.588-4.4 4.147zM328.792 152.602s-16.311-5.071-36.02 40.257c0 0-4.237 9.181-8.475 12.712s-24.012 9.888-27.544 16.95l-18.363 28.25s26.132-28.25 31.782-32.487c0 0 14.125-14.831 8.475-2.825 0 0-24.719 19.069-22.6 35.313 0 0-9.888 25.425-11.3 28.956 0 0 28.25-56.5 32.488-58.619s6.356-2.119 4.237 4.238-2.825 35.312-7.769 38.844c0 0 14.126-36.02 12.713-41.67 0 0 5.65-6.356 9.888 2.826l-2.12 28.25 7.77 21.188s-4.238-19.776-1.413-47.32c0 0-3.531-18.362 3.532-8.475s24.012 20.482 24.012 28.957c0 0-9.181-31.076-25.425-39.55l-7.063 10.593-2.118-3.531s-6.357-1.413 1.412-13.419 7.063-13.419 7.063-13.419 11.3 12.713 14.125 12.713c0 0 23.306-13.42 25.425 29.663 0 0 12.007-25.426-4.237-37.432 0 0-26.132-3.531-24.013-12.713l12.713-21.894c6.356-9.181 3.53-4.237 3.53-4.237z" fill="#000"/><path d="M293.479 181.559l-28.25 9.18-12.713 16.951s30.369-17.656 37.431-19.775 3.532-6.356 3.532-6.356zM222.853 192.859s-3.531 2.118-4.238 7.062-4.944 5.65-3.531 10.594 4.944 9.181 4.944 2.119 2.825-10.594 4.237-12.713 4.238-9.887-1.412-7.062zM207.315 300.916s-14.831-7.062-20.481-13.419-4.852 2.765-13.42 2.12c-10.323-.78-8.474-28.958-8.474-28.958l-7.063 13.42s-2.119 25.425 12.006 21.187c6.899-2.07 9.182.706 6.357 2.119s9.887 2.119 4.944 4.944 20.481-6.357 16.243 12.006l9.888-13.419zM185.068 326.342s-27.191 7.768-33.547-9.182c0 0-8.475 4.238-4.591 9.535s6.003 6.003 6.003 6.003 9.535 2.119 8.475 3.531-5.297 7.416-5.297 7.416 18.01-10.594 28.957-17.303z" fill="#000"/><path d="M588.342 464.415c-.76 3.779-3.708 5.191-7.063 6.356-3.39-1.695-7.963-7.168-11.3-3.53-.83-.848-2.207-.954-2.825-2.12-.812-1.589-.336-3.425-.936-4.838-.971-2.26-2.207-4.66-1.89-7.168 3.197-1.254 4.238-4.626 3.408-7.734-.123-.459-.882-.794-.53-1.412.336-.583.884-.971 1.36-1.448-.23.247-.494.653-.688.618-1.077-.194-.865-1.324-.636-1.995 1.042-3.09 4.59-3.55 6.974-1.448.46-.989 1.36-.653 2.12-.706-.09-1.024.635-1.96.988-2.702.918-1.924 3.778.018 5.191-1.06 1.907-1.465 3.778-2.683 5.685-1.623 3.196 1.783 6.215 3.92 8.334 7.01 1.007 1.465 1.43 3.725 1.324 5.42-.07 1.147-2.507.512-3.107 2.154-1.148 3.09 2.101 4.008 3.425 6.374.353.618-.106 1.147-.67 1.324-.725.23-2.102-.106-1.872.689 1.73 5.632-3.143 6.833-7.292 7.84zM571.391 499.022c-.017-3.072-2.842-6.162-.706-9.182.247.248.477.636.706.636.248 0 .477-.388.707-.636 2.648 3.92 9.093 5.545 8.846 10.577-.053.794-1.96 2.419-.371 3.549-3.196 2.383-3.302 6.568-4.944 9.887-2.19-.494-4.326-1.148-6.356-2.119.618-2.613.423-5.597 1.871-7.927.76-1.236.247-3.143.247-4.785z" fill="#FFF"/><path d="M277.941 483.13s-29.765 17.905-4.944-9.18c15.538-16.95 33.194-26.838 33.194-26.838s18.363-7.77 24.72-9.888 33.194-11.3 38.844-12.006 22.6-7.77 34.606-.707 26.132 14.832 26.132 14.832-28.957-14.832-35.313-10.594-19.07 3.531-29.663 9.181c0 0-26.132 7.77-31.782 11.3s-24.012 24.013-26.837 22.6.706-2.118 2.825-7.062-1.413-7.769-15.538 3.531-16.244 14.832-16.244 14.832z" fill="#CCC"/><path d="M291.016 472.59s2.49-23.024 17.458-20.075c0 0 14.524-7.363 19.33-10.841 0 0 14.371-3.002 16.684-4.097 32.628-15.357 58.616-7.378 59.582-9.356.964-1.976 35.615 10.592 41.987 17.796.69.795-18.064-9.87-35.188-13.207-14.607-2.855-52.748.424-72.004 10.205-5.25 2.667-21.043 12.872-25.512 12.678s-22.337 16.897-22.337 16.897z" fill="#000"/><path d="M284.297 517.738s-26.838-4.238 2.825-7.063c0 0 31.782-3.531 38.845-12.713 0 0 24.012-16.244 28.956-16.95s57.913-13.419 58.62-17.656 10.593-4.238 13.419-2.825 1.412 3.53-3.532 4.943-60.032 30.37-71.332 32.488-31.782 15.538-40.257 17.657-27.544 2.119-27.544 2.119z" fill="#CCC"/><path d="M318.763 504.672s-15.153-1.466.033-2.896c0 0 15.566-6.056 19.182-10.753 0 0 12.296-8.316 14.826-8.687 2.532-.353 27.18-6.868 27.543-9.04s60.51-24.383 68.314-18.75c5.14 3.707-12.342.758-29.352 8.545-2.392 1.095-62.165 26.838-67.95 27.932-5.787 1.077-16.273 7.946-20.613 9.04-4.338 1.078-11.983 4.609-11.983 4.609zM304.779 508.556s9.181-.706 7.062 2.119-6.356 1.413-6.356 1.413l-.706-3.532zM292.066 511.381s9.181-.706 7.063 2.119-6.357 1.413-6.357 1.413l-.706-3.532zM273.703 514.206s9.182-.706 7.063 2.12-6.356 1.412-6.356 1.412l-.707-3.532zM260.285 515.619s9.18-.706 7.062 2.119-6.356 1.412-6.356 1.412l-.706-3.531zM328.085 445.7l5.65 2.824c-2.118 2.825-7.768 2.119-7.768 2.119l2.118-4.944zM310.429 455.587s11.487-3.779 7.062 2.119c-2.118 2.825-6.356 1.412-6.356 1.412l-.706-3.531zM290.654 464.062s9.181-.706 7.062 2.119-6.356 1.412-6.356 1.412l-.706-3.531zM277.235 474.656s9.181-.706 7.062 2.119-6.356 1.412-6.356 1.412l-.706-3.531zM265.228 483.13s9.182-.705 7.063 2.12-6.356 1.412-6.356 1.412l-.707-3.531z" fill="#000"/><path d="M334.233 494.431s12.22-.936 9.4 2.825c-2.82 3.743-8.46 1.872-8.46 1.872l-.94-4.697zM352.596 485.956s12.22-.936 9.4 2.825c-2.82 3.743-8.46 1.872-8.46 1.872l-.94-4.697zM371.665 478.187s12.22-.936 9.4 2.825c-2.82 3.743-8.46 1.872-8.46 1.872l-.94-4.697zM390.028 469.712s12.22-.936 9.4 2.825c-2.82 3.743-8.46 1.872-8.46 1.872l-.94-4.697zM341.296 437.93s12.22-.935 9.4 2.825c-2.82 3.744-9.873 3.285-9.873 3.285l.473-6.11zM358.952 432.28s12.22-.943 9.4 2.825c-2.82 3.744-10.58 3.284-10.58 3.284l1.18-6.109zM318.904 502.906s9.181-.706 7.063 2.119-6.357 1.412-6.357 1.412l-.706-3.53z" fill="#000"/><path d="M189.659 327.754s-7.77 15.538-8.475 21.188c0 0 1.412-15.538 3.53-19.07s4.945-2.118 4.945-2.118zM157.17 352.473s-5.65 25.425-4.943 30.37c0 0-2.119-20.482-1.413-22.601s6.357-7.769 6.357-7.769z" fill="#992600"/><path d="M193.896 220.756l-.353 5.65-3.884.353s25.072 22.247 26.131 35.666c0 0 1.413-14.478-21.894-41.67z" fill="#CCC"/><path d="M200.93 222.99c-.76-.735-.374-2.05-1.094-2.51-1.429-.91 2.292-1.011 1.89-2.275-.677-2.13-.347-2.167-.562-4.42-.101-1.056.937-3.775 1.617-4.552 2.553-2.917.215-8.093 3.111-10.832.537-.51 1.2-1.485 1.704-2.223 1.163-1.7 3.254-2.562 4.931-4.024.562-.487.207-1.947 1.212-1.785 1.26.203 3.451-.026 3.372 1.459-.2 3.743-2.546 6.78-4.806 9.725.796 1.243-.013 2.364-.514 3.347-2.357 4.626-2.023 9.643-2.33 14.657-.01.15-.552.288-.537.381a54.07 54.07 0 0 0 3.206 11.941c.646 1.643 1.478 3.223 1.743 4.86.196 1.21.378 2.682-.343 3.926 3.593 5.103 1.282 9.784 3.346 16.018.366 1.104 3.353 4.483 2.536 4.199-4.438-1.538-4.635-2.24-4.948-3.57-.258-1.1-.84-3.531-1.259-4.594-.113-.29-.415-3.616-.552-3.832-2.672-4.206-.274-3.895-2.693-8.058-2.521-1.2-4.227-3.15-6.21-5.202-.35-.36 1.669-1.638 1.35-2.014-1.929-2.276-3.965-3.63-3.371-6.267.273-1.218.515-3.084-.798-4.356zM194.602 226.053s.707 12.006 4.944 14.831 2.119 1.413-3.531-.706-3.531-3.531-3.531-3.531-4.944.706-.707 4.237 10.594 7.77 7.77 7.77-16.245-7.063-16.245-12.007-1.765-12.183-1.765-12.183 1.942-1.413 10.417-1.236c0 0 2.472 1.236 2.648 2.825z" fill="#000"/><path d="M193.19 258.894s-15.043-4.928-47.673 1.06c0 0 15.946-3.67 49.085.352 18.187 2.207-1.412-1.412-1.412-1.412z" stroke-width=".176565" stroke="#000" fill="#FFF"/><path d="M196.894 258.768s-14.56-6.211-47.586-3.066c0 0 16.205-2.276 48.872 4.596 17.928 3.771-1.286-1.53-1.286-1.53z" stroke-width=".176565" stroke="#000" fill="#FFF"/><path d="M200.051 258.933s-14.058-7.277-47.225-6.597c0 0 16.328-1.066 48.394 8.218 17.597 5.093-1.169-1.621-1.169-1.621z" stroke-width=".176565" stroke="#000" fill="#FFF"/><path d="M202.294 259.326s-12.05-7.604-41.843-9.543c0 0 14.724.3 42.764 11.087 15.39 5.92-.921-1.544-.921-1.544zM405.844 277.894s-1.642 1.137-1.264-.948c.38-2.085 50.185-25.339 56.566-24.898 0 0-53.407 23.318-55.302 25.846z" stroke-width=".176565" stroke="#000" fill="#FFF"/><path d="M399.852 279.022s-1.547 1.263-1.333-.846 48.04-29.202 54.435-29.262c0 0-51.41 27.44-53.102 30.108z" stroke-width=".176565" stroke="#000" fill="#FFF"/><path d="M394.05 281.45s-1.462 1.363-1.388-.756c.074-2.117 35.064-29.479 52.389-32.788 0 0-31.835 14.35-51.001 33.544z" stroke-width=".176565" stroke="#000" fill="#FFF"/><path d="M388.972 284.74s-1.316 1.225-1.248-.68c.067-1.907 31.555-26.533 47.148-29.51 0 0-28.65 12.914-45.9 30.19z" stroke-width=".176565" stroke="#000" fill="#FFF"/><path d="M333.03 545.988s-26.839-4.238 2.824-7.063c0 0 31.782-3.53 38.844-12.712 0 0 24.013-16.244 28.957-16.95s33.9-7.063 34.607-11.3 11.3-8.476 14.125-7.063 2.825 17.656-2.119 19.069-38.138 14.125-49.438 16.244-31.782 15.537-40.257 17.656-27.544 2.119-27.544 2.119z" fill="#CCC"/><path d="M461.921 479.953s-5.297 2.825-7.415 7.415c0 0-11.3 18.716-36.373 24.366 0 0-40.61 15.891-54.382 19.423 0 0-23.66 8.828-36.725 7.415 0 0-12.36.353-1.413 3.178 0 0 35.666-3.53 41.67-6.71 0 0 27.544-9.18 32.84-13.771s37.432-13.419 41.317-16.95 21.188-18.363 20.481-24.366z" fill="#000"/><path d="M358.246 535.588s9.233-.406 7.197 2.33-6.358 1.202-6.358 1.202l-.839-3.532zM345.53 537.972s9.23-.389 7.197 2.348c-2.036 2.737-6.358 1.183-6.358 1.183l-.84-3.531zM327.116 540.179s9.233-.406 7.197 2.33-6.358 1.201-6.358 1.201l-.839-3.531zM313.637 541.15s9.233-.406 7.197 2.33-6.358 1.184-6.358 1.184l-.839-3.514zM387.438 522.522s12.288-.53 9.578 3.108c-2.708 3.655-8.463 1.59-8.463 1.59l-1.115-4.698zM405.65 514.718s10.522-5.826 9.579 3.108c-.477 4.502-8.463 1.589-8.463 1.589l-1.116-4.697zM421.774 509.74s12.64-6.534 9.579 3.124c-1.374 4.309-8.465 1.59-8.465 1.59l-1.114-4.715zM438.572 501.229s7.697-8.652 9.579 3.107c.717 4.485-8.463 1.59-8.463 1.59l-1.116-4.697zM372.287 530.45s9.23-.406 7.196 2.33c-2.036 2.738-6.36 1.202-6.36 1.202l-.836-3.532z" fill="#000"/><path d="M435.144 316.106s-1.282 1.174-1.284-.717c0-1.889 30.87-25.309 46.484-27.752 0 0-28.425 11.88-45.2 28.47z" stroke-width=".176565" stroke="#000" fill="#FFF"/><path d="M440.38 428.749s38.846 39.55 55.09 45.907c0 0 16.243 19.775 9.18 65.682 0 0-5.648 13.419-11.298-23.307 0 0 5.65-44.494-14.126-16.244 0 0-14.833-17.48-3.533-16.95 0 0 5.652 3.531 6.358.706s-13.42-26.837-43.79-52.263 2.12-3.531 2.12-3.531z" fill="#000"/><path d="M337.267 497.256s-.353-3.178 2.825-1.766 169.502 12.36 225.296 54.735c0 0-79.805-40.963-228.121-52.969z" stroke-width=".176565" stroke="#000" fill="#FFF"/><path d="M355.63 489.487s-.354-3.178 2.824-1.765 244.366-.354 286.035 56.853c0 0-38.844-44.494-288.86-55.088z" stroke-width=".176565" stroke="#000" fill="#FFF"/><path d="M376.11 482.425s-.352-3.178 2.826-1.766 309.341-21.54 351.01 35.666c0 0-16.95-45.2-353.835-33.9zM393.767 473.95s-.353-3.179 2.825-1.766 218.94-66.742 260.61-9.535c0 0-23.66-43.434-263.435 11.3zM291.36 514.206s-.353-3.178 2.825-1.765 34.607 5.297 38.138 73.804c0 0-12.713-74.157-40.963-72.039z" stroke-width=".176565" stroke="#000" fill="#FFF"/><path d="M275.822 517.031s-.353-3.178 2.825-1.765 28.25-6.71 23.307 61.797c0 0 2.119-62.15-26.132-60.032z" stroke-width=".176565" stroke="#000" fill="#FFF"/><path d="M261.697 517.738s-.353-3.179 2.825-1.766 30.37 2.472 8.475 42.022c0 0 16.95-42.375-11.3-40.256zM345.258 439.449s-.784 3.531 1.951 1.395c28.37-22.297 85.652-126.297 183.98-136.245 0 0-67.645-21.382-185.922 134.85zM365.033 436.27s-2.406-2.1.892-3.195c3.298-1.113 201.83-129.122 271.203-115.057 0 0-47.867-13.26-272.086 118.253z" stroke-width=".176565" stroke="#000" fill="#FFF"/><path d="M328.235 447.059s-.898 2.825 2.123 1.094c15.846-9.04 22.23-110.054 99.17-112.27 0 0-57.226-25.98-101.293 111.176z" stroke-width=".176565" stroke="#000" fill="#FFF"/><path d="M293.058 466.516s-1.901 2.278 1.547 1.819c18.091-2.349 55.885-75.213 134.348-66.245 0 0-56.44-25.33-135.895 64.426z" stroke-width=".176565" stroke="#000" fill="#FFF"/><path d="M312.9 455.71s-1.431 2.596 1.869 1.484c17.301-5.774 40.403-84.548 119.13-90.811 0 0-60.255-14.025-120.998 89.327z" stroke-width=".176565" stroke="#000" fill="#FFF"/><path d="M280.628 475.556s-1.541 1.837 1.252 1.483c14.653-1.906 45.266-60.932 108.822-53.668 0 0-45.718-20.517-110.074 52.185z" stroke-width=".176565" stroke="#000" fill="#FFF"/><path d="M267.211 485.991s-1.774 1.854 1.035 1.642c7.359-.547 61.455-58.955 94.063-31.587 0 0-21.214-33.055-95.098 29.945zM389.98 429.628s-2.12-2.392 1.29-3.072c3.412-.678 216.522-102.579 283.546-79.862 0 0-45.801-19.2-284.834 82.934zM330.91 543.163s-.353-3.178 2.825-1.766 30.37 2.472 8.475 42.023c0 0 16.95-42.376-11.3-40.257zM349.273 540.338s-.353-3.178 2.825-1.766 34.607 5.297 38.138 73.804c0 0-12.713-74.157-40.963-72.038z" stroke-width=".176565" stroke="#000" fill="#FFF"/><path d="M361.28 537.513s-.354-3.178 2.825-1.766 46.613 7.416 88.282 64.623c0 0-62.857-64.976-91.108-62.857z" stroke-width=".176565" stroke="#000" fill="#FFF"/><path d="M374.743 533.929s-.772-3.108 2.565-2.12c3.337.972 39.416-2.383 106.682 57.967 0 0-81.529-61.692-109.247-55.847zM393.105 526.16s-.771-3.108 2.566-2.12c3.337.972 64.841 8.917 156.122 70.68 0 0-130.969-74.405-158.688-68.56z" stroke-width=".176565" stroke="#000" fill="#FFF"/><path d="M321.729 505.731s-.353-3.178 2.825-1.765 97.464 6.003 151.14 53.322c0 0-61.623-43.735-153.965-51.557zM304.073 512.794s-.354-3.178 2.825-1.766 46.613 7.416 88.282 64.623c0 0-62.857-64.976-91.107-62.857zM412.312 518.02s-.998-3.037 2.403-2.295c3.4.724 65.322 4.131 160.879 59.043 0 0-137.126-60.738-163.282-56.748z" stroke-width=".176565" stroke="#000" fill="#FFF"/><path d="M427.143 513.783s-.997-3.037 2.403-2.296c3.401.724 65.322 4.132 160.88 59.043 0 0-136.067-61.444-163.283-56.747zM444.094 504.954s-.998-3.037 2.403-2.295c3.4.724 79.447 8.37 237.867 68.93 0 0-213.042-71.331-240.269-66.635z" stroke-width=".176565" stroke="#000" fill="#FFF"/><path d="M247.572 517.031s9.181-.706 7.062 2.12-6.356 1.412-6.356 1.412l-.706-3.532zM301.954 541.75s9.181-.706 7.062 2.12-6.356 1.412-6.356 1.412l-.706-3.532zM286.416 541.044s9.181-.706 7.063 2.119-6.357 1.412-6.357 1.412l-.706-3.53zM118.026 520.174s8.917 2.33 5.986 4.308-6.48-.741-6.48-.741l.494-3.567zM121.558 503.224s8.916 2.33 5.985 4.308-6.48-.741-6.48-.741l.495-3.567zM108.845 495.455s8.917 2.33 5.986 4.308-6.48-.741-6.48-.741l.494-3.567z" fill="#000"/><path d="M249.69 627.914l-9.887 3.531c-3.531 0-23.307 6.357-33.194 24.013 0 0 21.894-16.95 43.082-27.544zM404.566 791.501c.249.441.346 1.183.862 1.218 1.161.071 3.339.6 3.118-.512-1.497-7.61-3.04-16.332-10.338-19.51-1.128-.494-3.674.23-3.805 1.8-.224 2.685-.43 5.068.115 7.646.53 2.525 4.34 2.525 5.959.088 1.652 2.949 2.415 6.215 4.09 9.27zM385.006 799.853c1.32 2.49 1.097 5.773 3.595 6.78 1.307.512 4.573-1.201 3.835-3.108-1.416-3.637-2.101-7.592-4.554-10.788-.353-.46.071-1.395-.211-1.978-1.05-2.154-3.07-3.46-5.557-2.878-1.969 3.885.058 7.646 2.746 10.665.24.265-.053.936.146 1.307zM315.083 790.689c-.19-.671-.258-1.483.034-2.048.937-1.819 2.337-3.796 1.742-5.615-.614-1.854-2.585-1.536-3.732-.53-2.004 1.748-2.09 4.98-3.31 7.38-.347.672-.257 1.696-1.035 2.384-.837.742-1.614 3.426-1.445 4.432.094.565-.23 18.045.163 17.586 1.093-1.289 6.478-18.486 6.6-20.058.1-1.289 1.393-2.101.983-3.531zM269.815 778.7c4.651-4.414 9.577-9.64 8.797-16.19-.205-1.731-3.339-.795-3.67.688-1.415 6.409-5.015 11.106-9.55 15.326-3.877 3.62-7.164 14.813-7.58 15.714 6.528-9.287 10.513-14.125 12.003-15.538zM245.849 768.177c.923-.671.39-1.536.773-2.119 1.683-2.578 3.98-4.767 4.011-7.84.006-.494-.662-1.041-1.253-.635-.49.318-1.093.547-1.284.777-3.584 4.326-6.056 9.04-8.604 14.001-.323.636-2.343 8.564-1.79 8.758.422.159 3.459-7.221 3.83-7.433 2.23-1.201 2.25-4.061 4.317-5.51zM275.393 802.678c.784-1.537 3.567-3.655 3.367-5.227-.208-1.642.618-4.184-.992-2.966-2.22 1.66-8.31 4.043-8.786 14.302-.046 1.006 5.205-3.743 6.411-6.11zM300.894 772.344c.707-1.183 1.957-.336 2.767-.812 1.144-.654 2.223-1.642 2.739-2.79 1.712-3.779 4.836-6.992 5.088-11.23-2.632-2.472-3.831 1.13-4.944 2.825-2.336-2.913-4.1.406-6.395 1.325-.123.053-.5-.565-.632-.512-2.078.776-3.279 2.683-5.04 4.06-.303.23-1.018-.088-1.277.16-1.152 1.059-2.87 1.642-3.364 2.842-1.96 4.767-7.504 8.475-10.836 21.788.673 1.607 7.967-11.724 8.827-12.96 1.476-2.118 1.684 2.931 3.937 1.766.09-.053.419.37.655.6.343-.494.728-.9 1.413-.706 0-.706-.237-1.695.118-1.96 2.184-1.73 2.036-3.62 3.413-5.809.809 1.395 2.682.124 3.531 1.413zM406.48 868.395s13.066-36.02 5.297-55.794c0 0 20.128 38.137 12.006 57.913 0 0-.706-18.363-7.768-27.191 0 0-7.063 22.6-9.535 25.072zM380.348 863.804s9.535-15.537-4.59-48.025c0 0-1.413 36.019-13.42 55.441 0 0 25.073-35.666 18.01-7.416zM362.692 860.273s-.353-35.313.353-40.61c0 0-6.71 29.31-24.719 46.26 0 0 25.425-21.188 24.366-5.65zM345.742 803.772s10.594 24.013-7.063 56.501c0 0 11.3-21.54 2.825-33.9 0 0 4.59-6.004 4.238-22.6zM311.841 859.567s-1.765-27.544 1.413-31.429c0 0 .353-11.3-.353-13.066 0 0 7.062-10.947 7.415 2.12 0 0 2.472 13.771 7.416 21.893 0 0 6.357 9.535 6.003 20.835 0 0-17.656-53.323-21.894-.353zM305.485 810.835s-11.653 19.069-14.831 52.616c0 0-2.472-10.947 4.237-36.372 0 0 7.416-27.191 10.594-16.244zM266.994 845.795s8.828-9.535 11.3-18.363c0 0 6.356-27.897-4.944-12.713 0 0 .353 14.125-14.125 27.191 0 0 8.475-4.237 7.769 3.885zM256.753 836.966s6.003-30.722 7.416-32.134c0 0 3.178-6.004-1.766-.353 0 0-15.537 33.9-22.6 45.553 0 0 14.125-16.244 16.95-13.066zM246.512 807.657s20.482-39.55-18.01 6.003c0 0 19.423-17.303 18.01-6.003zM219.322 781.878s8.475-33.194 13.065-32.84l2.825 2.824s-10.594 16.95-9.534 34.254c0 0-1.06-16.95-6.356-4.238zM802.514 761.75s-21.187-17.657-25.601-23.836c0 0 23.836 32.664 23.836 45.024 0 0 4.414-13.243 1.765-21.188zM812.226 722.906s-37.079-26.485-43.259-39.727c0 0 46.79 52.086 46.79 60.032 0 0 .883-15.891-3.531-20.305zM842.242 450.996s-21.188-14.125-23.837-10.594c0 0 18.54 11.477 22.954 26.485 0 0-2.649-15.89.883-15.89zM857.25 593.13l-30.9-21.187s33.548 30.016 34.43 37.079l-3.53-15.891z" fill="#CCC"/><path d="M167.323 553.404l38.844 8.386M256.047 839.438s-.883-6.18-16.774 12.36M265.758 848.267s3.531-11.477-7.945-3.532M361.103 863.275s2.648-19.423-17.657 3.53" stroke="#000" stroke-width="1.76565"/></g></svg>