<?xml version="1.0" encoding="UTF-8" standalone="no"?>
<svg
   xmlns:dc="http://purl.org/dc/elements/1.1/"
   xmlns:cc="http://creativecommons.org/ns#"
   xmlns:rdf="http://www.w3.org/1999/02/22-rdf-syntax-ns#"
   xmlns:svg="http://www.w3.org/2000/svg"
   xmlns="http://www.w3.org/2000/svg"
   xmlns:sodipodi="http://sodipodi.sourceforge.net/DTD/sodipodi-0.dtd"
   xmlns:inkscape="http://www.inkscape.org/namespaces/inkscape"
   version="1.0"
   width="38.000000pt"
   height="38.000000pt"
   viewBox="0 0 172.000000 172.000000"
   preserveAspectRatio="xMidYMid meet"
   id="svg3773"
   sodipodi:docname="logo.svg"
   inkscape:version="0.92.3 (2405546, 2018-03-11)">
  <defs
     id="defs3777" />
  <sodipodi:namedview
     pagecolor="#ffffff"
     bordercolor="#666666"
     borderopacity="1"
     objecttolerance="10"
     gridtolerance="10"
     guidetolerance="10"
     inkscape:pageopacity="0"
     inkscape:pageshadow="2"
     inkscape:window-width="1920"
     inkscape:window-height="1001"
     id="namedview3775"
     showgrid="false"
     inkscape:zoom="4.6578947"
     inkscape:cx="25.333333"
     inkscape:cy="25.333333"
     inkscape:window-x="-9"
     inkscape:window-y="-9"
     inkscape:window-maximized="1"
     inkscape:current-layer="svg3773" />
  <metadata
     id="metadata3763">
Created by Docfx
<rdf:RDF>
  <cc:Work
     rdf:about="">
    <dc:format>image/svg+xml</dc:format>
    <dc:type
       rdf:resource="http://purl.org/dc/dcmitype/StillImage" />
    <dc:title></dc:title>
  </cc:Work>
</rdf:RDF>
</metadata>
  <g
     id="g35"
     transform="matrix(0.12945551,0,0,0.12945551,12.983192,17.762129)">
    <path
       d="m 1066.847,821.27 c 0,118.361 -95.928,214.289 -214.287,214.289 H 281.134 C 162.773,1035.559 66.846,939.631 66.846,821.27 V 249.836 C 66.846,131.5 162.773,35.549 281.134,35.549 H 852.56 c 118.359,0 214.287,95.951 214.287,214.287 z"
       id="path27"
       inkscape:connector-curvature="0"
       style="fill:#7a14dd" />
    <g
       id="g33">
      <path
         d="m 565.909,482.04 c -65.334,0 -118.293,52.964 -118.293,118.286 0,49.564 30.476,91.98 73.714,109.596 l 44.579,132.605 44.584,-132.605 c 43.225,-17.615 73.712,-60.031 73.712,-109.596 0,-65.322 -52.97,-118.286 -118.296,-118.286 z m 0,188.47 c -38.757,0 -70.183,-31.432 -70.183,-70.184 0,-38.75 31.426,-70.176 70.183,-70.176 38.761,0 70.181,31.426 70.181,70.176 0,38.752 -31.42,70.184 -70.181,70.184 z"
         id="path29"
         inkscape:connector-curvature="0"
         style="fill:#ffffff" />
      <path
         d="M 558.162,436.657 246.974,231.68 v 610.847 h 145.508 l 0.602,-303.021 39.676,30.234 c 13.895,-60.725 68.215,-106.046 133.15,-106.046 62.458,0 115.062,41.901 131.364,99.12 l 38.482,-28.362 v 307.622 l 150.969,0.318 V 228.591 Z"
         id="path31"
         inkscape:connector-curvature="0"
         style="fill:#ffffff" />
    </g>
  </g>
</svg>
