<?xml version="1.0" encoding="utf-8"?>
<!-- Generator: Adobe Illustrator 16.0.0, SVG Export Plug-In . SVG Version: 6.00 Build 0)  -->
<!DOCTYPE svg PUBLIC "-//W3C//DTD SVG 1.1//EN" "http://www.w3.org/Graphics/SVG/1.1/DTD/svg11.dtd">
<svg version="1.1" id="Layer_1" xmlns="http://www.w3.org/2000/svg" xmlns:xlink="http://www.w3.org/1999/xlink" x="0px" y="0px"
	 width="1887.189px" height="720.072px" viewBox="0 0 1887.189 720.072" enable-background="new 0 0 1887.189 720.072"
	 xml:space="preserve">
<g>
	<g>
		<path fill="#7A14DD" d="M663.249,539.972c0,76.404-61.923,138.327-138.328,138.327H156.05
			c-76.405,0-138.328-61.923-138.328-138.327V171.101c0-76.389,61.923-138.328,138.328-138.328H524.92
			c76.405,0,138.328,61.939,138.328,138.328V539.972z"/>
		<g>
			<path fill="#FFFFFF" d="M339.88,320.994c-42.175,0-76.361,34.19-76.361,76.353c0,31.994,19.673,59.375,47.584,70.747l28.777,85.6
				l28.777-85.6c27.907-11.372,47.583-38.753,47.583-70.747C416.241,355.184,382.051,320.994,339.88,320.994z M339.88,442.651
				c-25.019,0-45.305-20.29-45.305-45.305s20.286-45.296,45.305-45.296c25.022,0,45.301,20.282,45.301,45.296
				S364.902,442.651,339.88,442.651z"/>
			<path fill="#FFFFFF" d="M334.878,291.698L133.999,159.381v394.313h93.929l0.388-195.605l25.612,19.515
				c8.97-39.195,44.035-68.451,85.952-68.451c40.315,0,74.276,27.048,84.797,63.98l24.84-18.304V553.4l97.455,0.206v-396.22
				L334.878,291.698z"/>
		</g>
	</g>
	<g>
		<path fill="#7A14DD" d="M990.775,220.544v269.865l-70.557-0.193V364.49l-55.933,53.468l-51.976-51.41l-0.19,123.861H742.68
			V220.544l121.606,103.971L990.775,220.544z"/>
		<path fill="#7A14DD" d="M1160.61,484.585c-4.008,1.757-6.947,2.952-8.815,3.577c-13.267,5.12-27.151,7.695-41.66,7.695
			c-19.146,0-37.229-4.451-54.239-13.342c-17.014-9.006-30.522-21.26-40.537-36.773c-10.141-15.768-15.201-33.336-15.201-52.74
			c0-14.632,2.94-28.271,8.819-40.896c5.876-12.523,13.952-23.408,24.212-32.655c10.133-9.259,21.889-16.333,35.277-21.216
			c13.378-5.12,27.278-7.696,41.669-7.696c14.256,0,28.148,2.517,41.66,7.518c13.513,5.001,25.269,12.135,35.278,21.394
			c10.514,9.5,18.641,20.385,24.397,32.655c5.872,12.626,8.812,26.265,8.812,40.896l-0.178,97.779l-59.494-0.565V484.585z
			 M1066.962,368.795c-4.63,7.399-6.944,15.455-6.944,24.207c0,13.268,5.01,24.719,15.023,34.353
			c9.881,9.513,21.58,14.265,35.093,14.265c13.631,0,25.387-4.752,35.278-14.265c10.007-9.634,15.012-21.085,15.012-34.353
			c0-8.752-2.318-16.808-6.94-24.207c-4.629-7.371-10.825-13.251-18.58-17.627c-7.641-4.262-15.887-6.39-24.77-6.39
			c-8.634,0-16.832,2.128-24.595,6.39C1077.78,355.544,1071.595,361.424,1066.962,368.795z"/>
		<path fill="#7A14DD" d="M1229.671,392.259c0.126-19.146,5.188-36.343,15.193-51.604c10.015-15.633,23.527-27.903,40.545-36.778
			c17.011-9.021,35.093-13.516,54.231-13.516c14.636,0,28.527,2.56,41.66,7.696c13.014,4.748,24.837,11.941,35.465,21.576
			c10.513,9.63,18.651,20.65,24.404,33.023c5.746,12.388,8.63,26.023,8.63,40.913c0,14.518-2.943,28.097-8.823,40.723
			c-5.745,12.523-13.825,23.468-24.211,32.845c-10.383,9.5-22.197,16.706-35.465,21.592c-13.394,4.883-27.27,7.309-41.66,7.309
			c-14.138,0-27.967-2.426-41.471-7.309l-4.32-1.891l-4.317-1.864v79.198l-59.861-0.194V392.259z M1289.533,393.568
			c0,8.891,2.314,16.899,6.948,24.033c4.629,7.371,10.813,13.251,18.572,17.627c7.637,4.393,15.835,6.584,24.588,6.584
			c8.764,0,17.014-2.191,24.777-6.584c7.755-4.376,13.943-10.256,18.58-17.627c4.622-7.265,6.94-15.262,6.94-24.033
			c0-13.251-5.005-24.773-15.016-34.526c-9.888-9.635-21.644-14.458-35.282-14.458c-13.513,0-25.205,4.823-35.085,14.458
			C1294.534,368.677,1289.533,380.187,1289.533,393.568z"/>
		<path fill="#7A14DD" d="M1489.597,429.796c11.874,11.882,26.392,17.821,43.536,17.821c17.889,0,26.839-5.254,26.839-15.752
			c0-5.508-4.946-9.575-14.83-12.21c-7.008-1.622-18.142-4.436-33.403-8.44c-12.38-3.248-22.842-9.262-31.341-18.019
			c-8.393-8.634-12.582-21.885-12.582-39.797c0-13.742,3.446-25.386,10.331-34.898c6.999-9.5,16.072-16.516,27.202-21.01
			c11.392-4.629,23.848-6.952,37.359-6.952c7.621,0,15.38,1.073,23.262,3.185c8.511,2.636,16.14,5.896,22.894,9.77
			c7.384,4.123,13.893,8.752,19.519,13.888l-33.022,32.849c-9.635-7.269-20.147-10.885-31.535-10.885
			c-13.639,0-20.453,3.81-20.453,11.435c0,6.893,5.058,11.716,15.202,14.458c11.131,2.991,22.336,5.82,33.593,8.439
			c12.377,3.126,22.704,8.891,30.97,17.256c8.372,8.519,12.566,21.904,12.566,40.172c0,13.64-3.628,25.402-10.885,35.271
			c-7.253,10.022-16.951,17.466-29.086,22.352c-12.144,5.12-24.71,7.696-37.724,7.696c-10.881,0-20.71-0.879-29.458-2.636
			c-8.769-1.638-16.959-4.376-24.587-8.261c-7.878-3.874-16.147-9.069-24.777-15.574L1489.597,429.796z"/>
		<path fill="#7A14DD" d="M1708.037,441.619h3.38c15.261-0.507,22.89-11.079,22.89-31.718V298.057h60.055v111.845
			c0,54.421-27.653,83.128-82.944,86.135h-3.38c-55.299-3.007-82.957-31.714-82.957-86.135V298.057h60.063v111.845
			C1685.143,430.54,1692.768,441.112,1708.037,441.619z"/>
		<path fill="#7A14DD" d="M1861.922,259.775c-2.754,4.617-6.509,8.368-11.257,11.257c-4.756,2.873-10.022,4.305-15.768,4.305
			c-5.753,0-10.944-1.369-15.573-4.127c-4.757-2.873-8.52-6.683-11.266-11.435c-2.872-5.001-4.309-10.331-4.309-15.958
			c0-5.749,1.369-11.003,4.123-15.768c2.999-4.886,6.813-8.697,11.451-11.451c4.629-2.754,9.82-4.127,15.573-4.127
			c5.745,0,11.012,1.373,15.768,4.127c4.621,2.754,8.377,6.564,11.257,11.451c2.746,4.764,4.123,10.019,4.123,15.768
			C1866.045,249.832,1864.668,255.146,1861.922,259.775z M1865.86,298.234v192.354h-59.862V298.429L1865.86,298.234z"/>
	</g>
</g>
</svg>
