<?xml version="1.0" encoding="utf-8"?>
<!-- Generator: Adobe Illustrator 16.0.0, SVG Export Plug-In . SVG Version: 6.00 Build 0)  -->
<!DOCTYPE svg PUBLIC "-//W3C//DTD SVG 1.1//EN" "http://www.w3.org/Graphics/SVG/1.1/DTD/svg11.dtd">
<svg version="1.1" id="Layer_1" xmlns="http://www.w3.org/2000/svg" xmlns:xlink="http://www.w3.org/1999/xlink" x="0px" y="0px"
	 width="1650.165px" height="720.072px" viewBox="0 0 1650.165 720.072" enable-background="new 0 0 1650.165 720.072"
	 xml:space="preserve">
<g>
	<path fill="#7A14DD" d="M365.907,269.697c-63.401,0-114.8,51.399-114.8,114.782c0,48.096,29.573,89.26,71.537,106.352
		l43.264,128.691l43.268-128.691c41.951-17.092,71.532-58.256,71.532-106.352C480.707,321.096,429.303,269.697,365.907,269.697z
		 M365.907,452.592c-37.618,0-68.11-30.506-68.11-68.113c0-37.6,30.492-68.096,68.11-68.096s68.102,30.497,68.102,68.096
		C434.008,422.086,403.525,452.592,365.907,452.592z"/>
	<path fill="#7A14DD" d="M793.259,606.666c-4.508,1.975-7.819,3.318-9.932,4.02c-14.945,5.783-30.608,8.666-46.955,8.666
		c-21.566,0-41.951-4.996-61.122-15.014c-19.179-10.154-34.406-23.969-45.689-41.445c-11.42-17.777-17.117-37.58-17.117-59.428
		c0-16.502,3.311-31.873,9.932-46.107c6.621-14.098,15.723-26.375,27.28-36.803c11.429-10.428,24.671-18.391,39.77-23.9
		c15.073-5.785,30.736-8.676,46.947-8.676c16.073,0,31.72,2.822,46.955,8.471c15.227,5.629,28.469,13.678,39.752,24.105
		c11.848,10.719,21.019,22.979,27.494,36.803c6.638,14.234,9.949,29.605,9.949,46.107l-0.214,110.182l-67.049-0.635V606.666z
		 M687.732,476.176c-5.227,8.324-7.836,17.408-7.836,27.289c0,14.936,5.646,27.844,16.929,38.699
		c11.129,10.711,24.312,16.066,39.547,16.066c15.372,0,28.614-5.355,39.761-16.066c11.274-10.855,16.92-23.764,16.92-38.699
		c0-9.881-2.618-18.965-7.827-27.289c-5.218-8.314-12.199-14.936-20.933-19.881c-8.606-4.789-17.921-7.193-27.921-7.193
		c-9.735,0-18.965,2.404-27.699,7.193C699.922,461.24,692.941,467.861,687.732,476.176z"/>
	<path fill="#7A14DD" d="M612.017,572.602c-13.302-20.686-19.932-43.738-19.932-69.172c0-19.213,3.85-37.1,11.566-53.67
		c7.699-16.424,18.306-30.709,31.762-42.857c12.13-11.078,26.134-19.646,41.831-25.947V23.74L358.383,225.654L56.396,26.743v592.779
		h141.203l0.59-294.059l38.495,29.35c13.49-58.935,66.202-102.917,129.223-102.917c60.6,0,111.652,40.672,127.478,96.181
		l37.34-27.515v298.517l131.824,0.273C641.487,607.674,624.609,592.131,612.017,572.602z"/>
	<path fill="#7A14DD" d="M871.096,502.609c0.137-21.566,5.851-40.949,17.125-58.162c11.283-17.613,26.511-31.428,45.689-41.445
		c19.17-10.154,39.556-15.225,61.121-15.225c16.493,0,32.139,2.891,46.955,8.672c14.654,5.355,27.981,13.457,39.975,24.313
		c11.831,10.855,21.001,23.275,27.494,37.229c6.474,13.951,9.725,29.332,9.725,46.1c0,16.355-3.319,31.66-9.947,45.895
		c-6.484,14.105-15.586,26.441-27.271,37.006c-11.711,10.727-25.038,18.828-39.975,24.328c-15.09,5.5-30.753,8.246-46.955,8.246
		c-15.937,0-31.515-2.746-46.741-8.246l-4.867-2.113l-4.868-2.111v89.238l-67.459-0.205V502.609z M938.555,504.09
		c0,10.018,2.609,19.033,7.828,27.074c5.218,8.324,12.198,14.953,20.94,19.881c8.598,4.936,17.828,7.408,27.708,7.408
		c9.872,0,19.171-2.473,27.913-7.408c8.742-4.928,15.715-11.557,20.941-19.881c5.209-8.17,7.827-17.203,7.827-27.074
		c0-14.938-5.646-27.914-16.921-38.906c-11.146-10.855-24.389-16.295-39.761-16.295c-15.235,0-28.418,5.439-39.547,16.295
		C944.202,476.039,938.555,489.008,938.555,504.09z"/>
	<path fill="#7A14DD" d="M1164.013,544.91c13.396,13.396,29.744,20.104,49.068,20.104c20.163,0,30.239-5.928,30.239-17.785
		c0-6.184-5.568-10.777-16.706-13.746c-7.896-1.822-20.445-4.996-37.648-9.514c-13.961-3.668-25.731-10.418-35.321-20.299
		c-9.443-9.727-14.166-24.67-14.166-44.834c0-15.518,3.875-28.623,11.626-39.342c7.904-10.709,18.127-18.613,30.667-23.678
		c12.832-5.217,26.861-7.838,42.088-7.838c8.605,0,17.349,1.211,26.228,3.604c9.59,2.951,18.195,6.621,25.81,10.992
		c8.306,4.654,15.646,9.881,21.993,15.654l-37.221,37.006c-10.855-8.168-22.703-12.266-35.526-12.266
		c-15.381,0-23.063,4.303-23.063,12.908c0,7.75,5.714,13.182,17.135,16.287c12.549,3.379,25.158,6.553,37.853,9.512
		c13.961,3.525,25.595,10.01,34.894,19.453c9.444,9.598,14.166,24.672,14.166,45.254c0,15.371-4.089,28.639-12.25,39.77
		c-8.195,11.291-19.119,19.666-32.789,25.166c-13.678,5.783-27.844,8.684-42.507,8.684c-12.267,0-23.336-1.002-33.208-2.969
		c-9.88-1.83-19.11-4.936-27.716-9.299c-8.88-4.371-18.179-10.23-27.913-17.563L1164.013,544.91z"/>
	<path fill="#7A14DD" d="M1410.183,558.23h3.815c17.186-0.557,25.8-12.48,25.8-35.74V396.449h67.666V522.49
		c0,61.334-31.146,93.695-93.466,97.074h-3.815c-62.31-3.379-93.474-35.74-93.474-97.074V396.449h67.683V522.49
		C1384.392,545.75,1392.981,557.674,1410.183,558.23z"/>
	<path fill="#7A14DD" d="M1583.616,353.299c-3.114,5.227-7.331,9.448-12.695,12.695c-5.354,3.236-11.274,4.857-17.768,4.857
		c-6.476,0-12.335-1.553-17.545-4.648c-5.372-3.234-9.589-7.537-12.694-12.904c-3.242-5.633-4.867-11.621-4.867-17.977
		c0-6.48,1.557-12.404,4.662-17.759c3.387-5.504,7.673-9.803,12.899-12.904c5.21-3.101,11.069-4.658,17.545-4.658
		c6.493,0,12.413,1.557,17.768,4.658c5.219,3.101,9.453,7.4,12.695,12.904c3.097,5.355,4.653,11.279,4.653,17.759
		C1588.269,342.097,1586.712,348.09,1583.616,353.299z M1588.046,396.654v216.785h-67.451v-216.57L1588.046,396.654z"/>
</g>
</svg>
