<?xml version="1.0" encoding="utf-8"?>
<!-- Generator: Adobe Illustrator 16.0.0, SVG Export Plug-In . SVG Version: 6.00 Build 0)  -->
<!DOCTYPE svg PUBLIC "-//W3C//DTD SVG 1.1//EN" "http://www.w3.org/Graphics/SVG/1.1/DTD/svg11.dtd">
<svg version="1.1" id="Layer_1" xmlns="http://www.w3.org/2000/svg" xmlns:xlink="http://www.w3.org/1999/xlink" x="0px" y="0px"
	 width="1133.692px" height="1071.107px" viewBox="0 0 1133.692 1071.107" enable-background="new 0 0 1133.692 1071.107"
	 xml:space="preserve">
<g>
	<path fill="#7A14DD" d="M1066.847,821.27c0,118.361-95.928,214.289-214.287,214.289H281.134
		c-118.361,0-214.288-95.928-214.288-214.289V249.836c0-118.336,95.927-214.287,214.288-214.287H852.56
		c118.359,0,214.287,95.951,214.287,214.287V821.27z"/>
	<g>
		<path fill="#FFFFFF" d="M565.909,482.04c-65.334,0-118.293,52.964-118.293,118.286c0,49.564,30.476,91.98,73.714,109.596
			l44.579,132.605l44.584-132.605c43.225-17.615,73.712-60.031,73.712-109.596C684.205,535.004,631.235,482.04,565.909,482.04z
			 M565.909,670.51c-38.757,0-70.183-31.432-70.183-70.184c0-38.75,31.426-70.176,70.183-70.176
			c38.761,0,70.181,31.426,70.181,70.176C636.09,639.078,604.67,670.51,565.909,670.51z"/>
		<path fill="#FFFFFF" d="M558.162,436.657L246.974,231.68v610.847h145.508l0.602-303.021l39.676,30.234
			c13.895-60.725,68.215-106.046,133.15-106.046c62.458,0,115.062,41.901,131.364,99.12l38.482-28.362v307.622l150.969,0.318
			V228.591L558.162,436.657z"/>
	</g>
</g>
</svg>
