<?xml version="1.0" encoding="utf-8"?>
<!-- Generator: Adobe Illustrator 16.0.0, SVG Export Plug-In . SVG Version: 6.00 Build 0)  -->
<!DOCTYPE svg PUBLIC "-//W3C//DTD SVG 1.1//EN" "http://www.w3.org/Graphics/SVG/1.1/DTD/svg11.dtd">
<svg version="1.1" id="Layer_1" xmlns="http://www.w3.org/2000/svg" xmlns:xlink="http://www.w3.org/1999/xlink" x="0px" y="0px"
	 width="1133.692px" height="1071.107px" viewBox="0 0 1133.692 1071.107" enable-background="new 0 0 1133.692 1071.107"
	 xml:space="preserve">
<g>
	<path fill="#7A14DD" d="M565.42,454.195c-99.325,0-179.837,80.521-179.837,179.827c0,75.352,46.332,139.835,112.065,166.615
		l67.772,201.597l67.78-201.597c65.713-26.78,112.062-91.264,112.062-166.615C745.262,534.716,664.733,454.195,565.42,454.195z
		 M565.42,740.721c-58.921,0-106.696-47.784-106.696-106.698c0-58.91,47.775-106.686,106.696-106.686
		c58.927,0,106.694,47.776,106.694,106.686C672.114,692.937,624.347,740.721,565.42,740.721z"/>
	<path fill="#7A14DD" d="M553.643,385.201L80.551,73.58v928.654h221.211l0.915-460.674l60.318,45.963
		C384.119,495.206,466.7,426.305,565.42,426.305c94.953,0,174.925,63.701,199.71,150.689l58.504-43.117v467.669l229.513,0.483
		V68.884L553.643,385.201z"/>
</g>
</svg>
