<?xml version="1.0" encoding="utf-8"?>
<!-- Generator: Adobe Illustrator 16.0.0, SVG Export Plug-In . SVG Version: 6.00 Build 0)  -->
<!DOCTYPE svg PUBLIC "-//W3C//DTD SVG 1.1//EN" "http://www.w3.org/Graphics/SVG/1.1/DTD/svg11.dtd">
<svg version="1.1" id="Layer_1" xmlns="http://www.w3.org/2000/svg" xmlns:xlink="http://www.w3.org/1999/xlink" x="0px" y="0px"
	 width="895.066px" height="743.568px" viewBox="0 0 895.066 743.568" enable-background="new 0 0 895.066 743.568"
	 xml:space="preserve">
<g>
	<g>
		<path fill="#7A14DD" d="M217.11,171.337c0,18.857-15.283,34.141-34.141,34.141H91.928c-18.857,0-34.141-15.283-34.141-34.141
			V80.296c0-18.854,15.283-34.141,34.141-34.141h91.041c18.857,0,34.141,15.287,34.141,34.141V171.337z"/>
		<g>
			<path fill="#FFFFFF" d="M137.299,117.291c-10.409,0-18.847,8.438-18.847,18.845c0,7.896,4.855,14.654,11.744,17.461l7.103,21.127
				l7.103-21.127c6.888-2.807,11.744-9.564,11.744-17.461C156.146,125.729,147.708,117.291,137.299,117.291z M137.299,147.318
				c-6.175,0-11.182-5.008-11.182-11.182s5.007-11.18,11.182-11.18c6.176,0,11.181,5.006,11.181,11.18
				S143.475,147.318,137.299,147.318z"/>
			<path fill="#FFFFFF" d="M136.065,110.061L86.486,77.403v97.321h23.183l0.096-48.277l6.321,4.816
				c2.214-9.674,10.868-16.895,21.214-16.895c9.95,0,18.332,6.676,20.929,15.792l6.131-4.518v49.01l24.053,0.051V76.911
				L136.065,110.061z"/>
		</g>
	</g>
	<g>
		<path d="M416.432,171.337c0,18.857-15.283,34.141-34.141,34.141H291.25c-18.857,0-34.141-15.283-34.141-34.141V80.296
			c0-18.854,15.283-34.141,34.141-34.141h91.041c18.857,0,34.141,15.287,34.141,34.141V171.337z"/>
		<g>
			<path fill="#FFFFFF" d="M336.622,117.291c-10.409,0-18.847,8.438-18.847,18.845c0,7.896,4.855,14.654,11.744,17.461l7.103,21.127
				l7.103-21.127c6.888-2.807,11.744-9.564,11.744-17.461C355.468,125.729,347.03,117.291,336.622,117.291z M336.622,147.318
				c-6.175,0-11.182-5.008-11.182-11.182s5.007-11.18,11.182-11.18c6.176,0,11.181,5.006,11.181,11.18
				S342.797,147.318,336.622,147.318z"/>
			<path fill="#FFFFFF" d="M335.387,110.061l-49.579-32.657v97.321h23.183l0.096-48.277l6.321,4.816
				c2.214-9.674,10.868-16.895,21.214-16.895c9.95,0,18.332,6.676,20.929,15.792l6.131-4.518v49.01l24.053,0.051V76.911
				L335.387,110.061z"/>
		</g>
	</g>
	<g>
		<rect x="655.754" y="25.633" width="198.516" height="200.367"/>
		<g>
			<path fill="#FFFFFF" d="M834.674,171.337c0,18.857-15.283,34.141-34.141,34.141h-91.041c-18.857,0-34.141-15.283-34.141-34.141
				V80.296c0-18.854,15.283-34.141,34.141-34.141h91.041c18.857,0,34.141,15.287,34.141,34.141V171.337z"/>
			<g>
				<path d="M754.863,117.291c-10.41,0-18.848,8.438-18.848,18.845c0,7.896,4.855,14.654,11.744,17.461l7.104,21.127l7.102-21.127
					c6.889-2.807,11.744-9.564,11.744-17.461C773.709,125.729,765.271,117.291,754.863,117.291z M754.863,147.317
					c-6.176,0-11.182-5.008-11.182-11.182s5.006-11.18,11.182-11.18s11.18,5.006,11.18,11.18S761.039,147.317,754.863,147.317z"/>
				<path d="M753.629,110.061l-49.58-32.657v97.32h23.184l0.096-48.277l6.32,4.816c2.215-9.674,10.869-16.895,21.215-16.895
					c9.949,0,18.332,6.676,20.928,15.791l6.131-4.518v49.01l24.053,0.051V76.911L753.629,110.061z"/>
			</g>
		</g>
	</g>
	<g>
		<path fill="none" stroke="#231F20" stroke-miterlimit="10" d="M615.754,171.337c0,18.857-15.283,34.141-34.141,34.141h-91.041
			c-18.857,0-34.141-15.283-34.141-34.141V80.296c0-18.854,15.283-34.141,34.141-34.141h91.041
			c18.857,0,34.141,15.287,34.141,34.141V171.337z"/>
		<g>
			<path fill="none" stroke="#231F20" stroke-miterlimit="10" d="M535.943,117.291c-10.408,0-18.846,8.438-18.846,18.845
				c0,7.896,4.855,14.654,11.744,17.461l7.102,21.127l7.104-21.127c6.887-2.807,11.744-9.564,11.744-17.461
				C554.791,125.729,546.352,117.291,535.943,117.291z M535.943,147.317c-6.174,0-11.182-5.008-11.182-11.182
				s5.008-11.18,11.182-11.18c6.176,0,11.182,5.006,11.182,11.18S542.119,147.317,535.943,147.317z"/>
			<path fill="none" stroke="#231F20" stroke-miterlimit="10" d="M534.709,110.061l-49.578-32.657v97.32h23.182l0.096-48.277
				l6.322,4.816c2.213-9.674,10.867-16.895,21.213-16.895c9.951,0,18.332,6.676,20.93,15.791l6.131-4.518v49.01l24.053,0.051V76.911
				L534.709,110.061z"/>
		</g>
	</g>
</g>
<g>
	<g>
		<path fill="#7A14DD" d="M399.29,586.319c-14.476,0-26.21,11.735-26.21,26.207c0,10.981,6.752,20.38,16.333,24.282l9.878,29.382
			l9.878-29.382c9.578-3.902,16.332-13.301,16.332-24.282C425.5,598.055,413.765,586.319,399.29,586.319z M399.29,628.077
			c-8.589,0-15.551-6.965-15.551-15.551c0-8.585,6.962-15.548,15.551-15.548s15.549,6.963,15.549,15.548
			C414.839,621.112,407.878,628.077,399.29,628.077z"/>
		<path fill="#7A14DD" d="M496.862,663.255c-1.03,0.452-1.786,0.759-2.268,0.919c-3.413,1.319-6.988,1.979-10.721,1.979
			c-4.925,0-9.578-1.142-13.955-3.428c-4.38-2.319-7.855-5.473-10.432-9.464c-2.608-4.058-3.909-8.579-3.909-13.567
			c0-3.768,0.756-7.277,2.268-10.527c1.513-3.22,3.591-6.021,6.229-8.403c2.608-2.381,5.633-4.199,9.079-5.456
			c3.442-1.321,7.018-1.981,10.72-1.981c3.669,0,7.241,0.645,10.721,1.934c3.476,1.286,6.5,3.123,9.075,5.504
			c2.705,2.448,4.799,5.247,6.277,8.403c1.516,3.25,2.271,6.76,2.271,10.527l-0.049,25.155l-15.308-0.145V663.255z M472.769,633.462
			c-1.193,1.9-1.789,3.976-1.789,6.231c0,3.41,1.289,6.356,3.864,8.835c2.542,2.446,5.552,3.669,9.03,3.669
			c3.509,0,6.533-1.223,9.078-3.669c2.573-2.479,3.862-5.425,3.862-8.835c0-2.256-0.597-4.331-1.786-6.231
			c-1.192-1.898-2.786-3.41-4.78-4.539c-1.964-1.094-4.091-1.643-6.374-1.643c-2.223,0-4.331,0.549-6.325,1.643
			C475.552,630.052,473.958,631.563,472.769,633.462z"/>
		<path fill="#7A14DD" d="M455.481,655.479c-3.037-4.723-4.552-9.987-4.552-15.793c0-4.387,0.88-8.472,2.641-12.255
			c1.759-3.75,4.18-7.011,7.252-9.784c2.771-2.529,5.968-4.486,9.551-5.925v-81.559l-72.801,46.101l-68.949-45.415V666.19h32.239
			l0.134-67.139l8.79,6.701c3.08-13.456,15.115-23.498,29.504-23.498c13.836,0,25.493,9.286,29.106,21.96l8.525-6.282v68.156
			l30.098,0.063C462.21,663.485,458.356,659.937,455.481,655.479z"/>
		<path fill="#7A14DD" d="M514.634,639.498c0.03-4.925,1.335-9.351,3.91-13.28c2.575-4.021,6.052-7.176,10.431-9.462
			c4.377-2.319,9.031-3.477,13.956-3.477c3.765,0,7.338,0.66,10.72,1.979c3.347,1.223,6.39,3.072,9.127,5.552
			c2.702,2.479,4.796,5.313,6.277,8.5c1.479,3.185,2.221,6.696,2.221,10.524c0,3.735-0.757,7.229-2.271,10.479
			c-1.479,3.22-3.558,6.036-6.227,8.449c-2.674,2.448-5.717,4.299-9.127,5.555c-3.445,1.256-7.021,1.883-10.72,1.883
			c-3.639,0-7.196-0.627-10.672-1.883l-1.111-0.482l-1.111-0.482v20.375l-15.402-0.048V639.498z M530.036,639.835
			c0,2.287,0.596,4.347,1.786,6.182c1.192,1.9,2.786,3.415,4.782,4.539c1.962,1.127,4.07,1.692,6.326,1.692
			c2.253,0,4.377-0.565,6.373-1.692c1.995-1.124,3.588-2.639,4.78-4.539c1.19-1.865,1.787-3.928,1.787-6.182
			c0-3.41-1.289-6.373-3.862-8.883c-2.545-2.479-5.569-3.72-9.078-3.72c-3.479,0-6.488,1.241-9.03,3.72
			C531.324,633.432,530.036,636.393,530.036,639.835z"/>
		<path fill="#7A14DD" d="M581.513,649.155c3.058,3.06,6.79,4.59,11.202,4.59c4.604,0,6.904-1.353,6.904-4.06
			c0-1.413-1.271-2.462-3.813-3.139c-1.804-0.416-4.669-1.142-8.597-2.172c-3.187-0.838-5.874-2.38-8.063-4.636
			c-2.156-2.221-3.235-5.633-3.235-10.236c0-3.542,0.886-6.535,2.654-8.981c1.805-2.446,4.139-4.25,7.003-5.407
			c2.929-1.19,6.133-1.789,9.609-1.789c1.964,0,3.961,0.276,5.988,0.822c2.189,0.675,4.153,1.513,5.892,2.51
			c1.897,1.063,3.572,2.256,5.021,3.575l-8.498,8.449c-2.479-1.865-5.184-2.802-8.111-2.802c-3.512,0-5.266,0.982-5.266,2.948
			c0,1.769,1.305,3.01,3.913,3.718c2.864,0.771,5.744,1.497,8.642,2.172c3.188,0.805,5.844,2.286,7.968,4.442
			c2.156,2.19,3.234,5.633,3.234,10.332c0,3.51-0.934,6.539-2.798,9.079c-1.87,2.578-4.364,4.491-7.485,5.747
			c-3.124,1.319-6.358,1.981-9.705,1.981c-2.802,0-5.329-0.229-7.582-0.678c-2.256-0.418-4.364-1.126-6.328-2.123
			c-2.027-0.998-4.151-2.335-6.374-4.01L581.513,649.155z"/>
		<path fill="#7A14DD" d="M637.718,652.197h0.87c3.925-0.127,5.892-2.85,5.892-8.16v-28.778h15.449v28.778
			c0,14.004-7.111,21.393-21.341,22.164h-0.87c-14.228-0.771-21.342-8.16-21.342-22.164v-28.778h15.452v28.778
			C631.828,649.348,633.79,652.07,637.718,652.197z"/>
		<path fill="#7A14DD" d="M677.314,605.407c-0.71,1.193-1.674,2.157-2.897,2.898c-1.223,0.739-2.575,1.109-4.057,1.109
			c-1.479,0-2.816-0.354-4.007-1.062c-1.226-0.738-2.189-1.721-2.897-2.946c-0.741-1.286-1.111-2.653-1.111-4.104
			c0-1.479,0.355-2.832,1.063-4.055c0.773-1.257,1.753-2.238,2.945-2.946c1.19-0.708,2.527-1.063,4.007-1.063
			c1.481,0,2.834,0.355,4.057,1.063c1.19,0.708,2.157,1.689,2.897,2.946c0.708,1.223,1.063,2.575,1.063,4.055
			C678.378,602.85,678.022,604.218,677.314,605.407z M678.327,615.307v49.496h-15.401v-49.447L678.327,615.307z"/>
	</g>
	<g>
		<g>
			<path fill="#7A14DD" d="M145.881,585.391c-14.237,0-25.777,11.541-25.777,25.774c0,10.799,6.642,20.042,16.063,23.88
				l9.714,28.896l9.714-28.896c9.42-3.838,16.063-13.081,16.063-23.88C171.658,596.932,160.117,585.391,145.881,585.391z
				 M145.881,626.457c-8.445,0-15.292-6.85-15.292-15.292c0-8.444,6.847-15.291,15.292-15.291c8.447,0,15.292,6.847,15.292,15.291
				C161.172,619.607,154.328,626.457,145.881,626.457z"/>
			<path fill="#7A14DD" d="M144.192,575.501l-67.809-44.664V663.94h31.708l0.13-66.028l8.645,6.587
				c3.028-13.23,14.865-23.105,29.014-23.105c13.609,0,25.073,9.13,28.625,21.596l8.385-6.178v67.029l32.896,0.068V530.163
				L144.192,575.501z"/>
		</g>
		<g>
			<path fill="#7A14DD" d="M92.645,675.505v45.989l-12.024-0.033v-21.425l-9.531,9.111l-8.858-8.762L62.2,721.494H50.366v-45.989
				l20.724,17.719L92.645,675.505z"/>
			<path fill="#7A14DD" d="M121.587,720.502c-0.683,0.3-1.184,0.503-1.502,0.609c-2.261,0.873-4.626,1.312-7.099,1.312
				c-3.263,0-6.345-0.759-9.244-2.273c-2.899-1.535-5.202-3.623-6.908-6.268c-1.728-2.687-2.591-5.681-2.591-8.986
				c0-2.494,0.501-4.818,1.503-6.971c1.001-2.134,2.377-3.988,4.126-5.564c1.727-1.578,3.729-2.783,6.012-3.615
				c2.28-0.873,4.648-1.312,7.101-1.312c2.429,0,4.797,0.429,7.099,1.281c2.303,0.853,4.306,2.067,6.012,3.646
				c1.792,1.619,3.177,3.474,4.158,5.564c1.001,2.152,1.502,4.477,1.502,6.971l-0.03,16.662l-10.139-0.097V720.502z M105.629,700.77
				c-0.789,1.261-1.184,2.634-1.184,4.126c0,2.261,0.854,4.212,2.56,5.854c1.684,1.621,3.678,2.431,5.98,2.431
				c2.323,0,4.326-0.81,6.012-2.431c1.705-1.642,2.558-3.593,2.558-5.854c0-1.492-0.395-2.865-1.183-4.126
				c-0.789-1.256-1.845-2.259-3.167-3.004c-1.302-0.727-2.708-1.089-4.221-1.089c-1.472,0-2.869,0.362-4.192,1.089
				C107.472,698.511,106.418,699.514,105.629,700.77z"/>
			<path fill="#7A14DD" d="M133.356,704.769c0.022-3.264,0.884-6.194,2.589-8.795c1.707-2.664,4.009-4.755,6.909-6.267
				c2.899-1.538,5.98-2.305,9.242-2.305c2.495,0,4.862,0.437,7.1,1.313c2.218,0.81,4.232,2.034,6.044,3.677
				c1.792,1.642,3.178,3.519,4.159,5.627c0.979,2.111,1.47,4.436,1.47,6.973c0,2.475-0.501,4.788-1.503,6.939
				c-0.979,2.135-2.355,3.999-4.125,5.598c-1.77,1.619-3.783,2.847-6.044,3.68c-2.282,0.832-4.647,1.245-7.1,1.245
				c-2.409,0-4.766-0.413-7.067-1.245l-0.736-0.322l-0.736-0.317v13.496l-10.202-0.033V704.769z M143.558,704.991
				c0,1.515,0.395,2.88,1.184,4.096c0.789,1.256,1.843,2.258,3.166,3.004c1.301,0.749,2.698,1.122,4.19,1.122
				c1.494,0,2.899-0.373,4.222-1.122c1.322-0.746,2.376-1.748,3.167-3.004c0.788-1.238,1.182-2.601,1.182-4.096
				c0-2.258-0.853-4.222-2.559-5.884c-1.685-1.642-3.688-2.464-6.012-2.464c-2.302,0-4.295,0.822-5.979,2.464
				C144.411,700.749,143.558,702.71,143.558,704.991z"/>
			<path fill="#7A14DD" d="M177.652,711.165c2.023,2.024,4.497,3.037,7.419,3.037c3.048,0,4.573-0.896,4.573-2.685
				c0-0.938-0.842-1.632-2.527-2.081c-1.194-0.276-3.092-0.756-5.692-1.438c-2.11-0.553-3.893-1.578-5.341-3.07
				c-1.43-1.472-2.144-3.729-2.144-6.782c0-2.342,0.587-4.326,1.761-5.947c1.193-1.619,2.739-2.813,4.636-3.58
				c1.941-0.789,4.063-1.185,6.366-1.185c1.299,0,2.621,0.183,3.965,0.543c1.45,0.448,2.75,1.005,3.901,1.664
				c1.259,0.703,2.367,1.492,3.327,2.367l-5.628,5.598c-1.642-1.238-3.433-1.854-5.374-1.854c-2.324,0-3.485,0.649-3.485,1.948
				c0,1.175,0.861,1.997,2.59,2.464c1.897,0.51,3.806,0.992,5.724,1.438c2.11,0.533,3.87,1.515,5.278,2.94
				c1.427,1.452,2.142,3.732,2.142,6.846c0,2.324-0.618,4.329-1.855,6.012c-1.235,1.707-2.889,2.976-4.957,3.809
				c-2.069,0.872-4.211,1.312-6.428,1.312c-1.855,0-3.529-0.149-5.02-0.449c-1.495-0.279-2.89-0.746-4.19-1.408
				c-1.342-0.66-2.752-1.545-4.222-2.654L177.652,711.165z"/>
			<path fill="#7A14DD" d="M214.877,713.18h0.576c2.601-0.087,3.901-1.888,3.901-5.404v-19.061h10.234v19.061
				c0,9.273-4.713,14.165-14.136,14.678h-0.576c-9.424-0.513-14.137-5.404-14.137-14.678v-19.061h10.235v19.061
				C210.976,711.292,212.275,713.093,214.877,713.18z"/>
			<path fill="#7A14DD" d="M241.102,682.191c-0.469,0.786-1.108,1.426-1.918,1.918c-0.811,0.489-1.708,0.733-2.687,0.733
				c-0.981,0-1.865-0.233-2.654-0.703c-0.811-0.489-1.451-1.139-1.919-1.948c-0.49-0.853-0.734-1.761-0.734-2.721
				c0-0.979,0.233-1.875,0.703-2.687c0.511-0.832,1.161-1.482,1.951-1.951c0.79-0.47,1.673-0.703,2.654-0.703
				c0.979,0,1.876,0.233,2.687,0.703c0.788,0.469,1.427,1.119,1.918,1.951c0.468,0.812,0.703,1.707,0.703,2.687
				C241.805,680.496,241.57,681.402,241.102,682.191z M241.773,688.745v32.779h-10.201v-32.746L241.773,688.745z"/>
		</g>
	</g>
</g>
<g>
	<g>
		<g>
			<path fill="#7A14DD" d="M412.571,391.182c0,18.857-15.283,34.141-34.141,34.141H287.39c-18.857,0-34.141-15.283-34.141-34.141
				v-91.041c0-18.854,15.283-34.141,34.141-34.141h91.041c18.857,0,34.141,15.287,34.141,34.141V391.182z"/>
			<g>
				<path fill="#FFFFFF" d="M332.761,337.136c-10.409,0-18.847,8.438-18.847,18.845c0,7.896,4.855,14.654,11.744,17.461
					l7.103,21.127l7.103-21.127c6.888-2.807,11.744-9.564,11.744-17.461C351.607,345.574,343.169,337.136,332.761,337.136z
					 M332.761,367.162c-6.175,0-11.182-5.008-11.182-11.182s5.007-11.18,11.182-11.18c6.176,0,11.181,5.006,11.181,11.18
					S338.937,367.162,332.761,367.162z"/>
				<path fill="#FFFFFF" d="M331.526,329.905l-49.579-32.657v97.32h23.183l0.096-48.277l6.321,4.816
					c2.214-9.674,10.868-16.895,21.214-16.895c9.95,0,18.332,6.676,20.929,15.791l6.131-4.518v49.01l24.053,0.051v-97.791
					L331.526,329.905z"/>
			</g>
		</g>
		<g>
			<path fill="#7A14DD" d="M493.408,312.344v66.605l-17.414-0.048v-31.03l-13.805,13.196l-12.828-12.688l-0.047,30.57h-17.139
				v-66.605l30.014,25.661L493.408,312.344z"/>
			<path fill="#7A14DD" d="M535.325,377.512c-0.989,0.434-1.715,0.729-2.176,0.883c-3.274,1.264-6.701,1.899-10.282,1.899
				c-4.726,0-9.188-1.099-13.387-3.293c-4.199-2.223-7.533-5.247-10.005-9.076c-2.503-3.892-3.752-8.228-3.752-13.017
				c0-3.611,0.726-6.978,2.177-10.094c1.45-3.091,3.443-5.777,5.976-8.06c2.501-2.285,5.402-4.031,8.707-5.236
				c3.302-1.264,6.732-1.899,10.284-1.899c3.519,0,6.947,0.621,10.282,1.855s6.236,2.995,8.707,5.28
				c2.595,2.345,4.601,5.031,6.021,8.06c1.449,3.116,2.175,6.482,2.175,10.094l-0.044,24.133l-14.684-0.14V377.512z
				 M512.212,348.934c-1.143,1.826-1.714,3.814-1.714,5.975c0,3.274,1.236,6.101,3.708,8.479c2.438,2.348,5.326,3.521,8.661,3.521
				c3.364,0,6.266-1.173,8.707-3.521c2.47-2.378,3.705-5.204,3.705-8.479c0-2.16-0.572-4.148-1.713-5.975
				c-1.143-1.819-2.672-3.271-4.586-4.351c-1.886-1.052-3.921-1.577-6.113-1.577c-2.131,0-4.154,0.525-6.07,1.577
				C514.882,345.663,513.355,347.114,512.212,348.934z"/>
			<path fill="#7A14DD" d="M552.37,354.725c0.031-4.726,1.28-8.97,3.75-12.736c2.472-3.858,5.807-6.887,10.007-9.077
				c4.198-2.227,8.661-3.336,13.385-3.336c3.612,0,7.041,0.632,10.282,1.899c3.212,1.172,6.13,2.947,8.753,5.325
				c2.595,2.377,4.604,5.097,6.023,8.15c1.418,3.058,2.13,6.423,2.13,10.098c0,3.583-0.727,6.935-2.178,10.051
				c-1.418,3.091-3.412,5.792-5.976,8.106c-2.563,2.345-5.479,4.123-8.753,5.329c-3.306,1.205-6.73,1.804-10.282,1.804
				c-3.489,0-6.902-0.599-10.235-1.804l-1.066-0.467l-1.065-0.46v19.547l-14.774-0.048V354.725z M567.145,355.048
				c0,2.194,0.571,4.171,1.715,5.932c1.143,1.819,2.669,3.271,4.584,4.351c1.885,1.084,3.908,1.625,6.068,1.625
				c2.163,0,4.199-0.541,6.115-1.625c1.914-1.08,3.441-2.531,4.586-4.351c1.141-1.793,1.713-3.767,1.713-5.932
				c0-3.271-1.235-6.114-3.706-8.521c-2.44-2.378-5.342-3.568-8.708-3.568c-3.335,0-6.221,1.19-8.659,3.568
				C568.379,348.904,567.145,351.745,567.145,355.048z"/>
			<path fill="#7A14DD" d="M616.522,363.989c2.931,2.933,6.514,4.398,10.745,4.398c4.415,0,6.624-1.297,6.624-3.888
				c0-1.359-1.221-2.363-3.66-3.014c-1.729-0.4-4.478-1.095-8.244-2.083c-3.056-0.802-5.638-2.286-7.735-4.447
				c-2.071-2.131-3.105-5.401-3.105-9.822c0-3.392,0.851-6.266,2.55-8.613c1.728-2.345,3.967-4.076,6.714-5.186
				c2.812-1.143,5.886-1.716,9.221-1.716c1.881,0,3.796,0.265,5.741,0.786c2.101,0.65,3.983,1.455,5.65,2.411
				c1.822,1.018,3.429,2.16,4.817,3.428l-8.15,8.107c-2.378-1.794-4.973-2.687-7.783-2.687c-3.366,0-5.048,0.94-5.048,2.822
				c0,1.701,1.248,2.892,3.752,3.568c2.747,0.738,5.513,1.437,8.291,2.083c3.055,0.771,5.604,2.194,7.644,4.259
				c2.066,2.103,3.102,5.406,3.102,9.915c0,3.366-0.896,6.27-2.687,8.705c-1.79,2.474-4.184,4.311-7.179,5.517
				c-2.997,1.264-6.099,1.899-9.311,1.899c-2.686,0-5.111-0.217-7.271-0.65c-2.164-0.404-4.186-1.08-6.068-2.039
				c-1.944-0.956-3.985-2.238-6.115-3.844L616.522,363.989z"/>
			<path fill="#7A14DD" d="M670.436,366.907h0.834c3.767-0.125,5.649-2.734,5.649-7.828v-27.604h14.822v27.604
				c0,13.432-6.825,20.517-20.472,21.259h-0.834c-13.648-0.742-20.475-7.827-20.475-21.259v-27.604h14.824v27.604
				C664.785,364.173,666.667,366.782,670.436,366.907z"/>
			<path fill="#7A14DD" d="M708.416,322.026c-0.68,1.14-1.606,2.065-2.778,2.778c-1.174,0.709-2.474,1.063-3.892,1.063
				c-1.42,0-2.701-0.338-3.844-1.019c-1.174-0.709-2.103-1.649-2.78-2.822c-0.709-1.234-1.063-2.55-1.063-3.938
				c0-1.419,0.338-2.716,1.018-3.892c0.74-1.206,1.682-2.146,2.826-2.826c1.143-0.68,2.424-1.019,3.844-1.019
				c1.418,0,2.718,0.339,3.892,1.019c1.141,0.68,2.067,1.62,2.778,2.826c0.678,1.176,1.018,2.473,1.018,3.892
				C709.434,319.572,709.094,320.884,708.416,322.026z M709.388,331.519v47.475h-14.774v-47.427L709.388,331.519z"/>
		</g>
	</g>
	<g>
		<g>
			<path fill="#7A14DD" d="M217.11,391.183c0,18.857-15.283,34.141-34.141,34.141H91.928c-18.857,0-34.141-15.283-34.141-34.141
				v-91.041c0-18.854,15.283-34.141,34.141-34.141h91.041c18.857,0,34.141,15.287,34.141,34.141V391.183z"/>
			<g>
				<path fill="#FFFFFF" d="M137.299,337.136c-10.409,0-18.847,8.439-18.847,18.846c0,7.896,4.855,14.654,11.744,17.461
					l7.103,21.127l7.103-21.127c6.888-2.807,11.744-9.564,11.744-17.461C156.146,345.575,147.708,337.136,137.299,337.136z
					 M137.299,367.163c-6.175,0-11.182-5.008-11.182-11.182s5.007-11.18,11.182-11.18c6.176,0,11.181,5.006,11.181,11.18
					S143.475,367.163,137.299,367.163z"/>
				<path fill="#FFFFFF" d="M136.065,329.905l-49.579-32.656v97.32h23.183l0.096-48.277l6.321,4.816
					c2.214-9.674,10.868-16.895,21.214-16.895c9.95,0,18.332,6.676,20.929,15.791l6.131-4.518v49.01l24.053,0.051v-97.791
					L136.065,329.905z"/>
			</g>
		</g>
		<g>
			<path fill="#7A14DD" d="M88.831,436.888v41.839l-10.939-0.029v-19.492l-8.671,8.289l-8.059-7.971l-0.029,19.203H50.366v-41.839
				l18.854,16.119L88.831,436.888z"/>
			<path fill="#7A14DD" d="M115.161,477.824c-0.621,0.272-1.077,0.457-1.367,0.554c-2.057,0.795-4.209,1.194-6.458,1.194
				c-2.969,0-5.772-0.69-8.41-2.068c-2.637-1.397-4.732-3.297-6.285-5.702c-1.572-2.444-2.357-5.169-2.357-8.177
				c0-2.269,0.456-4.383,1.368-6.341c0.911-1.941,2.163-3.629,3.753-5.063c1.571-1.436,3.394-2.532,5.47-3.289
				c2.074-0.794,4.229-1.193,6.46-1.193c2.21,0,4.364,0.39,6.458,1.165c2.095,0.776,3.917,1.882,5.47,3.317
				c1.63,1.473,2.89,3.16,3.783,5.063c0.911,1.958,1.366,4.072,1.366,6.341l-0.027,15.159l-9.225-0.087V477.824z M100.643,459.872
				c-0.718,1.147-1.077,2.396-1.077,3.753c0,2.058,0.777,3.832,2.33,5.326c1.531,1.475,3.346,2.211,5.441,2.211
				c2.113,0,3.936-0.736,5.47-2.211c1.551-1.494,2.327-3.269,2.327-5.326c0-1.357-0.359-2.605-1.076-3.753
				c-0.718-1.143-1.678-2.055-2.881-2.733c-1.184-0.66-2.463-0.99-3.84-0.99c-1.339,0-2.61,0.33-3.813,0.99
				C102.32,457.817,101.36,458.729,100.643,459.872z"/>
			<path fill="#7A14DD" d="M125.869,463.51c0.02-2.969,0.805-5.635,2.356-8.001c1.552-2.424,3.647-4.325,6.286-5.701
				c2.637-1.399,5.441-2.097,8.408-2.097c2.269,0,4.423,0.397,6.459,1.193c2.018,0.737,3.85,1.852,5.499,3.346
				c1.63,1.493,2.891,3.201,3.783,5.119c0.891,1.921,1.338,4.035,1.338,6.344c0,2.251-0.456,4.356-1.368,6.313
				c-0.891,1.941-2.144,3.639-3.753,5.093c-1.61,1.473-3.442,2.59-5.499,3.347c-2.077,0.758-4.228,1.134-6.459,1.134
				c-2.192,0-4.336-0.376-6.43-1.134l-0.669-0.293l-0.669-0.288v12.278l-9.281-0.03V463.51z M135.149,463.713
				c0,1.378,0.359,2.62,1.077,3.726c0.718,1.144,1.677,2.055,2.879,2.733c1.185,0.681,2.455,1.021,3.813,1.021
				c1.358,0,2.637-0.34,3.841-1.021c1.203-0.679,2.162-1.59,2.881-2.733c0.717-1.126,1.076-2.366,1.076-3.726
				c0-2.055-0.776-3.841-2.328-5.353c-1.533-1.494-3.355-2.242-5.47-2.242c-2.095,0-3.908,0.748-5.44,2.242
				C135.925,459.854,135.149,461.638,135.149,463.713z"/>
			<path fill="#7A14DD" d="M166.167,469.329c1.841,1.843,4.092,2.764,6.75,2.764c2.774,0,4.161-0.815,4.161-2.442
				c0-0.854-0.767-1.484-2.299-1.893c-1.086-0.252-2.813-0.688-5.179-1.31c-1.919-0.503-3.541-1.436-4.859-2.793
				c-1.301-1.339-1.951-3.394-1.951-6.17c0-2.131,0.535-3.937,1.602-5.411c1.085-1.473,2.492-2.561,4.218-3.257
				c1.766-0.718,3.697-1.078,5.792-1.078c1.182,0,2.385,0.166,3.607,0.494c1.319,0.408,2.502,0.914,3.549,1.514
				c1.145,0.64,2.154,1.357,3.026,2.154l-5.12,5.092c-1.494-1.126-3.124-1.688-4.889-1.688c-2.115,0-3.17,0.591-3.17,1.773
				c0,1.068,0.783,1.816,2.356,2.241c1.726,0.464,3.463,0.902,5.208,1.309c1.919,0.485,3.52,1.378,4.801,2.676
				c1.298,1.32,1.948,3.396,1.948,6.228c0,2.115-0.562,3.938-1.688,5.469c-1.124,1.554-2.628,2.708-4.509,3.465
				c-1.882,0.794-3.831,1.193-5.848,1.193c-1.688,0-3.211-0.136-4.567-0.408c-1.359-0.254-2.629-0.679-3.812-1.281
				c-1.221-0.601-2.504-1.405-3.841-2.415L166.167,469.329z"/>
			<path fill="#7A14DD" d="M200.034,471.162h0.524c2.366-0.078,3.549-1.717,3.549-4.917v-17.341h9.311v17.341
				c0,8.438-4.288,12.888-12.86,13.354h-0.524c-8.573-0.467-12.861-4.917-12.861-13.354v-17.341h9.312v17.341
				C196.485,469.445,197.667,471.084,200.034,471.162z"/>
			<path fill="#7A14DD" d="M223.892,442.97c-0.427,0.716-1.008,1.298-1.745,1.745c-0.737,0.445-1.553,0.667-2.444,0.667
				c-0.892,0-1.697-0.212-2.415-0.639c-0.738-0.446-1.32-1.037-1.747-1.773c-0.445-0.775-0.668-1.602-0.668-2.475
				c0-0.891,0.212-1.706,0.639-2.444c0.465-0.757,1.056-1.349,1.775-1.775c0.718-0.427,1.522-0.64,2.415-0.64
				c0.891,0,1.707,0.213,2.444,0.64c0.717,0.427,1.299,1.019,1.745,1.775c0.426,0.738,0.64,1.554,0.64,2.444
				C224.532,441.428,224.318,442.252,223.892,442.97z M224.503,448.933v29.822h-9.281v-29.792L224.503,448.933z"/>
		</g>
	</g>
</g>
</svg>
