<?xml version="1.0" encoding="utf-8"?>
<!-- Generator: Adobe Illustrator 16.0.0, SVG Export Plug-In . SVG Version: 6.00 Build 0)  -->
<!DOCTYPE svg PUBLIC "-//W3C//DTD SVG 1.1//EN" "http://www.w3.org/Graphics/SVG/1.1/DTD/svg11.dtd">
<svg version="1.1" id="Layer_1" xmlns="http://www.w3.org/2000/svg" xmlns:xlink="http://www.w3.org/1999/xlink" x="0px" y="0px"
	 width="981.098px" height="1071.107px" viewBox="0 0 981.098 1071.107" enable-background="new 0 0 981.098 1071.107"
	 xml:space="preserve">
<g>
	<g>
		<path fill="#7A14DD" d="M849.445,594.575c0,84.958-68.855,153.813-153.813,153.813H285.466
			c-84.958,0-153.813-68.855-153.813-153.813V184.41c0-84.941,68.855-153.813,153.813-153.813h410.166
			c84.958,0,153.813,68.873,153.813,153.813V594.575z"/>
		<g>
			<path fill="#FFFFFF" d="M489.876,351.079c-46.893,0-84.905,38.022-84.905,84.905c0,35.576,21.875,66.021,52.91,78.667
				l31.995,95.183l32.003-95.183c31.026-12.645,52.911-43.091,52.911-78.667C574.79,389.101,536.768,351.079,489.876,351.079z
				 M489.876,486.361c-27.815,0-50.377-22.562-50.377-50.376c0-27.815,22.562-50.368,50.377-50.368
				c27.823,0,50.376,22.553,50.376,50.368C540.252,463.799,517.699,486.361,489.876,486.361z"/>
			<path fill="#FFFFFF" d="M484.314,318.504L260.951,171.378v438.456h104.439l0.432-217.503l28.483,21.699
				c9.97-43.583,48.96-76.115,95.57-76.115c44.832,0,82.591,30.076,94.294,71.143l27.621-20.353v220.803l108.364,0.229V169.161
				L484.314,318.504z"/>
		</g>
	</g>
	<g>
		<path fill="#7A14DD" d="M271.51,800.49v188.496l-49.285-0.133v-87.817l-39.064,37.345l-36.307-35.91l-0.132,86.516H98.215V800.49
			l84.945,72.621L271.51,800.49z"/>
		<path fill="#7A14DD" d="M390.139,984.921c-2.798,1.228-4.853,2.059-6.155,2.494c-9.266,3.581-18.962,5.381-29.1,5.381
			c-13.375,0-26.006-3.11-37.89-9.318c-11.879-6.296-21.321-14.854-28.313-25.689c-7.079-11.013-10.616-23.288-10.616-36.839
			c0-10.221,2.051-19.746,6.16-28.567c4.1-8.747,9.745-16.35,16.912-22.808c7.074-6.468,15.284-11.408,24.638-14.818
			c9.346-3.577,19.056-5.377,29.108-5.377c9.957,0,19.658,1.756,29.1,5.249c9.438,3.498,17.647,8.479,24.639,14.946
			c7.348,6.635,13.023,14.237,17.044,22.808c4.101,8.821,6.155,18.347,6.155,28.567l-0.123,68.296l-41.56-0.392V984.921z
			 M324.729,904.041c-3.233,5.17-4.853,10.793-4.853,16.908c0,9.27,3.498,17.265,10.493,23.996
			c6.898,6.644,15.073,9.961,24.515,9.961c9.521,0,17.731-3.317,24.644-9.961c6.99-6.731,10.484-14.727,10.484-23.996
			c0-6.115-1.619-11.738-4.849-16.908c-3.234-5.147-7.559-9.257-12.979-12.314c-5.332-2.975-11.096-4.462-17.3-4.462
			c-6.031,0-11.756,1.487-17.181,4.462C332.287,894.784,327.963,898.894,324.729,904.041z"/>
		<path fill="#7A14DD" d="M438.382,920.43c0.088-13.375,3.625-25.386,10.611-36.047c6.996-10.92,16.429-19.486,28.316-25.685
			c11.884-6.306,24.516-9.446,37.882-9.446c10.225,0,19.931,1.79,29.1,5.376c9.09,3.322,17.348,8.342,24.774,15.073
			c7.344,6.728,13.028,14.423,17.045,23.063c4.017,8.654,6.027,18.18,6.027,28.58c0,10.142-2.055,19.627-6.164,28.444
			c-4.013,8.746-9.652,16.394-16.908,22.944c-7.255,6.635-15.509,11.668-24.774,15.078c-9.354,3.414-19.046,5.107-29.1,5.107
			c-9.873,0-19.535-1.693-28.968-5.107l-3.018-1.32l-3.015-1.298v55.317l-41.81-0.137V920.43z M480.191,921.345
			c0,6.208,1.615,11.805,4.854,16.785c3.233,5.152,7.554,9.257,12.97,12.314c5.342,3.067,11.062,4.598,17.177,4.598
			c6.124,0,11.884-1.53,17.309-4.598c5.42-3.058,9.74-7.162,12.979-12.314c3.229-5.073,4.849-10.66,4.849-16.785
			c0-9.257-3.498-17.304-10.488-24.114c-6.908-6.731-15.118-10.102-24.647-10.102c-9.433,0-17.607,3.37-24.506,10.102
			C483.689,903.957,480.191,911.996,480.191,921.345z"/>
		<path fill="#7A14DD" d="M619.939,946.647c8.289,8.303,18.435,12.451,30.406,12.451c12.5,0,18.747-3.674,18.747-11.003
			c0-3.851-3.454-6.688-10.356-8.527c-4.893-1.135-12.672-3.102-23.336-5.899c-8.646-2.267-15.954-6.468-21.894-12.583
			c-5.86-6.032-8.786-15.289-8.786-27.798c0-9.6,2.407-17.735,7.22-24.379c4.884-6.635,11.229-11.536,18.998-14.673
			c7.955-3.233,16.657-4.857,26.095-4.857c5.328,0,10.744,0.748,16.248,2.227c5.948,1.839,11.276,4.118,15.993,6.819
			c5.16,2.882,9.701,6.116,13.635,9.706l-23.068,22.939c-6.727-5.072-14.074-7.603-22.028-7.603c-9.525,0-14.282,2.662-14.282,7.99
			c0,4.813,3.528,8.184,10.616,10.098c7.774,2.09,15.602,4.065,23.464,5.896c8.65,2.187,15.856,6.208,21.629,12.055
			c5.852,5.948,8.782,15.298,8.782,28.057c0,9.53-2.534,17.744-7.603,24.639c-5.069,7-11.845,12.2-20.318,15.61
			c-8.482,3.577-17.255,5.376-26.345,5.376c-7.604,0-14.467-0.611-20.582-1.839c-6.125-1.144-11.844-3.058-17.172-5.772
			c-5.504-2.706-11.281-6.331-17.305-10.881L619.939,946.647z"/>
		<path fill="#7A14DD" d="M772.512,954.906h2.367c10.656-0.353,15.988-7.735,15.988-22.152v-78.126h41.947v78.126
			c0,38.013-19.315,58.063-57.936,60.165h-2.367c-38.62-2.103-57.939-22.152-57.939-60.165v-78.126h41.951v78.126
			C756.523,947.171,761.847,954.554,772.512,954.906z"/>
		<path fill="#7A14DD" d="M880.005,827.892c-1.927,3.225-4.545,5.847-7.866,7.862c-3.317,2.006-6.996,3.005-11.008,3.005
			c-4.021,0-7.646-0.955-10.881-2.878c-3.321-2.011-5.948-4.672-7.871-7.989c-2.006-3.494-3.01-7.216-3.01-11.149
			c0-4.013,0.96-7.686,2.883-11.012c2.098-3.41,4.756-6.076,7.998-7.999c3.234-1.923,6.859-2.882,10.881-2.882
			c4.012,0,7.69,0.959,11.008,2.882c3.229,1.923,5.852,4.589,7.866,7.999c1.919,3.326,2.878,6.999,2.878,11.012
			C882.883,820.944,881.924,824.657,880.005,827.892z M882.755,854.756v134.357h-41.811V854.893L882.755,854.756z"/>
	</g>
</g>
</svg>
