<?xml version="1.0" encoding="utf-8"?>
<!-- Generator: Adobe Illustrator 16.0.0, SVG Export Plug-In . SVG Version: 6.00 Build 0)  -->
<!DOCTYPE svg PUBLIC "-//W3C//DTD SVG 1.1//EN" "http://www.w3.org/Graphics/SVG/1.1/DTD/svg11.dtd">
<svg version="1.1" id="Layer_1" xmlns="http://www.w3.org/2000/svg" xmlns:xlink="http://www.w3.org/1999/xlink" x="0px" y="0px"
	 width="1133.692px" height="1071.107px" viewBox="0 0 1133.692 1071.107" enable-background="new 0 0 1133.692 1071.107"
	 xml:space="preserve">
<g>
	<g>
		<path fill="#7A14DD" d="M565.86,309.9c-68.755,0-124.494,55.739-124.494,124.48c0,52.154,32.081,96.795,77.58,115.33
			l46.914,139.557l46.919-139.557c45.495-18.535,77.576-63.176,77.576-115.33C690.354,365.639,634.615,309.9,565.86,309.9z
			 M565.86,508.235c-40.788,0-73.859-33.081-73.859-73.854c0-40.783,33.071-73.85,73.859-73.85c40.797,0,73.849,33.066,73.849,73.85
			C639.709,475.154,606.657,508.235,565.86,508.235z"/>
		<path fill="#7A14DD" d="M557.705,262.138L230.212,46.428v642.84h153.142l0.627-318.894l41.754,31.813
			c14.621-63.898,71.789-111.59,140.125-111.59c65.728,0,121.089,44.094,138.248,104.299l40.495-29.836v323.727l158.877,0.33V43.174
			L557.705,262.138z"/>
	</g>
	<g>
		<path fill="#7A14DD" d="M308.75,745.119v222.104l-58.068-0.16V863.595l-46.032,44.004l-42.783-42.315l-0.156,101.94h-57.153
			V745.119l100.092,85.574L308.75,745.119z"/>
		<path fill="#7A14DD" d="M448.535,962.432c-3.301,1.453-5.716,2.434-7.258,2.943c-10.919,4.217-22.342,6.339-34.284,6.339
			c-15.762,0-30.647-3.669-44.646-10.979c-13.999-7.414-25.12-17.498-33.364-30.271c-8.344-12.979-12.508-27.439-12.508-43.4
			c0-12.046,2.419-23.271,7.259-33.665c4.834-10.311,11.484-19.262,19.927-26.874c8.338-7.622,18.012-13.442,29.034-17.461
			c11.013-4.216,22.45-6.339,34.298-6.339c11.729,0,23.167,2.075,34.284,6.188c11.121,4.122,20.794,9.989,29.039,17.611
			c8.65,7.819,15.338,16.771,20.078,26.874c4.834,10.395,7.254,21.619,7.254,33.665l-0.146,80.472l-48.966-0.472V962.432z
			 M371.459,867.132c-3.811,6.094-5.716,12.726-5.716,19.932c0,10.914,4.123,20.337,12.367,28.271
			c8.131,7.829,17.762,11.734,28.883,11.734c11.215,0,20.894-3.905,29.034-11.734c8.235-7.934,12.352-17.356,12.352-28.271
			c0-7.206-1.905-13.838-5.711-19.932c-3.811-6.065-8.909-10.904-15.291-14.507c-6.292-3.51-13.079-5.255-20.384-5.255
			c-7.113,0-13.857,1.745-20.248,5.255C380.364,856.228,375.27,861.066,371.459,867.132z"/>
		<path fill="#7A14DD" d="M505.372,886.451c0.108-15.763,4.269-29.922,12.503-42.477c8.245-12.866,19.366-22.969,33.374-30.27
			c13.999-7.424,28.883-11.131,44.636-11.131c12.045,0,23.478,2.113,34.288,6.339c10.706,3.914,20.44,9.829,29.186,17.762
			c8.654,7.924,15.352,16.988,20.087,27.176c4.73,10.197,7.098,21.422,7.098,33.676c0,11.951-2.414,23.119-7.258,33.515
			c-4.73,10.31-11.376,19.309-19.927,27.034c-8.547,7.819-18.271,13.743-29.186,17.771c-11.027,4.019-22.445,6.009-34.288,6.009
			c-11.64,0-23.021-1.99-34.138-6.009l-3.551-1.557l-3.551-1.537v65.181l-49.272-0.16V886.451z M554.645,887.526
			c0,7.31,1.905,13.903,5.716,19.78c3.811,6.065,8.9,10.904,15.286,14.508c6.287,3.612,13.031,5.414,20.238,5.414
			c7.211,0,13.998-1.802,20.389-5.414c6.386-3.604,11.475-8.442,15.295-14.508c3.801-5.98,5.707-12.564,5.707-19.78
			c0-10.904-4.112-20.395-12.356-28.421c-8.136-7.924-17.81-11.896-29.034-11.896c-11.122,0-20.748,3.972-28.879,11.896
			C558.757,867.038,554.645,876.509,554.645,887.526z"/>
		<path fill="#7A14DD" d="M719.304,917.343c9.772,9.772,21.719,14.668,35.83,14.668c14.72,0,22.087-4.329,22.087-12.97
			c0-4.527-4.065-7.876-12.206-10.046c-5.763-1.34-14.932-3.65-27.487-6.952c-10.191-2.669-18.799-7.621-25.799-14.828
			c-6.904-7.104-10.356-18.008-10.356-32.751c0-11.31,2.839-20.894,8.508-28.723c5.759-7.82,13.226-13.593,22.385-17.29
			c9.376-3.812,19.629-5.727,30.751-5.727c6.272,0,12.658,0.887,19.148,2.623c6.999,2.169,13.281,4.857,18.837,8.036
			c6.079,3.396,11.433,7.207,16.064,11.433l-27.176,27.035c-7.934-5.98-16.583-8.952-25.96-8.952
			c-11.225,0-16.828,3.132-16.828,9.404c0,5.679,4.16,9.649,12.509,11.904c9.163,2.462,18.384,4.792,27.647,6.942
			c10.188,2.575,18.687,7.32,25.487,14.206c6.896,7.009,10.348,18.026,10.348,33.062c0,11.226-2.99,20.903-8.961,29.035
			c-5.967,8.244-13.951,14.365-23.94,18.394c-9.989,4.207-20.338,6.329-31.044,6.329c-8.961,0-17.045-0.717-24.242-2.169
			c-7.221-1.35-13.96-3.604-20.243-6.802c-6.479-3.188-13.29-7.461-20.389-12.818L719.304,917.343z"/>
		<path fill="#7A14DD" d="M899.084,927.068h2.782c12.564-0.415,18.842-9.112,18.842-26.101v-92.055h49.429v92.055
			c0,44.787-22.767,68.416-68.271,70.888h-2.782c-45.514-2.472-68.275-26.101-68.275-70.888v-92.055h49.438v92.055
			C880.246,917.956,886.52,926.653,899.084,927.068z"/>
		<path fill="#7A14DD" d="M1025.738,777.407c-2.264,3.802-5.354,6.886-9.264,9.263c-3.914,2.368-8.244,3.547-12.979,3.547
			s-9.003-1.132-12.819-3.396c-3.914-2.368-7.008-5.499-9.268-9.414c-2.362-4.112-3.547-8.499-3.547-13.14
			c0-4.726,1.128-9.056,3.392-12.971c2.472-4.018,5.612-7.159,9.423-9.423c3.816-2.273,8.084-3.396,12.819-3.396
			s9.065,1.122,12.979,3.396c3.802,2.264,6.896,5.405,9.264,9.423c2.264,3.915,3.396,8.245,3.396,12.971
			C1029.134,769.22,1028.002,773.597,1025.738,777.407z M1028.982,809.063v158.312h-49.268v-158.15L1028.982,809.063z"/>
	</g>
</g>
</svg>
